<svg width="54" height="54" viewBox="0 0 54 54" fill="none" xmlns="http://www.w3.org/2000/svg">
<rect width="54" height="54" rx="10" fill="white"/>
<path fill-rule="evenodd" clip-rule="evenodd" d="M35.3201 13.9839H19.9085C19.4117 13.9844 18.9354 14.182 18.5841 14.5333C18.2329 14.8846 18.0353 15.3609 18.0347 15.8577V18.5094H16.1621V19.4094H18.0347V22.5174H16.1621V23.4174H18.0347V26.5257H16.1621V27.4257H18.0347V30.5337H16.1621V31.4337H18.0347V34.5417H16.1621V35.4417H18.0347V38.2479C18.0353 38.7447 18.2329 39.221 18.5841 39.5722C18.9354 39.9235 19.4117 40.1211 19.9085 40.1217H35.3204C35.8172 40.1211 36.2935 39.9235 36.6448 39.5722C36.9961 39.221 37.1937 38.7447 37.1942 38.2479V15.8577C37.1935 15.3609 36.9958 14.8847 36.6445 14.5334C36.2932 14.1821 35.8169 13.9845 35.3201 13.9839ZM18.9347 38.2479V35.4417H20.7368V34.5417H18.9347V31.4337H20.7368V30.5337H18.9347V27.4257H20.7368V26.5257H18.9347V23.4174H20.7368V22.5174H18.9347V19.4094H20.7368V18.5094H18.9347V15.8577C18.935 15.5995 19.0377 15.352 19.2203 15.1695C19.4028 14.9869 19.6503 14.8842 19.9085 14.8839H31.6583V39.2217H19.9085C19.6503 39.2214 19.4028 39.1187 19.2203 38.9361C19.0377 38.7536 18.935 38.5061 18.9347 38.2479ZM36.2939 38.2479C36.2936 38.5061 36.1909 38.7536 36.0083 38.9361C35.8258 39.1187 35.5783 39.2214 35.3201 39.2217H32.558V14.8839H35.3201C35.5783 14.8842 35.8258 14.9869 36.0083 15.1695C36.1909 15.352 36.2936 15.5995 36.2939 15.8577V38.2479Z" fill="#005AA3"/>
</svg>
