<svg width="16" height="16" viewBox="0 0 16 16" fill="none" xmlns="http://www.w3.org/2000/svg">
<g clip-path="url(#clip0_8_2358)">
<path d="M15.6247 5.5H13.7538L13.2338 4.2C12.6994 2.86344 11.4241 2 9.98438 2H6.01563C4.57626 2 3.30063 2.86344 2.76595 4.2L2.24595 5.5H0.375321C0.131258 5.5 -0.0478041 5.72938 0.0115709 5.96594L0.199071 6.71594C0.240633 6.88281 0.390633 7 0.562821 7H1.19001C0.770321 7.36656 0.500008 7.89937 0.500008 8.5V10C0.500008 10.5037 0.692508 10.9584 1.00001 11.3103V13C1.00001 13.5522 1.44782 14 2.00001 14H3.00001C3.5522 14 4.00001 13.5522 4.00001 13V12H12V13C12 13.5522 12.4478 14 13 14H14C14.5522 14 15 13.5522 15 13V11.3103C15.3075 10.9587 15.5 10.5041 15.5 10V8.5C15.5 7.89937 15.2297 7.36656 14.8103 7H15.4375C15.6097 7 15.7597 6.88281 15.8013 6.71594L15.9888 5.96594C16.0478 5.72938 15.8688 5.5 15.6247 5.5ZM4.62282 4.94281C4.85063 4.37344 5.4022 4 6.01563 4H9.98438C10.5978 4 11.1494 4.37344 11.3772 4.94281L12 6.5H4.00001L4.62282 4.94281ZM3.00001 9.99375C2.40001 9.99375 2.00001 9.595 2.00001 8.99687C2.00001 8.39875 2.40001 8 3.00001 8C3.60001 8 4.50001 8.89719 4.50001 9.49531C4.50001 10.0934 3.60001 9.99375 3.00001 9.99375ZM13 9.99375C12.4 9.99375 11.5 10.0934 11.5 9.49531C11.5 8.89719 12.4 8 13 8C13.6 8 14 8.39875 14 8.99687C14 9.595 13.6 9.99375 13 9.99375Z" fill="white" fill-opacity="0.5"/>
</g>
<defs>
<clipPath id="clip0_8_2358">
<rect width="16" height="16" fill="white"/>
</clipPath>
</defs>
</svg>
