<svg width="34" height="34" viewBox="0 0 34 34" fill="none" xmlns="http://www.w3.org/2000/svg">
<rect width="34" height="34" rx="17" fill="white"/>
<g clip-path="url(#clip0_18_9393)">
<path d="M14.2565 25.7002C14.1286 25.6462 14.0223 25.5512 13.9544 25.4301C13.8865 25.309 13.8608 25.1688 13.8815 25.0315L15.019 17.6252H12.0002C11.9045 17.6278 11.8095 17.6084 11.7225 17.5684C11.6355 17.5284 11.5588 17.469 11.4984 17.3947C11.4381 17.3204 11.3955 17.2333 11.3742 17.1399C11.3528 17.0466 11.3532 16.9496 11.3752 16.8565L13.2502 8.73147C13.2832 8.59164 13.3634 8.46745 13.4772 8.37979C13.591 8.29214 13.7316 8.24638 13.8752 8.25022H20.1252C20.2186 8.24991 20.3108 8.27051 20.3952 8.31053C20.4796 8.35055 20.5539 8.40896 20.6127 8.48147C20.6724 8.55481 20.7146 8.64071 20.7363 8.73273C20.7579 8.82475 20.7584 8.92048 20.7377 9.01272L19.6565 13.8752H22.6252C22.7423 13.875 22.8572 13.9077 22.9566 13.9696C23.0561 14.0314 23.1362 14.12 23.1877 14.2252C23.2325 14.3262 23.2497 14.4372 23.2377 14.547C23.2256 14.6568 23.1846 14.7614 23.119 14.8502L14.994 25.4752C14.939 25.5566 14.8657 25.6239 14.7799 25.6717C14.6942 25.7195 14.5983 25.7464 14.5002 25.7502C14.4166 25.7487 14.3339 25.7317 14.2565 25.7002Z" fill="#2C2C2C"/>
</g>
<defs>
<clipPath id="clip0_18_9393">
<rect width="20" height="20" fill="white" transform="translate(7 7)"/>
</clipPath>
</defs>
</svg>
