<svg width="34" height="34" viewBox="0 0 34 34" fill="none" xmlns="http://www.w3.org/2000/svg">
<rect width="34" height="34" rx="17" fill="white"/>
<path d="M11.938 24.1452C12.6709 24.7591 13.5388 25.1906 14.4705 25.4043C14.5597 25.4335 14.6197 25.3168 14.5597 25.2585C12.5639 23.3543 13.6605 21.2935 14.4705 20.3643C15.048 19.701 15.8705 18.6085 15.8105 17.1435C15.8105 16.9968 15.9605 16.8793 16.0789 16.9677C17.2114 17.5535 17.9855 18.8427 18.1939 19.8968C18.5222 19.5752 18.6414 19.0768 18.6414 18.6377C18.6414 18.491 18.8197 18.3735 18.9689 18.491C20.0414 19.4577 21.888 22.7385 18.9089 25.316C18.8497 25.3752 18.9089 25.4927 18.9689 25.4635C19.8722 25.2267 20.7217 24.8187 21.4714 24.2618C26.3272 20.5118 23.1689 13.8618 21.113 11.6652C20.8455 11.401 20.3689 11.5768 20.3689 11.9577C20.3389 12.7493 20.1005 13.6277 19.4755 14.2135C18.9989 12.2218 17.4105 9.95933 15.1464 8.84599C14.8489 8.69933 14.4914 8.93349 14.5214 9.25599C14.5797 11.981 12.8022 13.716 11.253 15.9718C9.88221 17.9927 8.98888 21.7135 11.938 24.1452Z" fill="#2C2C2C"/>
</svg>
