<svg width="44" height="44" viewBox="0 0 44 44" fill="none" xmlns="http://www.w3.org/2000/svg">
<rect width="44" height="44" rx="22" fill="#005AA3"/>
<g clip-path="url(#clip0_18_9211)">
<path d="M23.76 11C23.2736 11 22.88 11.3953 22.88 11.88V12.76C22.88 13.2447 23.2736 13.64 23.76 13.64H28.16C28.6464 13.64 29.04 13.2447 29.04 12.76V11.88C29.04 11.3953 28.6464 11 28.16 11H23.76ZM23.3612 14.465C22.9522 15.2298 22.5998 16.2164 22.3438 17.0087L28.8337 20.68H30.36V20.5975C30.36 19.5766 29.5212 16.3127 28.5312 14.4787C28.4127 14.5045 28.2855 14.52 28.16 14.52H23.76C23.6225 14.52 23.4884 14.4942 23.3612 14.465ZM17.435 17.0637C15.2384 17.0637 13.5025 18.5539 13.0487 20.68H16.39L19.6213 17.6275C18.9595 17.258 18.2153 17.0637 17.435 17.0637ZM21.2025 17.4625C21.1114 17.4728 21.0255 17.5192 20.955 17.5862L17.6687 20.68H27.0462L21.4775 17.5175C21.3933 17.4694 21.2936 17.4522 21.2025 17.4625ZM12.2513 21.56C11.5603 21.56 11 22.1203 11 22.8112V24.2688C11 24.9597 11.5603 25.52 12.2513 25.52H31.7488C32.4397 25.52 33 24.9597 33 24.2688V22.8112C33 22.1203 32.4397 21.56 31.7488 21.56H12.2513ZM12.32 26.4V26.84C12.32 26.9259 12.3234 26.9741 13.8325 31.8725C13.8411 31.9017 13.872 31.9688 13.8875 31.9963C14.1505 32.4672 14.4392 33 15.0563 33H28.9438C29.7086 33 29.9716 32.3434 30.1675 31.8725C31.6748 26.9741 31.68 26.9259 31.68 26.84V26.4H27.28V30.8H25.96V26.4H24.2V30.8H22.88V26.4H21.12V30.8H19.8V26.4H18.04V30.8H16.72V26.4H12.32Z" fill="white"/>
</g>
<defs>
<clipPath id="clip0_18_9211">
<rect width="22" height="22" fill="white" transform="translate(11 11)"/>
</clipPath>
</defs>
</svg>
