<svg width="44" height="44" viewBox="0 0 44 44" fill="none" xmlns="http://www.w3.org/2000/svg">
<rect width="44" height="44" rx="22" fill="#005AA3"/>
<path d="M31.2556 25.8327C31.2556 21.9888 30.1803 19.0925 28.0598 17.2257C25.5346 15.0008 22.4977 15.1087 21.7201 15.1786H20.3479C20.1873 14.6427 19.6669 14.2457 19.043 14.2457H18.3603C17.7364 14.2457 17.2159 14.6418 17.0537 15.1786H12.2285V19.2677H16.9985V19.6733C16.9985 20.3767 17.6104 20.9497 18.3603 20.9497H19.043C19.7947 20.9497 20.4049 20.3776 20.4049 19.6733V19.2677H21.8245L21.9341 19.2703L22.0618 19.2539C22.0817 19.2513 23.9916 19.0657 25.3879 20.3215C26.5694 21.383 27.1666 23.2368 27.1666 25.8327H31.2557L31.2556 25.8327ZM16.2856 13.6597H21.2307C21.8163 13.6592 22.2909 13.1846 22.2914 12.5991V12.0527C22.2909 11.4671 21.8163 10.9926 21.2308 10.9921H16.2856C15.6996 10.9921 15.2246 11.4668 15.2241 12.0527V12.5999C15.225 13.1854 15.6999 13.6597 16.2856 13.6597H16.2856ZM29.9861 26.8787L29.2983 26.0994L28.6105 26.8787C28.0979 27.4595 26.4244 29.4599 26.4244 30.7847C26.4244 32.3692 27.7138 33.6586 29.2984 33.6586C30.8829 33.6586 32.1723 32.3693 32.1723 30.7847C32.1723 29.46 30.5006 27.4595 29.9862 26.8787H29.9861ZM29.2983 31.8247C28.724 31.8237 28.2588 31.3582 28.2583 30.7839C28.26 30.4999 28.7071 29.7318 29.2983 28.9387C29.892 29.7301 30.3347 30.4982 30.3382 30.7839C30.3382 31.3586 29.873 31.8247 29.2983 31.8247V31.8247Z" fill="white"/>
</svg>
