<svg width="44" height="44" viewBox="0 0 44 44" fill="none" xmlns="http://www.w3.org/2000/svg">
<rect width="44" height="44" rx="22" fill="#005AA3"/>
<path d="M32.5 14.875C32.5 13.225 31.375 11.875 29.8 11.575C29.725 11.5 29.575 11.5 29.5 11.5H15.625C13.375 11.5 11.5 13.375 11.5 15.625C11.5 17.875 13.375 19.75 15.625 19.75H23.125C23.275 19.75 23.5 19.75 23.65 19.75C24.1 21.475 25.525 22.75 27.25 22.75C29.35 22.75 31 20.875 31 18.625C31 18.55 31 18.475 31 18.4C31.975 17.5 32.5 16.225 32.5 14.875ZM22 16.75H15.25C14.8 16.75 14.5 16.45 14.5 16C14.5 15.55 14.8 15.25 15.25 15.25H22C22.45 15.25 22.75 15.55 22.75 16C22.75 16.45 22.45 16.75 22 16.75ZM27.25 21.25C26.2 21.25 25.3 20.425 25.075 19.225C26.275 18.55 27.1 17.35 27.25 16C28.525 16 29.5 17.2 29.5 18.625C29.5 20.05 28.525 21.25 27.25 21.25ZM30.55 16.6C29.875 15.4 28.75 14.575 27.4 14.5C27.7 13.675 28.45 13.075 29.35 13C30.25 13.15 31 13.9 31 14.875C31 15.475 30.85 16.075 30.55 16.6Z" fill="white"/>
<path d="M22.6 21.25H15.625C15.4 21.25 15.1 21.25 14.875 21.175C15.4 22.075 16.375 22.75 17.5 22.75H23.65C23.275 22.3 22.9 21.775 22.6 21.25Z" fill="white"/>
<path d="M28 27.25H26.5C25.225 27.25 24.25 28.225 24.25 29.5H23.8C22.825 29.5 22 28.675 22 27.7V25H23.5C23.95 25 24.25 24.7 24.25 24.25C24.25 23.8 23.95 23.5 23.5 23.5H19C18.55 23.5 18.25 23.8 18.25 24.25C18.25 24.7 18.55 25 19 25H20.5V27.7C20.5 29.5 22 31 23.8 31H24.25H26.5C26.95 31 27.25 31.3 27.25 31.75C27.25 32.2 26.95 32.5 26.5 32.5H24.85C25.225 32.95 25.825 33.25 26.5 33.25H28C29.275 33.25 30.25 32.275 30.25 31V29.5C30.25 28.225 29.275 27.25 28 27.25Z" fill="white"/>
</svg>
