<svg width="26" height="26" viewBox="0 0 26 26" fill="none" xmlns="http://www.w3.org/2000/svg">
<rect width="26" height="26" rx="13" fill="white"/>
<path fill-rule="evenodd" clip-rule="evenodd" d="M10.5 19.4163C9.54439 19.4163 8.91663 18.5452 8.91663 17.6663V8.33301C8.91663 7.45411 9.54439 6.58301 10.5 6.58301H15.5C16.4555 6.58301 17.0833 7.45411 17.0833 8.33301V17.6663C17.0833 18.5452 16.4555 19.4163 15.5 19.4163H10.5ZM13 18.2497C13.4832 18.2497 13.875 17.8579 13.875 17.3747C13.875 16.8914 13.4832 16.4997 13 16.4997C12.5167 16.4997 12.125 16.8914 12.125 17.3747C12.125 17.8579 12.5167 18.2497 13 18.2497Z" fill="#2C2C2C"/>
</svg>
