<svg width="64" height="48" viewBox="0 0 64 48" fill="none" xmlns="http://www.w3.org/2000/svg">
<circle cx="40" cy="24" r="24" fill="url(#paint0_linear_12_23)"/>
<rect width="48" height="48" rx="24" fill="#005AA3"/>
<g clip-path="url(#clip0_12_23)">
<path d="M16.6289 26.5553C15.0604 26.5553 13.7841 27.8316 13.7841 29.4001C13.7841 30.9686 15.0604 32.2449 16.6289 32.2449C18.1974 32.2449 19.4737 30.9686 19.4737 29.4001C19.4737 27.8316 18.1974 26.5553 16.6289 26.5553ZM16.6289 30.6874C15.9177 30.6874 15.3416 30.1086 15.3416 29.3974C15.3416 28.6861 15.9205 28.1073 16.6289 28.1073C17.3401 28.1073 17.919 28.6861 17.919 29.3974C17.919 30.1086 17.3401 30.6874 16.6289 30.6874Z" fill="white"/>
<path d="M31.2084 26.5553C29.64 26.5553 28.3637 27.8316 28.3637 29.4001C28.3637 30.9686 29.6399 32.2449 31.2084 32.2449C32.7769 32.2449 34.0532 30.9686 34.0532 29.4001C34.0532 27.8316 32.7769 26.5553 31.2084 26.5553ZM32.4985 29.4001C32.4985 30.1113 31.9196 30.6902 31.2084 30.6902C30.4972 30.6902 29.9183 30.1113 29.9183 29.4001C29.9183 28.6889 30.4972 28.1101 31.2084 28.1101C31.9196 28.1101 32.4985 28.6889 32.4985 29.4001Z" fill="white"/>
<path d="M36.2392 26.4975H35.8891L35.8836 19.2918C35.8836 18.8728 35.5445 18.5337 35.1255 18.5337H21.1635C20.9209 18.5337 20.6894 18.6522 20.546 18.8507L17.7426 22.7651L13.0785 22.754C12.6595 22.754 12.3204 23.0931 12.3204 23.5121V26.4947L11.7663 26.4892H11.7581C11.3391 26.4892 11 26.8282 11 27.2472V28.0742C11 28.4877 11.3363 28.8295 11.7498 28.8323H13.0068C13.0068 28.8323 13.0674 28.5318 13.1115 28.3829C13.1529 28.2368 13.2053 28.0935 13.2659 27.9529C13.3265 27.8123 13.3955 27.6772 13.4726 27.5477C13.5498 27.4154 13.6353 27.2913 13.7263 27.17C13.82 27.0488 13.9192 26.933 14.0267 26.8255C14.0984 26.7511 14.1756 26.6821 14.2528 26.616C14.9143 26.0509 15.7578 25.7394 16.6262 25.7394C17.4972 25.7394 18.3408 26.0509 19.0023 26.616C19.6556 27.1755 20.0939 27.9474 20.2373 28.7909L20.2455 28.8488H27.5918L27.6028 28.7909C27.7434 27.9474 28.1817 27.1755 28.8378 26.616C29.4994 26.0509 30.3429 25.7394 31.214 25.7394C32.085 25.7394 32.9285 26.0509 33.5901 26.616C34.2434 27.1755 34.6817 27.9474 34.8223 28.7909L34.8306 28.8488H36.2419C36.6609 28.8488 37 28.5097 37 28.0907V27.2582C36.9972 26.8365 36.6582 26.4975 36.2392 26.4975ZM23.3825 22.834H20.025C19.6887 22.834 19.493 22.4536 19.6887 22.1807L21.2407 20.003C21.3702 19.821 21.5797 19.7135 21.803 19.7135H23.388C23.7684 19.7135 24.0772 20.0223 24.0772 20.4027V22.1448C24.0717 22.5252 23.7629 22.834 23.3825 22.834ZM26.0261 20.4054C26.0261 20.24 26.0895 20.0829 26.208 19.9671C26.3238 19.8514 26.4809 19.7852 26.6463 19.7852H33.7031C33.8685 19.7852 34.0257 19.8486 34.1414 19.9671C34.2572 20.0857 34.3234 20.24 34.3234 20.4054V22.1476C34.3234 22.4894 34.045 22.7678 33.7031 22.7678H26.6463C26.3045 22.7678 26.0261 22.4894 26.0261 22.1476V20.4054Z" fill="white"/>
<path d="M22.7044 15.7551C22.1724 15.7551 21.7396 16.1879 21.7396 16.7199C21.7396 17.2519 22.1724 17.6847 22.7044 17.6847H34.3371C34.8692 17.6847 35.3019 17.2519 35.3019 16.7199C35.3019 16.1879 34.8692 15.7551 34.3371 15.7551H22.7044Z" fill="white"/>
</g>
<defs>
<linearGradient id="paint0_linear_12_23" x1="40" y1="0" x2="40" y2="48" gradientUnits="userSpaceOnUse">
<stop stop-color="white" stop-opacity="0.3"/>
<stop offset="1" stop-color="white" stop-opacity="0"/>
</linearGradient>
<clipPath id="clip0_12_23">
<rect width="26" height="26" fill="white" transform="translate(11 11)"/>
</clipPath>
</defs>
</svg>
