<svg width="54" height="54" viewBox="0 0 54 54" fill="none" xmlns="http://www.w3.org/2000/svg">
<rect width="54" height="54" rx="10" fill="white"/>
<path fill-rule="evenodd" clip-rule="evenodd" d="M36.6906 16.46H33.8006V12.55C33.8004 12.4712 33.782 12.3936 33.7468 12.3231C33.7116 12.2526 33.6605 12.1912 33.5976 12.1438C33.5347 12.0964 33.4616 12.0641 33.3842 12.0497C33.3067 12.0352 33.227 12.0389 33.1512 12.0604L17.5112 16.4804H17.484L17.433 16.5008L17.3922 16.5246L17.348 16.5518L17.3106 16.5824L17.2766 16.6164L17.246 16.6538L17.2188 16.6946L17.195 16.7354L17.1746 16.8V16.8952C17.1736 16.9134 17.1736 16.9315 17.1746 16.9496V40.4402C17.1768 40.568 17.227 40.6903 17.3152 40.7829C17.4033 40.8755 17.523 40.9315 17.6506 40.94H36.6906C36.8258 40.94 36.9555 40.8863 37.0512 40.7907C37.1468 40.695 37.2006 40.5653 37.2006 40.43V16.97C37.2006 16.8348 37.1468 16.7051 37.0512 16.6094C36.9555 16.5138 36.8258 16.46 36.6906 16.46ZM32.7806 16.46H21.3294L32.7806 13.2232V16.46ZM36.1806 39.92H18.1606V17.48H36.1806V39.92Z" fill="#005AA3"/>
<path fill-rule="evenodd" clip-rule="evenodd" d="M27.1703 21.22C26.1616 21.22 25.1756 21.5191 24.3369 22.0795C23.4982 22.6399 22.8445 23.4364 22.4585 24.3683C22.0725 25.3002 21.9715 26.3256 22.1683 27.3149C22.3651 28.3042 22.8508 29.213 23.5641 29.9262C24.2773 30.6395 25.1861 31.1252 26.1754 31.322C27.1647 31.5188 28.1901 31.4178 29.122 31.0318C30.0539 30.6457 30.8504 29.9921 31.4108 29.1534C31.9712 28.3147 32.2703 27.3287 32.2703 26.32C32.2703 24.9674 31.733 23.6702 30.7766 22.7137C29.8201 21.7573 28.5229 21.22 27.1703 21.22ZM27.1703 30.4C26.3634 30.4 25.5745 30.1607 24.9036 29.7124C24.2326 29.2641 23.7097 28.6268 23.4009 27.8813C23.0921 27.1358 23.0113 26.3154 23.1687 25.524C23.3261 24.7326 23.7147 24.0056 24.2853 23.435C24.8559 22.8644 25.5829 22.4758 26.3743 22.3184C27.1658 22.1609 27.9861 22.2417 28.7317 22.5505C29.4772 22.8593 30.1144 23.3823 30.5627 24.0532C31.011 24.7242 31.2503 25.513 31.2503 26.32C31.2503 27.4021 30.8205 28.4398 30.0553 29.205C29.2902 29.9701 28.2524 30.4 27.1703 30.4ZM30.4003 34.82H23.9403C23.8051 34.82 23.6753 34.8737 23.5797 34.9693C23.484 35.065 23.4303 35.1947 23.4303 35.33C23.4303 35.4652 23.484 35.595 23.5797 35.6906C23.6753 35.7862 23.8051 35.84 23.9403 35.84H30.4003C30.5356 35.84 30.6653 35.7862 30.7609 35.6906C30.8566 35.595 30.9103 35.4652 30.9103 35.33C30.9103 35.1947 30.8566 35.065 30.7609 34.9693C30.6653 34.8737 30.5356 34.82 30.4003 34.82Z" fill="#005AA3"/>
</svg>
