<svg width="26" height="26" viewBox="0 0 26 26" fill="none" xmlns="http://www.w3.org/2000/svg">
<rect width="26" height="26" rx="13" fill="white"/>
<path d="M8.00294 9.27083C7.9525 8.55618 8.55765 8 9.27261 8H10.803C11.17 8 11.501 8.22113 11.6422 8.5606L12.2821 10.0997C12.438 10.4747 12.3274 10.9077 12.0109 11.1615L11.612 11.4813C11.4339 11.624 11.3734 11.8701 11.479 12.0724C12.0214 13.1121 12.8232 13.9944 13.7982 14.6333C14.004 14.7682 14.2758 14.7146 14.4294 14.5223L14.8451 14.0015C15.0983 13.6844 15.5304 13.5735 15.9046 13.7297L17.4405 14.371C17.7793 14.5124 18 14.8441 18 15.2119V16.75C18 17.4664 17.4244 18.0478 16.7113 17.9971C12.151 17.6726 8.32623 13.8509 8.00294 9.27083Z" fill="#2C2C2C"/>
</svg>
