<svg width="64" height="48" viewBox="0 0 64 48" fill="none" xmlns="http://www.w3.org/2000/svg">
<circle cx="40" cy="24" r="24" fill="url(#paint0_linear_12_12)"/>
<rect width="48" height="48" rx="24" fill="#005AA3"/>
<g clip-path="url(#clip0_12_12)">
<path d="M29.4124 33.753C29.4124 34.2491 29.8143 34.6509 30.3104 34.6509H31.8796C32.3757 34.6509 32.7775 34.2491 32.7775 33.753V32.6328H29.4124V33.753Z" fill="white"/>
<path d="M15.2225 33.753C15.2225 34.2491 15.6243 34.6509 16.1204 34.6509H17.6896C18.1857 34.6509 18.5876 34.2491 18.5876 33.753V32.6328H15.2225V33.753Z" fill="white"/>
<path d="M14.4367 22.0413V16.6064C14.2257 16.4717 13.9765 16.3662 13.6802 16.3011C13.33 16.2248 13 16.4919 13 16.8489V20.2589C13 21.1344 13.6151 21.864 14.4367 22.0413Z" fill="white"/>
<path d="M34.3198 16.3011C34.0257 16.3662 33.7743 16.4717 33.5633 16.6064V22.0413C34.3849 21.864 35 21.1344 35 20.2611V16.8489C35 16.4919 34.67 16.2248 34.3198 16.3011Z" fill="white"/>
<path d="M32.7776 31.2858V22.0817V17.4707V14.247C32.7776 13.7509 32.3757 13.3491 31.8796 13.3491H16.1204C15.6243 13.3491 15.2225 13.7509 15.2225 14.247V17.4707V22.0817V31.2858V31.847H18.5876H29.4125H32.7776V31.2858ZM17.0812 29.8042V27.8736C19.7729 27.8736 20.4351 29.8042 20.4351 29.8042H17.0812ZM23.9394 24.3423C23.7284 24.1291 23.441 24.0101 23.1402 24.0101H17.079L17.1014 15.2325H30.8941V25.577V26.5176H26.09L23.9394 24.3423ZM27.5447 29.8042C27.5447 29.8042 28.2069 27.8736 30.8986 27.8736V29.8042H27.5447Z" fill="white"/>
</g>
<defs>
<linearGradient id="paint0_linear_12_12" x1="40" y1="0" x2="40" y2="48" gradientUnits="userSpaceOnUse">
<stop stop-color="white" stop-opacity="0.3"/>
<stop offset="1" stop-color="white" stop-opacity="0"/>
</linearGradient>
<clipPath id="clip0_12_12">
<rect width="22" height="22" fill="white" transform="translate(13 13)"/>
</clipPath>
</defs>
</svg>
