<svg width="54" height="54" viewBox="0 0 54 54" fill="none" xmlns="http://www.w3.org/2000/svg">
<rect width="54" height="54" rx="10" fill="white"/>
<path fill-rule="evenodd" clip-rule="evenodd" d="M14.1953 34.0387C14.1953 35.7496 15.5873 37.1419 17.2985 37.1419C19.0097 37.1419 20.4017 35.7496 20.4017 34.0387C20.4017 32.3278 19.0097 30.9355 17.2985 30.9355C15.5873 30.9355 14.1953 32.3275 14.1953 34.0387ZM19.3817 34.0387C19.3817 35.1872 18.447 36.1219 17.2985 36.1219C16.15 36.1219 15.2153 35.1872 15.2153 34.0387C15.2153 32.8902 16.15 31.9555 17.2985 31.9555C18.447 31.9555 19.3817 32.8902 19.3817 34.0387ZM38.675 22.4501C38.625 22.4055 38.5668 22.3712 38.5035 22.3491C38.4403 22.327 38.3733 22.3176 38.3065 22.3214C38.2396 22.3252 38.1741 22.3421 38.1138 22.3712C38.0535 22.4003 37.9995 22.441 37.9549 22.4909L30.5473 30.7879L26.7338 26.9745C26.6868 26.9258 26.6305 26.8869 26.5683 26.8602C26.5061 26.8335 26.4391 26.8194 26.3714 26.8188C26.3037 26.8182 26.2366 26.8311 26.1739 26.8568C26.1112 26.8824 26.0543 26.9203 26.0064 26.9682C25.9585 27.0161 25.9206 27.073 25.895 27.1357C25.8693 27.1984 25.8564 27.2655 25.857 27.3332C25.8576 27.401 25.8717 27.4679 25.8984 27.5301C25.9251 27.5923 25.964 27.6486 26.0127 27.6956L30.208 31.8906C30.3038 31.9864 30.4334 32.0398 30.5687 32.0398L30.583 32.0395C30.6524 32.0375 30.7206 32.0214 30.7836 31.9922C30.8465 31.963 30.9029 31.9212 30.9492 31.8695L38.7161 23.1699C38.8061 23.069 38.8522 22.9365 38.8445 22.8015C38.8368 22.6665 38.7758 22.5401 38.675 22.4501Z" fill="#005AA3"/>
<path fill-rule="evenodd" clip-rule="evenodd" d="M30.7431 33.3151C30.6078 33.3151 30.4781 33.3689 30.3824 33.4645C30.2868 33.5602 30.2331 33.6899 30.2331 33.8251V38.9003H12.1743V15.1003H30.2331V25.7855C30.2331 25.9208 30.2868 26.0505 30.3824 26.1461C30.4781 26.2418 30.6078 26.2955 30.7431 26.2955C30.8783 26.2955 31.008 26.2418 31.1037 26.1461C31.1993 26.0505 31.2531 25.9208 31.2531 25.7855V14.5903C31.2531 14.4551 31.1993 14.3253 31.1037 14.2297C31.008 14.1341 30.8783 14.0803 30.7431 14.0803H11.6643C11.529 14.0803 11.3993 14.1341 11.3037 14.2297C11.208 14.3253 11.1543 14.4551 11.1543 14.5903V39.4103C11.1543 39.5456 11.208 39.6753 11.3037 39.7709C11.3993 39.8666 11.529 39.9203 11.6643 39.9203H30.7431C30.8783 39.9203 31.008 39.8666 31.1037 39.7709C31.1993 39.6753 31.2531 39.5456 31.2531 39.4103V33.8251C31.2531 33.6899 31.1993 33.5602 31.1037 33.4645C31.008 33.3689 30.8783 33.3151 30.7431 33.3151Z" fill="#005AA3"/>
<path fill-rule="evenodd" clip-rule="evenodd" d="M24.7816 20.9569C24.9169 20.9569 25.0466 20.9032 25.1423 20.8075C25.2379 20.7119 25.2916 20.5822 25.2916 20.4469C25.2916 20.3116 25.2379 20.1819 25.1423 20.0863C25.0466 19.9906 24.9169 19.9369 24.7816 19.9369H14.5354C14.4001 19.9369 14.2704 19.9906 14.1748 20.0863C14.0791 20.1819 14.0254 20.3116 14.0254 20.4469C14.0254 20.5822 14.0791 20.7119 14.1748 20.8075C14.2704 20.9032 14.4001 20.9569 14.5354 20.9569H24.7816ZM25.4171 24.9838C25.4171 24.8486 25.3634 24.7189 25.2677 24.6232C25.1721 24.5276 25.0423 24.4738 24.9071 24.4738H14.6636C14.5283 24.4738 14.3986 24.5276 14.3029 24.6232C14.2073 24.7189 14.1536 24.8486 14.1536 24.9838C14.1536 25.1191 14.2073 25.2488 14.3029 25.3445C14.3986 25.4401 14.5283 25.4938 14.6636 25.4938H24.9071C25.0423 25.4938 25.1721 25.4401 25.2677 25.3445C25.3634 25.2488 25.4171 25.1191 25.4171 24.9838Z" fill="#005AA3"/>
</svg>
