<svg width="42" height="42" viewBox="0 0 42 42" fill="none" xmlns="http://www.w3.org/2000/svg">
<g clip-path="url(#clip0_8_2349)">
<path d="M21 42C32.598 42 42 32.598 42 21C42 9.40202 32.598 0 21 0C9.40202 0 0 9.40202 0 21C0 32.598 9.40202 42 21 42Z" fill="#F0F4FB"/>
<path fill-rule="evenodd" clip-rule="evenodd" d="M9.63266 20.6385C15.7393 17.9778 19.811 16.2236 21.8478 15.3758C27.6653 12.9574 28.8804 12.5374 29.6618 12.5217C29.9515 12.5161 30.2358 12.6015 30.4744 12.7659C30.6419 12.9103 30.7487 13.1127 30.7733 13.3324C30.8154 13.6058 30.8272 13.8829 30.8085 14.1588C30.494 17.4797 29.1285 25.5066 28.435 29.2163C28.142 30.779 27.5637 31.3124 27.0031 31.3651C25.788 31.4764 24.8542 30.5603 23.6821 29.7886C21.8381 28.5794 20.7968 27.8351 19.0075 26.6474C16.9387 25.28 18.2808 24.5357 19.4587 23.3128C19.7674 22.9924 25.1238 18.1165 25.2293 17.675C25.2432 17.6099 25.2416 17.5423 25.2247 17.4778C25.2077 17.4134 25.1758 17.3538 25.1316 17.3039C25.0675 17.2638 24.9949 17.2392 24.9197 17.2321C24.8444 17.225 24.7685 17.2355 24.698 17.2629C24.5143 17.3032 21.5698 19.2496 15.8643 23.1018C15.0282 23.6762 14.2709 23.9562 13.5924 23.9418C12.8442 23.9243 11.4064 23.5179 10.3359 23.1604C9.02512 22.7346 7.99174 22.5099 8.07378 21.793C8.12197 21.4179 8.64159 21.0331 9.63266 20.6385Z" fill="#005AA3"/>
</g>
<defs>
<clipPath id="clip0_8_2349">
<rect width="42" height="42" fill="white"/>
</clipPath>
</defs>
</svg>
