<svg width="52" height="52" viewBox="0 0 52 52" fill="none" xmlns="http://www.w3.org/2000/svg">
<g clip-path="url(#clip0_8_2247)">
<path d="M26 52C40.3594 52 52 40.3594 52 26C52 11.6406 40.3594 0 26 0C11.6406 0 0 11.6406 0 26C0 40.3594 11.6406 52 26 52Z" fill="white"/>
<path fill-rule="evenodd" clip-rule="evenodd" d="M11.9262 25.5526C19.4867 22.2584 24.5279 20.0865 27.0497 19.0368C34.2523 16.0426 35.7567 15.5226 36.7241 15.5033C37.0829 15.4963 37.4348 15.602 37.7303 15.8056C37.9376 15.9844 38.0698 16.2349 38.1003 16.507C38.1524 16.8454 38.167 17.1885 38.1439 17.53C37.7545 21.6417 36.0639 31.5797 35.2052 36.1726C34.8425 38.1075 34.1265 38.7678 33.4324 38.8331C31.928 38.971 30.7719 37.8367 29.3208 36.8813C27.0376 35.3842 25.7485 34.4627 23.5331 32.9922C20.9718 31.2992 22.6333 30.3777 24.0918 28.8636C24.4739 28.467 31.1057 22.4301 31.2363 21.8835C31.2535 21.8028 31.2516 21.7192 31.2306 21.6394C31.2095 21.5596 31.1701 21.4858 31.1154 21.424C31.036 21.3744 30.9461 21.344 30.8529 21.3351C30.7597 21.3263 30.6657 21.3394 30.5785 21.3732C30.3511 21.4232 26.7055 23.8329 19.6415 28.6024C18.6064 29.3135 17.6688 29.6602 16.8287 29.6424C15.9024 29.6206 14.1223 29.1176 12.7969 28.675C11.174 28.1477 9.89455 27.8696 9.99614 26.982C10.0558 26.5176 10.6991 26.0411 11.9262 25.5526Z" fill="#005AA3"/>
</g>
<defs>
<clipPath id="clip0_8_2247">
<rect width="52" height="52" fill="white"/>
</clipPath>
</defs>
</svg>
