<svg width="54" height="54" viewBox="0 0 54 54" fill="none" xmlns="http://www.w3.org/2000/svg">
<rect width="54" height="54" rx="10" fill="white"/>
<path fill-rule="evenodd" clip-rule="evenodd" d="M41.3345 34.8455L38.608 23.1468C38.5927 23.0813 38.5646 23.0195 38.5253 22.9649C38.4859 22.9103 38.4362 22.864 38.379 22.8287C38.3217 22.7934 38.2581 22.7697 38.1917 22.7591C38.1252 22.7484 38.0574 22.751 37.992 22.7667C36.7721 23.0512 35.5449 23.3038 34.3118 23.5242L38.2833 19.7175C38.3523 19.6515 38.4013 19.5674 38.4248 19.4749C38.4483 19.3824 38.4453 19.2851 38.4163 19.1942C38.3872 19.1032 38.3332 19.0223 38.2604 18.9605C38.1877 18.8987 38.099 18.8586 38.0045 18.8448L30.6636 17.7656L27.3918 11.1067C27.3058 10.9323 27.1184 10.8252 26.9338 10.8218C26.8388 10.8218 26.7457 10.8483 26.6649 10.8984C26.5842 10.9485 26.519 11.0202 26.4768 11.1053L23.1819 17.753L15.8376 18.8077C15.7417 18.8214 15.6518 18.8621 15.5782 18.9251C15.5047 18.9881 15.4506 19.0706 15.4222 19.1632C15.3939 19.2558 15.3925 19.3545 15.4181 19.4479C15.4438 19.5412 15.4955 19.6253 15.5673 19.6903L18.649 22.4858C15.6995 23.1879 13.3005 25.5519 13.1788 25.6737C13.1206 25.7319 13.0773 25.8033 13.0527 25.8819C13.0281 25.9605 13.0228 26.0438 13.0373 26.1248L13.6401 29.4783C13.6262 29.5421 13.6249 29.608 13.6365 29.6723C13.648 29.7366 13.6721 29.798 13.7075 29.8529L15.1402 37.8229C15.157 37.9166 15.1997 38.0037 15.2634 38.0744C15.3271 38.1451 15.4094 38.1965 15.5008 38.2229C15.5923 38.2493 15.6893 38.2496 15.7809 38.2237C15.8725 38.1978 15.955 38.1469 16.0191 38.0765C16.049 38.0435 19.0557 34.7993 22.3625 35.0182C23.9231 35.1243 25.2379 35.502 26.6302 35.9019C28.0038 36.2963 29.4246 36.7039 31.074 36.8161C34.3366 37.0412 40.6878 35.5228 40.9564 35.4578C41.0875 35.4263 41.2008 35.3443 41.2717 35.2296C41.3425 35.1149 41.3651 34.9768 41.3345 34.8455ZM14.7234 29.7363C15.9134 28.7252 19.0155 26.8365 21.2551 27.1034C22.7181 27.2778 23.8762 27.6338 24.9961 27.9778C26.2844 28.3736 27.6165 28.783 29.3689 28.9023C32.0304 29.0852 36.7686 28.1047 38.6193 27.6899L39.3581 30.8597C37.3694 31.2762 33.5271 31.9946 31.3361 31.8481C29.7871 31.7423 28.3258 31.3656 26.7788 30.9661C25.2467 30.571 23.6623 30.1623 22.0011 30.0491C19.3205 29.8665 16.7273 31.7542 15.3123 33.0143L14.7234 29.7363ZM17.0561 19.6631L23.5926 18.7244C23.7585 18.7006 23.9024 18.5966 23.9768 18.4459L26.9318 12.4837L29.8663 18.4555C29.9404 18.6061 30.0839 18.7105 30.2502 18.7349L36.8251 19.7016L32.5367 23.8125C31.0356 24.0301 29.5192 24.1743 28.4172 24.0991C26.8893 23.9951 25.8145 23.6241 24.6769 23.2308C23.5199 22.8309 22.3231 22.4175 20.6411 22.3029C20.414 22.2878 20.1863 22.2857 19.959 22.2964L17.0561 19.6631ZM19.6874 23.3436C19.8166 23.329 19.8927 23.3093 20.0406 23.313C20.2171 23.3062 20.3942 23.3083 20.5717 23.3205C22.1184 23.4259 23.1996 23.7992 24.344 24.1947C25.4946 24.5921 26.6846 25.0032 28.3482 25.1164C29.5198 25.1963 31.0889 25.0518 32.6319 24.8311C32.7271 24.8189 32.8525 24.7971 32.9532 24.7839C34.9493 24.4843 36.8513 24.0736 37.7305 23.874L38.3881 26.6957C36.8023 27.049 31.9927 28.0554 29.4382 27.8847C27.8035 27.7735 26.5856 27.3988 25.296 27.0024C24.1329 26.645 22.9303 26.2751 21.3758 26.0902C18.9509 25.7984 16.012 27.4811 14.519 28.5997L14.0903 26.2156C14.7649 25.6016 17.1333 23.6068 19.6874 23.3436ZM31.1437 35.7982C29.6025 35.6928 28.2955 35.3178 26.912 34.9206C25.5299 34.5239 24.1009 34.1135 22.4322 34.0003C19.6391 33.8102 17.1489 35.653 15.9753 36.6999L15.5268 34.2056C16.4696 33.2982 19.2444 30.8923 21.9321 31.0667C23.4991 31.1735 25.0369 31.5703 26.5241 31.9541C28.048 32.3472 29.6239 32.7542 31.2671 32.8657C33.5308 33.0214 37.2715 32.3421 39.59 31.8538L40.2251 34.5793C38.658 34.9322 33.7515 35.9757 31.1437 35.7982Z" fill="#005AA3"/>
</svg>
