<svg width="42" height="42" viewBox="0 0 42 42" fill="none" xmlns="http://www.w3.org/2000/svg">
<g clip-path="url(#clip0_8_2345)">
<path d="M21 42C32.598 42 42 32.598 42 21C42 9.40202 32.598 0 21 0C9.40202 0 0 9.40202 0 21C0 32.598 9.40202 42 21 42Z" fill="#F0F4FB"/>
<path d="M21.7696 28.744C13.6275 28.744 8.986 23.1609 8.79065 13.8701H12.8676C13.0024 20.6878 16.0088 23.577 18.3901 24.1728V13.8701H22.2326V19.7501C24.5768 19.4981 27.0558 16.8199 27.888 13.8701H31.7305C31.0897 17.5017 28.4095 20.1818 26.5049 21.2836C27.9946 22.0234 29.3102 23.0709 30.3649 24.357C31.4197 25.643 32.1894 27.1383 32.6232 28.744H28.3959C27.4875 25.9153 25.2234 23.7274 22.2326 23.4305V28.744H21.7696Z" fill="#005AA3"/>
</g>
<defs>
<clipPath id="clip0_8_2345">
<rect width="42" height="42" fill="white"/>
</clipPath>
</defs>
</svg>
