<svg width="64" height="48" viewBox="0 0 64 48" fill="none" xmlns="http://www.w3.org/2000/svg">
<circle cx="40" cy="24" r="24" fill="url(#paint0_linear_6_34)"/>
<rect width="48" height="48" rx="24" fill="#005AA3"/>
<g clip-path="url(#clip0_6_34)">
<path d="M15.8158 24.6265V32.2067C15.8158 32.7605 16.2644 33.2091 16.8182 33.2091H26.0849C26.0749 33.199 26.0674 33.1915 26.0573 33.1815C25.5687 32.6828 25.1702 32.1165 24.9046 31.5427C24.1954 30.0141 24.4385 28.1472 25.8092 27.0547C26.4858 26.5159 27.3328 26.2177 28.1923 26.2177C28.5306 26.2177 28.8639 26.2653 29.1821 26.358C29.6482 26.4933 30.0793 26.7264 30.4626 27.0421C30.846 26.7239 31.277 26.4909 31.7432 26.358C31.8885 26.3154 32.0388 26.2828 32.1892 26.2603V24.624L24 18.2716L15.8158 24.6265Z" fill="white"/>
<path d="M13.4353 24.1052C13.6558 24.3884 13.9865 24.5388 14.3198 24.5388C14.5604 24.5388 14.801 24.4611 15.0039 24.3032L24 17.3194L32.9961 24.3032C33.199 24.4611 33.4421 24.5388 33.6801 24.5388C34.0134 24.5388 34.3442 24.3909 34.5647 24.1052L35.765 22.5591C36.1434 22.0705 36.0557 21.3688 35.5671 20.9904L24.6866 12.5457C24.4861 12.3903 24.2431 12.3101 24 12.3101C23.7569 12.3101 23.5163 12.3878 23.3134 12.5457L12.4329 20.9929C11.9443 21.3713 11.8566 22.073 12.2349 22.5616L13.4353 24.1052Z" fill="white"/>
<path d="M34.3267 32.6553C35.1336 31.8308 35.7625 30.7132 35.6698 29.5254C35.6673 29.4803 35.6623 29.4377 35.6573 29.3926C35.4744 27.9568 34.1162 26.9695 32.7304 26.9695C32.5475 26.9695 32.3671 26.987 32.1867 27.0221C32.1065 27.0371 32.0288 27.0572 31.9511 27.0797C31.3497 27.2551 30.8411 27.631 30.4626 28.1172C30.0818 27.631 29.5756 27.2526 28.9742 27.0797C28.7186 27.0046 28.4555 26.9695 28.1924 26.9695C26.982 26.9695 25.7817 27.7413 25.3833 28.9015C24.9172 30.2547 25.6589 31.6981 26.5961 32.6528C26.7891 32.8482 26.9895 33.0312 27.2 33.2066C27.9894 33.8631 28.8765 34.3994 29.6833 35.0309C29.944 35.2338 30.2422 35.4443 30.4627 35.6899C30.6832 35.4443 30.9814 35.2338 31.242 35.0309C32.2619 34.234 33.4121 33.5899 34.3267 32.6553Z" fill="white"/>
</g>
<defs>
<linearGradient id="paint0_linear_6_34" x1="40" y1="0" x2="40" y2="48" gradientUnits="userSpaceOnUse">
<stop stop-color="white" stop-opacity="0.3"/>
<stop offset="1" stop-color="white" stop-opacity="0"/>
</linearGradient>
<clipPath id="clip0_6_34">
<rect width="24" height="24" fill="white" transform="translate(12 12)"/>
</clipPath>
</defs>
</svg>
