<svg width="64" height="48" viewBox="0 0 64 48" fill="none" xmlns="http://www.w3.org/2000/svg">
<circle cx="40" cy="24" r="24" fill="url(#paint0_linear_5_19)"/>
<rect width="48" height="48" rx="24" fill="#005AA3"/>
<g clip-path="url(#clip0_5_19)">
<path d="M16.7717 22.8314C15.8594 23.7239 15.2941 24.9709 15.2941 26.3493C15.2941 27.7252 15.8594 28.9722 16.7717 29.8647C16.9725 30.0631 17.2973 30.0631 17.4981 29.8647C18.4105 28.9722 18.9757 27.7252 18.9757 26.3493C18.9757 24.9709 18.408 23.7263 17.4981 22.8338C17.2973 22.6331 16.9725 22.6331 16.7717 22.8314Z" fill="white"/>
<path d="M21.6631 29.0342C20.2872 29.0342 19.0401 29.5995 18.1476 30.5118C17.9493 30.7126 17.9493 31.0374 18.1476 31.2382C19.0426 32.1505 20.2872 32.7158 21.6631 32.7158C23.0415 32.7158 24.286 32.1505 25.181 31.2382C25.3793 31.0349 25.3793 30.7126 25.181 30.5118C24.2836 29.5995 23.039 29.0342 21.6631 29.0342Z" fill="white"/>
<path d="M20.3293 19.2738C19.417 20.1663 18.8517 21.4133 18.8517 22.7917C18.8517 24.1676 19.417 25.4147 20.3293 26.3072C20.5301 26.5055 20.8549 26.5055 21.0557 26.3072C21.968 25.4147 22.5333 24.1676 22.5333 22.7917C22.5333 21.4133 21.9656 20.1688 21.0557 19.2763C20.8549 19.0755 20.5301 19.0755 20.3293 19.2738Z" fill="white"/>
<path d="M28.7361 26.9542C27.8411 26.0419 26.5966 25.4766 25.2207 25.4766C23.8447 25.4766 22.5977 26.0419 21.7052 26.9542C21.5069 27.155 21.5069 27.4798 21.7052 27.6806C22.6002 28.5929 23.8447 29.1582 25.2207 29.1582C26.5991 29.1582 27.8436 28.5929 28.7386 27.6806C28.9344 27.4798 28.9344 27.1575 28.7361 26.9542Z" fill="white"/>
<path d="M24.6133 15.7187C24.4124 15.5204 24.0877 15.5204 23.8869 15.7187C22.9745 16.6112 22.4093 17.8582 22.4093 19.2366C22.4093 20.6126 22.9745 21.8596 23.8869 22.7521C24.0877 22.9504 24.4124 22.9504 24.6133 22.7521C25.5256 21.8596 26.0909 20.6126 26.0909 19.2366C26.0909 17.8557 25.5256 16.6112 24.6133 15.7187Z" fill="white"/>
<path d="M28.7757 21.9191C27.3998 21.9191 26.1528 22.4843 25.2603 23.3967C25.062 23.5975 25.062 23.9222 25.2603 24.1231C26.1553 25.0354 27.3998 25.6006 28.7757 25.6006C30.1542 25.6006 31.3987 25.0354 32.2936 24.1231C32.492 23.9198 32.492 23.5975 32.2936 23.3967C31.3987 22.4868 30.1542 21.9191 28.7757 21.9191Z" fill="white"/>
<path d="M28.1709 12.1611C27.97 11.9628 27.6453 11.9628 27.4445 12.1611C26.5321 13.0536 25.9669 14.3007 25.9669 15.6791C25.9669 17.055 26.5321 18.302 27.4445 19.1945C27.6453 19.3928 27.97 19.3928 28.1709 19.1945C29.0832 18.302 29.6484 17.055 29.6484 15.6791C29.6484 14.3007 29.0807 13.0536 28.1709 12.1611Z" fill="white"/>
<path d="M32.3333 18.3615C30.9574 18.3615 29.7104 18.9268 28.8179 19.8391C28.6196 20.0399 28.6196 20.3647 28.8179 20.5655C29.7129 21.4778 30.9574 22.0431 32.3333 22.0431C33.7117 22.0431 34.9563 21.4778 35.8512 20.5655C36.0496 20.3622 36.0496 20.0399 35.8512 19.8391C34.9563 18.9292 33.7117 18.364 32.3333 18.3615Z" fill="white"/>
<path d="M31.8722 13.5321C30.8979 14.5064 30.4194 15.7857 30.4318 17.0649C30.4343 17.3475 30.6624 17.5756 30.945 17.5781C32.2218 17.5905 33.5035 17.112 34.4778 16.1377C35.4521 15.1634 35.9306 13.8817 35.9182 12.6049C35.9157 12.3223 35.6876 12.0942 35.405 12.0917C34.1282 12.0793 32.8465 12.5578 31.8722 13.5321Z" fill="white"/>
<path d="M12.5324 35.7701C12.8224 36.0601 13.2935 36.0601 13.5835 35.7701L16.9973 32.3563C17.2874 32.0662 17.2874 31.5952 16.9973 31.3051L16.6825 30.9903C16.3924 30.7002 15.9214 30.7002 15.6313 30.9903L12.2175 34.4016C11.9275 34.6916 11.9275 35.1627 12.2175 35.4527L12.5324 35.7701Z" fill="white"/>
</g>
<defs>
<linearGradient id="paint0_linear_5_19" x1="40" y1="0" x2="40" y2="48" gradientUnits="userSpaceOnUse">
<stop stop-color="white" stop-opacity="0.3"/>
<stop offset="1" stop-color="white" stop-opacity="0"/>
</linearGradient>
<clipPath id="clip0_5_19">
<rect width="24" height="24" fill="white" transform="translate(12 12)"/>
</clipPath>
</defs>
</svg>
