<svg width="64" height="48" viewBox="0 0 64 48" fill="none" xmlns="http://www.w3.org/2000/svg">
<circle cx="40" cy="24" r="24" fill="url(#paint0_linear_6_46)"/>
<rect width="48" height="48" rx="24" fill="#005AA3"/>
<g clip-path="url(#clip0_6_46)">
<path d="M22.438 35.0964C22.438 35.5947 22.8434 36 23.3416 36H24.8649C25.3632 36 25.7685 35.5947 25.7685 35.0964V31.043H22.438V35.0964Z" fill="white"/>
<path d="M25.7685 12.9036C25.7685 12.4053 25.3632 12 24.8649 12H23.3416C22.8434 12 22.438 12.4053 22.438 12.9036V13.6962H25.7685V12.9036Z" fill="white"/>
<path d="M25.7685 21.4415H22.438V23.2978H25.7685V21.4415Z" fill="white"/>
<path d="M32.1196 14.8244C31.9492 14.6024 31.6833 14.4707 31.4019 14.4707H25.7685H22.438H17.0034C16.5052 14.4707 16.0998 14.8761 16.0998 15.3744V19.7633C16.0998 20.2616 16.5052 20.667 17.0034 20.667H22.438H25.7685H31.4019C31.6833 20.667 31.9492 20.5353 32.1196 20.3133L33.8029 18.1188C34.0508 17.7935 34.0508 17.3442 33.8029 17.0189L32.1196 14.8244Z" fill="white"/>
<path d="M25.7685 30.2685H30.9966C31.4948 30.2685 31.9002 29.8632 31.9002 29.3649V24.9759C31.9002 24.4776 31.4948 24.0723 30.9966 24.0723H25.7685H22.438H16.5981C16.3167 24.0723 16.0508 24.204 15.8804 24.426L14.1971 26.6205C13.9492 26.9458 13.9492 27.395 14.1971 27.7203L15.8804 29.9148C16.0508 30.1369 16.3167 30.2685 16.5981 30.2685H22.438H25.7685Z" fill="white"/>
</g>
<defs>
<linearGradient id="paint0_linear_6_46" x1="40" y1="0" x2="40" y2="48" gradientUnits="userSpaceOnUse">
<stop stop-color="white" stop-opacity="0.3"/>
<stop offset="1" stop-color="white" stop-opacity="0"/>
</linearGradient>
<clipPath id="clip0_6_46">
<rect width="24" height="24" fill="white" transform="translate(12 12)"/>
</clipPath>
</defs>
</svg>
