<svg width="52" height="52" viewBox="0 0 52 52" fill="none" xmlns="http://www.w3.org/2000/svg">
<g clip-path="url(#clip0_8_2241)">
<path d="M26 52C40.3594 52 52 40.3594 52 26C52 11.6406 40.3594 0 26 0C11.6406 0 0 11.6406 0 26C0 40.3594 11.6406 52 26 52Z" fill="white"/>
<path d="M13.2805 38.94L15.1066 32.2743C13.6939 29.8213 13.1299 26.9707 13.502 24.1645C13.8741 21.3584 15.1615 18.7533 17.1647 16.7533C19.1679 14.7532 21.775 13.4699 24.5818 13.1022C27.3885 12.7345 30.2382 13.303 32.689 14.7195C35.1398 16.1361 37.0548 18.3216 38.1372 20.9372C39.2196 23.5528 39.4089 26.4525 38.6757 29.1866C37.9426 31.9208 36.3279 34.3367 34.0821 36.0598C31.8362 37.783 29.0847 38.7171 26.2539 38.7175C24.1067 38.7162 21.9939 38.1774 20.1082 37.1502L13.2805 38.94ZM20.4154 34.8283L20.8072 35.0702C22.4548 36.0459 24.3342 36.5613 26.2491 36.5625C28.6203 36.563 30.9245 35.7754 32.7993 34.3236C34.6742 32.8718 36.0134 30.8381 36.6064 28.5422C37.1994 26.2463 37.0126 23.8184 36.0754 21.6402C35.1382 19.4621 33.5037 17.6571 31.4288 16.5092C29.354 15.3612 26.9565 14.9354 24.6132 15.2985C22.2699 15.6617 20.1138 16.7933 18.4838 18.5154C16.8537 20.2376 15.8422 22.4526 15.6083 24.8123C15.3744 27.1719 15.9313 29.5425 17.1914 31.5511L17.4333 31.955L16.3521 35.8998L20.4154 34.8283Z" fill="#005AA3"/>
<path fill-rule="evenodd" clip-rule="evenodd" d="M32.7334 28.9122C32.6536 28.7768 32.4383 28.697 32.1166 28.5373C31.795 28.3777 30.2156 27.5989 29.9205 27.4901C29.6255 27.3813 29.4126 27.3305 29.195 27.6521C28.9773 27.9738 28.3654 28.697 28.1791 28.9122C27.9929 29.1275 27.8018 29.1541 27.4826 28.992C26.5399 28.6135 25.67 28.0742 24.9116 27.3982C24.2089 26.7482 23.6066 25.9975 23.1243 25.1706C22.9356 24.849 23.1025 24.6869 23.2645 24.5152C23.4266 24.3435 23.5862 24.1379 23.7483 23.9517C23.8812 23.7894 23.9896 23.6085 24.0699 23.4147C24.1123 23.3259 24.132 23.2279 24.1273 23.1296C24.1227 23.0313 24.0938 22.9357 24.0433 22.8512C23.9635 22.6916 23.3177 21.1098 23.0517 20.4665C22.7857 19.8231 22.5269 19.9247 22.3261 19.9126C22.1254 19.9005 21.9246 19.9126 21.7118 19.9126C21.5465 19.9153 21.3836 19.9527 21.2336 20.0223C21.0837 20.0918 20.9499 20.1921 20.8411 20.3165C20.4804 20.6585 20.1943 21.0714 20.0008 21.5292C19.8072 21.9871 19.7104 22.48 19.7165 22.977C19.7165 24.5587 20.8677 26.0873 21.0298 26.3026C21.1918 26.5178 23.296 29.7636 26.52 31.1543C27.1186 31.4126 27.7305 31.6386 28.3533 31.8315C29.009 32.0306 29.702 32.0745 30.3776 31.9597C30.9944 31.8678 32.2787 31.1809 32.5544 30.4311C32.8301 29.6813 32.8132 29.0453 32.7334 28.9122Z" fill="#005AA3"/>
</g>
<defs>
<clipPath id="clip0_8_2241">
<rect width="52" height="52" fill="white"/>
</clipPath>
</defs>
</svg>
