<svg width="42" height="42" viewBox="0 0 42 42" fill="none" xmlns="http://www.w3.org/2000/svg">
<g clip-path="url(#clip0_8_2339)">
<path d="M21 42C32.598 42 42 32.598 42 21C42 9.40202 32.598 0 21 0C9.40202 0 0 9.40202 0 21C0 32.598 9.40202 42 21 42Z" fill="#F0F4FB"/>
<path d="M10.7266 31.4512L12.2015 26.0674C11.0604 24.0861 10.6049 21.7837 10.9054 19.5172C11.206 17.2507 12.2458 15.1466 13.8638 13.5311C15.4818 11.9157 17.5875 10.8792 19.8545 10.5822C22.1215 10.2852 24.4231 10.7444 26.4026 11.8885C28.3821 13.0326 29.9289 14.7979 30.8031 16.9105C31.6774 19.0231 31.8303 21.3651 31.2381 23.5735C30.6459 25.7818 29.3418 27.7331 27.5278 29.1249C25.7139 30.5167 23.4914 31.2712 21.2051 31.2715C19.4707 31.2705 17.7643 30.8353 16.2413 30.0056L10.7266 31.4512ZM16.4894 28.1302L16.8058 28.3256C18.1366 29.1137 19.6546 29.5299 21.2012 29.5309C23.1164 29.5313 24.9775 28.8952 26.4918 27.7225C28.0061 26.5499 29.0877 24.9073 29.5667 23.0529C30.0457 21.1986 29.8948 19.2376 29.1378 17.4783C28.3808 15.719 27.0607 14.2612 25.3848 13.334C23.709 12.4068 21.7725 12.0628 19.8799 12.3562C17.9873 12.6495 16.2458 13.5635 14.9292 14.9544C13.6126 16.3454 12.7957 18.1345 12.6067 20.0403C12.4177 21.9462 12.8675 23.8609 13.8854 25.4833L14.0807 25.8095L13.2075 28.9956L16.4894 28.1302Z" fill="#005AA3"/>
<path fill-rule="evenodd" clip-rule="evenodd" d="M26.4384 23.3524C26.374 23.243 26.2001 23.1785 25.9403 23.0496C25.6805 22.9207 24.4049 22.2916 24.1665 22.2037C23.9282 22.1158 23.7563 22.0748 23.5805 22.3346C23.4047 22.5944 22.9104 23.1785 22.76 23.3524C22.6096 23.5262 22.4553 23.5477 22.1974 23.4168C21.436 23.1111 20.7334 22.6755 20.1209 22.1295C19.5533 21.6045 19.0668 20.9982 18.6772 20.3303C18.5249 20.0705 18.6597 19.9396 18.7905 19.8009C18.9214 19.6622 19.0504 19.4962 19.1812 19.3458C19.2886 19.2147 19.3762 19.0686 19.4411 18.9121C19.4752 18.8403 19.4912 18.7612 19.4874 18.6818C19.4837 18.6024 19.4604 18.5252 19.4196 18.4569C19.3551 18.328 18.8335 17.0504 18.6186 16.5308C18.4037 16.0112 18.1947 16.0932 18.0326 16.0834C17.8704 16.0737 17.7083 16.0834 17.5364 16.0834C17.4029 16.0856 17.2713 16.1158 17.1502 16.172C17.0291 16.2282 16.921 16.3092 16.8331 16.4097C16.5418 16.6859 16.3107 17.0194 16.1544 17.3892C15.9981 17.759 15.9199 18.1571 15.9248 18.5585C15.9248 19.8361 16.8546 21.0707 16.9855 21.2446C17.1164 21.4184 18.8159 24.04 21.4199 25.1633C21.9034 25.3719 22.3977 25.5545 22.9007 25.7102C23.4303 25.8711 23.9901 25.9065 24.5357 25.8138C25.0339 25.7395 26.0712 25.1847 26.2939 24.5792C26.5166 23.9736 26.5029 23.4598 26.4384 23.3524Z" fill="#005AA3"/>
</g>
<defs>
<clipPath id="clip0_8_2339">
<rect width="42" height="42" fill="white"/>
</clipPath>
</defs>
</svg>
