<svg width="42" height="42" viewBox="0 0 42 42" fill="none" xmlns="http://www.w3.org/2000/svg">
<g clip-path="url(#clip0_8_2335)">
<path d="M21 42C32.598 42 42 32.598 42 21C42 9.40202 32.598 0 21 0C9.40202 0 0 9.40202 0 21C0 32.598 9.40202 42 21 42Z" fill="#F0F4FB"/>
<path d="M31.3593 15.6635C31.2355 15.2022 30.9925 14.7816 30.6548 14.4439C30.3171 14.1061 29.8964 13.8632 29.4351 13.7393C27.7395 13.2842 20.9316 13.2842 20.9316 13.2842C20.9316 13.2842 14.1237 13.2842 12.4261 13.7393C11.9653 13.8642 11.5453 14.1076 11.2077 14.4451C10.8701 14.7827 10.6268 15.2028 10.5019 15.6635C10.0467 17.3611 10.0468 20.9028 10.0468 20.9028C10.0468 20.9028 10.0467 24.4445 10.5019 26.142C10.6268 26.6028 10.8701 27.0229 11.2077 27.3604C11.5453 27.698 11.9653 27.9413 12.4261 28.0662C14.1237 28.5214 20.9316 28.5214 20.9316 28.5214C20.9316 28.5214 27.7375 28.5214 29.4351 28.0662C29.8964 27.9424 30.3171 27.6995 30.6548 27.3617C30.9925 27.024 31.2355 26.6033 31.3593 26.142C31.8145 24.4445 31.8145 20.9028 31.8145 20.9028C31.8145 20.9028 31.8145 17.3611 31.3593 15.6635ZM18.7534 24.1671V17.6385L24.4186 20.9028L18.7534 24.1671Z" fill="#005AA3"/>
</g>
<defs>
<clipPath id="clip0_8_2335">
<rect width="42" height="42" fill="white"/>
</clipPath>
</defs>
</svg>
