<svg width="54" height="54" viewBox="0 0 54 54" fill="none" xmlns="http://www.w3.org/2000/svg">
<rect width="54" height="54" rx="10" fill="white"/>
<path fill-rule="evenodd" clip-rule="evenodd" d="M39.2376 21.7055L32.8694 21.7014C32.1153 19.6189 30.2001 18.147 27.9982 17.9481V15.7317H31.7063C31.8415 15.7317 31.9712 15.6779 32.0669 15.5823C32.1625 15.4867 32.2163 15.3569 32.2163 15.2217C32.2163 15.0864 32.1625 14.9567 32.0669 14.861C31.9712 14.7654 31.8415 14.7117 31.7063 14.7117H23.3759C23.2407 14.7117 23.1109 14.7654 23.0153 14.861C22.9197 14.9567 22.8659 15.0864 22.8659 15.2217C22.8659 15.3569 22.9197 15.4867 23.0153 15.5823C23.1109 15.6779 23.2407 15.7317 23.3759 15.7317H26.9782V17.9451C24.7087 18.1307 22.8979 19.5543 22.2009 21.7048L18.5143 21.7007C16.5168 21.7007 14.8712 23.2375 14.6974 25.1908C14.6874 25.2314 14.6824 25.2731 14.6825 25.3149V28.1845C14.6825 28.3198 14.7362 28.4495 14.8318 28.5451C14.9275 28.6408 15.0572 28.6945 15.1925 28.6945H18.2963C18.4316 28.6945 18.5613 28.6408 18.6569 28.5451C18.7526 28.4495 18.8063 28.3198 18.8063 28.1845V25.8249H22.1965C22.6274 26.8741 23.3607 27.7714 24.3029 28.4027C25.2452 29.0341 26.354 29.3709 27.4882 29.3704C28.622 29.3708 29.7303 29.0344 30.6726 28.4039C31.6149 27.7734 32.3486 26.8772 32.7807 25.829H39.2369C39.3722 25.829 39.5019 25.7753 39.5975 25.6796C39.6932 25.584 39.7469 25.4543 39.7469 25.319V22.2155C39.747 22.1485 39.7338 22.0823 39.7083 22.0204C39.6827 21.9586 39.6452 21.9023 39.5979 21.855C39.5506 21.8076 39.4944 21.7701 39.4326 21.7444C39.3708 21.7187 39.3045 21.7055 39.2376 21.7055ZM38.7273 24.809H32.4254C32.1925 24.809 31.9932 24.9664 31.9341 25.1861C31.6142 26.1104 31.014 26.9119 30.2171 27.4791C29.4203 28.0463 28.4663 28.3509 27.4882 28.3504C26.5333 28.3508 25.601 28.0601 24.8155 27.5172C24.03 26.9743 23.4285 26.2049 23.0913 25.3115C23.0902 25.1836 23.0409 25.0608 22.9532 24.9676C22.8656 24.8744 22.746 24.8176 22.6184 24.8087C22.5757 24.802 22.5323 24.8007 22.4892 24.8049H18.2963C18.1611 24.8049 18.0313 24.8586 17.9357 24.9543C17.8401 25.0499 17.7863 25.1796 17.7863 25.3149V27.6745H15.7025V25.5332C15.7025 23.9825 16.9639 22.7207 18.5139 22.7207L22.581 22.7251H22.582L22.5844 22.7248C22.6357 22.7248 22.6844 22.7146 22.7313 22.7003C22.7401 22.6976 22.7486 22.6956 22.7575 22.6922C22.803 22.6755 22.8452 22.6527 22.8836 22.6245C22.8907 22.6191 22.8972 22.6133 22.904 22.6075C22.9424 22.5759 22.9774 22.5405 23.0053 22.499L23.0091 22.4922C23.0366 22.4497 23.0567 22.4025 23.0706 22.3528C23.072 22.3481 23.075 22.3447 23.0764 22.3399C23.5966 20.2768 25.3282 18.9437 27.4886 18.9437C29.5782 18.9437 31.4383 20.3451 32.0116 22.3515C32.0123 22.3542 32.014 22.3566 32.0146 22.3589C32.0231 22.3872 32.0337 22.414 32.0469 22.4399L32.0561 22.4569C32.0728 22.4871 32.0926 22.5155 32.1153 22.5415C32.1593 22.5926 32.2129 22.6345 32.273 22.6649C32.3039 22.6807 32.3364 22.693 32.3699 22.7017C32.4047 22.7108 32.4402 22.7163 32.476 22.7183C32.4842 22.7187 32.492 22.7207 32.5002 22.7207L38.7279 22.7248V24.809H38.7273ZM17.4171 30.1956C17.3788 30.1018 17.3135 30.0216 17.2295 29.9651C17.1454 29.9086 17.0464 29.8784 16.9452 29.8784C16.8439 29.8784 16.7449 29.9086 16.6609 29.9651C16.5768 30.0216 16.5115 30.1018 16.4732 30.1956C16.3954 30.386 14.5635 34.8723 14.2826 36.5342V36.5349C14.1782 37.1588 14.3605 37.7858 14.7953 38.2999C15.3115 38.9095 16.1353 39.2882 16.9455 39.2882C17.7564 39.2882 18.5806 38.9091 19.096 38.2988C19.5305 37.7847 19.7117 37.1581 19.6063 36.5342C19.3258 34.8723 17.4949 30.3857 17.4171 30.1956ZM18.3167 37.6402C17.9896 38.0275 17.464 38.2679 16.9452 38.2679C16.4267 38.2679 15.9014 38.0275 15.5736 37.6406C15.4053 37.4417 15.2193 37.1177 15.2883 36.7039C15.4662 35.6516 16.374 33.2308 16.9452 31.7681C17.516 33.2308 18.4231 35.6516 18.6006 36.7039C18.67 37.1177 18.4847 37.4417 18.3167 37.6402Z" fill="#005AA3"/>
</svg>
