<svg width="54" height="54" viewBox="0 0 54 54" fill="none" xmlns="http://www.w3.org/2000/svg">
<rect width="54" height="54" rx="10" fill="white"/>
<path fill-rule="evenodd" clip-rule="evenodd" d="M15.2844 12.3708C15.1492 12.3708 15.0194 12.4246 14.9238 12.5202C14.8281 12.6159 14.7744 12.7456 14.7744 12.8808V40.8945C14.7744 41.0297 14.8281 41.1594 14.9238 41.2551C15.0194 41.3507 15.1492 41.4045 15.2844 41.4045H38.79C38.9252 41.4045 39.055 41.3507 39.1506 41.2551C39.2462 41.1594 39.3 41.0297 39.3 40.8945V12.8808C39.3 12.7456 39.2462 12.6159 39.1506 12.5202C39.055 12.4246 38.9252 12.3708 38.79 12.3708H15.2844ZM15.7944 40.3845V13.3908H38.28V40.3845H15.7944ZM19.6694 23.3188C20.9328 20.3309 23.8864 18.2321 27.332 18.2209V23.3188H19.6694ZM19.0142 26.5658C19.0142 25.7947 19.1189 25.0477 19.3148 24.3388H22.1803V28.7928H19.3148C19.1147 28.0674 19.0136 27.3183 19.0142 26.5658ZM27.3592 34.9108C23.9021 34.9108 20.9359 32.8086 19.6694 29.8128H30.8741V34.1366C29.773 34.6483 28.5733 34.9125 27.3592 34.9108ZM35.049 29.8125C34.3963 31.3526 33.2975 32.6621 31.8941 33.5722V29.8125H35.049ZM35.7041 26.5658C35.7041 27.337 35.5994 28.0836 35.4039 28.7928H23.2003V24.3388H35.4036C35.5994 25.0477 35.7041 25.7944 35.7041 26.5658ZM28.352 18.2794C31.3766 18.6381 33.9052 20.6141 35.0486 23.3185H28.352V18.2794ZM17.9942 26.5658C17.9942 21.3938 22.1871 17.2009 27.3592 17.2009C32.5313 17.2009 36.7241 21.3938 36.7241 26.5658C36.7241 31.7379 32.5313 35.9308 27.3592 35.9308C22.1871 35.9308 17.9942 31.7379 17.9942 26.5658Z" fill="#005AA3"/>
</svg>
