<svg width="54" height="54" viewBox="0 0 54 54" fill="none" xmlns="http://www.w3.org/2000/svg">
<rect width="54" height="54" rx="10" fill="white"/>
<path d="M39.25 38.5938H38.1562V16.5C38.1562 16.1377 37.8622 15.8438 37.5 15.8438H32.25C31.8878 15.8438 31.5938 16.1377 31.5938 16.5C31.5938 16.8623 31.8878 17.1562 32.25 17.1562H36.8438V39.25C36.8438 39.6122 37.1378 39.9062 37.5 39.9062H39.25C39.6122 39.9062 39.9062 39.6122 39.9062 39.25C39.9062 38.8878 39.6122 38.5938 39.25 38.5938ZM28.6214 14.1025L18.1415 15.8525C17.8291 15.9067 17.5938 16.1762 17.5938 16.5V38.5938H14.75C14.3877 38.5938 14.0938 38.8878 14.0938 39.25C14.0938 39.6122 14.3877 39.9062 14.75 39.9062H28.7299C29.0921 39.9062 29.3861 39.6122 29.3861 39.25V14.75C29.3852 14.3877 29.0912 14.0938 28.729 14.0938C28.6914 14.0938 28.6538 14.0973 28.6179 14.1034L28.6214 14.1025ZM18.9062 38.5938V17.0556L28.0736 15.5252V38.5938H18.9062ZM25.2316 26.3875C25.1599 26.3612 25.0767 26.3455 24.9901 26.3455C24.8064 26.3455 24.6392 26.4146 24.5133 26.5284L24.5141 26.5275C24.3951 26.6491 24.3216 26.8162 24.3216 27C24.3216 27.1838 24.3951 27.3509 24.5141 27.4725C24.641 27.5793 24.8064 27.6449 24.9858 27.6466H24.9866C25.0741 27.6449 25.159 27.6326 25.2386 27.6099L25.2316 27.6116C25.3139 27.5775 25.383 27.5311 25.4416 27.4725C25.5606 27.3509 25.6341 27.1838 25.6341 27C25.6341 26.8162 25.5606 26.6491 25.4416 26.5275C25.383 26.468 25.313 26.4207 25.2351 26.3892L25.2308 26.3875H25.2316Z" fill="#005AA3"/>
</svg>
