<svg width="54" height="54" viewBox="0 0 54 54" fill="none" xmlns="http://www.w3.org/2000/svg">
<rect width="54" height="54" rx="10" fill="white"/>
<path fill-rule="evenodd" clip-rule="evenodd" d="M20.7464 39.8264H15.4302V14.167H36.7961V27.7632C36.7961 27.8985 36.8498 28.0282 36.9455 28.1239C37.0411 28.2195 37.1708 28.2732 37.3061 28.2732C37.4414 28.2732 37.5711 28.2195 37.6667 28.1239C37.7624 28.0282 37.8161 27.8985 37.8161 27.7632V13.657C37.8161 13.5217 37.7624 13.392 37.6667 13.2963C37.5711 13.2007 37.4414 13.147 37.3061 13.147H14.9202C14.7849 13.147 14.6552 13.2007 14.5595 13.2963C14.4639 13.392 14.4102 13.5217 14.4102 13.657V40.3361C14.4102 40.4714 14.4639 40.6011 14.5595 40.6967C14.6552 40.7924 14.7849 40.8461 14.9202 40.8461H20.7467C20.8148 40.8478 20.8825 40.8359 20.9459 40.8111C21.0093 40.7862 21.0671 40.7489 21.1158 40.7014C21.1645 40.6539 21.2033 40.597 21.2297 40.5343C21.2561 40.4716 21.2698 40.4042 21.2697 40.3361C21.2697 40.268 21.2561 40.2006 21.2296 40.1379C21.2031 40.0752 21.1643 40.0184 21.1155 39.9709C21.0668 39.9234 21.009 39.8861 20.9456 39.8613C20.8822 39.8365 20.8145 39.8247 20.7464 39.8264Z" fill="#005AA3"/>
<path fill-rule="evenodd" clip-rule="evenodd" d="M32.7065 19.5871H24.4269C24.2916 19.5871 24.1619 19.6408 24.0662 19.7364C23.9706 19.8321 23.9169 19.9618 23.9169 20.0971C23.9169 20.2323 23.9706 20.362 24.0662 20.4577C24.1619 20.5533 24.2916 20.6071 24.4269 20.6071H32.7069C32.7739 20.607 32.8402 20.5938 32.902 20.5682C32.9639 20.5425 33.0201 20.5049 33.0675 20.4576C33.1148 20.4102 33.1523 20.354 33.178 20.2921C33.2036 20.2302 33.2167 20.1639 33.2167 20.0969C33.2167 20.0299 33.2035 19.9636 33.1778 19.9017C33.1522 19.8399 33.1146 19.7837 33.0672 19.7363C33.0198 19.689 32.9636 19.6514 32.9017 19.6258C32.8398 19.6002 32.7735 19.587 32.7065 19.5871ZM21.5556 18.3114C21.3604 18.1593 21.1369 18.0476 20.898 17.9829C20.6592 17.9183 20.4099 17.9018 20.1646 17.9347C19.1361 18.0686 18.4078 19.0162 18.5411 20.0467C18.5722 20.2922 18.6515 20.5292 18.7746 20.7439C18.8976 20.9586 19.062 21.1468 19.2582 21.2976C19.4535 21.4496 19.6771 21.5612 19.9159 21.6258C20.1548 21.6905 20.4042 21.707 20.6495 21.6743C21.678 21.5404 22.4062 20.5928 22.273 19.5622C22.2418 19.3167 22.1624 19.0798 22.0393 18.8651C21.9162 18.6504 21.7518 18.4622 21.5556 18.3114ZM20.5175 20.6632C20.4054 20.6781 20.2915 20.6706 20.1823 20.641C20.0731 20.6114 19.971 20.5603 19.8817 20.4908C19.7917 20.4215 19.7162 20.335 19.6598 20.2364C19.6033 20.1378 19.5669 20.0289 19.5526 19.9162C19.5369 19.7943 19.5472 19.6705 19.5829 19.553C19.6187 19.4355 19.679 19.3269 19.76 19.2345C19.8409 19.142 19.9406 19.0679 20.0524 19.017C20.1642 18.966 20.2855 18.9394 20.4084 18.939C20.5971 18.939 20.7797 19.0012 20.932 19.1185C21.0221 19.1878 21.0976 19.2743 21.1541 19.3729C21.2106 19.4715 21.2469 19.5804 21.2611 19.6931C21.2907 19.9203 21.229 20.1499 21.0897 20.3317C20.9503 20.5135 20.7446 20.6327 20.5175 20.6632ZM32.7065 24.8003H24.4269C24.2916 24.8003 24.1619 24.854 24.0662 24.9497C23.9706 25.0453 23.9169 25.175 23.9169 25.3103C23.9169 25.4455 23.9706 25.5753 24.0662 25.6709C24.1619 25.7665 24.2916 25.8203 24.4269 25.8203H32.7069C32.7739 25.8203 32.8402 25.807 32.902 25.7814C32.9639 25.7557 33.0201 25.7182 33.0675 25.6708C33.1148 25.6234 33.1523 25.5672 33.178 25.5053C33.2036 25.4434 33.2167 25.3771 33.2167 25.3101C33.2167 25.2431 33.2035 25.1768 33.1778 25.115C33.1522 25.0531 33.1146 24.9969 33.0672 24.9495C33.0198 24.9022 32.9636 24.8646 32.9017 24.839C32.8398 24.8134 32.7735 24.8003 32.7065 24.8003ZM21.5556 23.8136C21.3604 23.6616 21.1368 23.55 20.898 23.4853C20.6592 23.4206 20.4099 23.4042 20.1646 23.4369C19.1361 23.5708 18.4078 24.5184 18.5411 25.549C18.5722 25.7945 18.6515 26.0314 18.7746 26.2461C18.8976 26.4608 19.062 26.649 19.2582 26.7998C19.4535 26.9518 19.6771 27.0634 19.9159 27.1281C20.1548 27.1927 20.4042 27.2092 20.6495 27.1765C21.678 27.0426 22.4062 26.095 22.273 25.0645C22.2418 24.819 22.1623 24.5821 22.0392 24.3674C21.9161 24.1527 21.7517 23.9645 21.5556 23.8136ZM20.5175 26.1654C20.4054 26.1803 20.2915 26.1728 20.1823 26.1432C20.0731 26.1136 19.971 26.0625 19.8817 25.993C19.7917 25.9237 19.7162 25.8372 19.6598 25.7386C19.6033 25.64 19.5669 25.5312 19.5526 25.4184C19.5369 25.2966 19.5472 25.1728 19.5829 25.0552C19.6187 24.9377 19.679 24.8291 19.76 24.7367C19.8409 24.6442 19.9406 24.5701 20.0524 24.5192C20.1642 24.4682 20.2855 24.4417 20.4084 24.4412C20.5971 24.4412 20.7797 24.5035 20.932 24.6208C21.1146 24.7619 21.2315 24.9662 21.2611 25.1954C21.2908 25.4225 21.2292 25.6522 21.0898 25.834C20.9504 26.0158 20.7446 26.135 20.5175 26.1654ZM39.7595 33.08H37.8161V30.8302C37.8161 30.6949 37.7623 30.5652 37.6667 30.4696C37.571 30.3739 37.4413 30.3202 37.3061 30.3202H26.2666C26.1313 30.3202 26.0016 30.3739 25.906 30.4696C25.8103 30.5652 25.7566 30.6949 25.7566 30.8302V33.08H24.1202C23.9849 33.08 23.8552 33.1337 23.7596 33.2293C23.6639 33.325 23.6102 33.4547 23.6102 33.59V39.1099C23.6102 39.2451 23.6639 39.3748 23.7596 39.4705C23.8552 39.5661 23.9849 39.6199 24.1202 39.6199H26.9833V40.9496C26.9833 41.0849 27.0371 41.2146 27.1327 41.3102C27.2283 41.4059 27.3581 41.4596 27.4933 41.4596C27.6286 41.4596 27.7583 41.4059 27.8539 41.3102C27.9496 41.2146 28.0033 41.0849 28.0033 40.9496V39.6199H35.5697V40.9496C35.5697 41.0849 35.6234 41.2146 35.7191 41.3102C35.8147 41.4059 35.9444 41.4596 36.0797 41.4596C36.2149 41.4596 36.3447 41.4059 36.4403 41.3102C36.536 41.2146 36.5897 41.0849 36.5897 40.9496V39.6199H39.7595C39.8948 39.6199 40.0245 39.5661 40.1201 39.4705C40.2158 39.3748 40.2695 39.2451 40.2695 39.1099V33.59C40.2695 33.4547 40.2158 33.325 40.1201 33.2293C40.0245 33.1337 39.8948 33.08 39.7595 33.08ZM26.7766 31.3402H36.7961V35.2271H26.7766V31.3402ZM39.2495 38.5999H24.6302V34.1H25.7566V35.7367C25.7566 35.872 25.8103 36.0017 25.906 36.0973C26.0016 36.193 26.1313 36.2467 26.2666 36.2467H37.3061C37.4413 36.2467 37.571 36.193 37.6667 36.0973C37.7623 36.0017 37.8161 35.872 37.8161 35.7367V34.1H39.2495V38.5999Z" fill="#005AA3"/>
</svg>
