<svg width="54" height="54" viewBox="0 0 54 54" fill="none" xmlns="http://www.w3.org/2000/svg">
<rect width="54" height="54" rx="10" fill="white"/>
<path fill-rule="evenodd" clip-rule="evenodd" d="M18.8398 30.9951C18.8398 31.1304 18.8936 31.2601 18.9892 31.3557C19.0849 31.4514 19.2146 31.5051 19.3498 31.5051H21.0498C21.1851 31.5051 21.3148 31.4514 21.4105 31.3557C21.5061 31.2601 21.5598 31.1304 21.5598 30.9951C21.5598 30.8598 21.5061 30.7301 21.4105 30.6345C21.3148 30.5388 21.1851 30.4851 21.0498 30.4851H19.3498C19.2146 30.4851 19.0849 30.5388 18.9892 30.6345C18.8936 30.7301 18.8398 30.8598 18.8398 30.9951Z" fill="#005AA3"/>
<path fill-rule="evenodd" clip-rule="evenodd" d="M41.7902 16.5449C41.7304 16.5449 41.6736 16.5572 41.6202 16.5762C41.5658 16.5561 41.5082 16.5455 41.4502 16.5449H40.0902C39.9549 16.5449 39.8252 16.5987 39.7296 16.6943C39.6339 16.7899 39.5802 16.9197 39.5802 17.0549C39.5802 17.1902 39.6339 17.3199 39.7296 17.4155C39.8252 17.5112 39.9549 17.5649 40.0902 17.5649H41.2802V30.4849H36.3502C36.2149 30.4849 36.0852 30.5387 35.9896 30.6343C35.8939 30.7299 35.8402 30.8597 35.8402 30.9949V31.3342C35.8402 36.0732 32.0397 39.6469 27.0002 39.6469C22.043 39.6469 18.1602 35.8464 18.1602 30.9949C18.1602 30.8597 18.1065 30.7299 18.0108 30.6343C17.9152 30.5387 17.7855 30.4849 17.6502 30.4849H12.7202V17.5649H13.9102C14.0455 17.5649 14.1752 17.5112 14.2708 17.4155C14.3665 17.3199 14.4202 17.1902 14.4202 17.0549C14.4202 16.9197 14.3665 16.7899 14.2708 16.6943C14.1752 16.5987 14.0455 16.5449 13.9102 16.5449H12.5502C12.4904 16.5449 12.4336 16.5572 12.3802 16.5762C12.3258 16.5561 12.2682 16.5455 12.2102 16.5449C12.0749 16.5449 11.9452 16.5987 11.8496 16.6943C11.7539 16.7899 11.7002 16.9197 11.7002 17.0549V30.9949C11.7002 31.1302 11.7539 31.2599 11.8496 31.3555C11.9452 31.4512 12.0749 31.5049 12.2102 31.5049H17.1531C17.4149 36.6828 21.6455 40.6669 27.0002 40.6669C32.5609 40.6669 36.7687 36.7399 36.8588 31.5049H41.7902C41.9255 31.5049 42.0552 31.4512 42.1508 31.3555C42.2465 31.2599 42.3002 31.1302 42.3002 30.9949V17.0549C42.3002 16.9197 42.2465 16.7899 42.1508 16.6943C42.0552 16.5987 41.9255 16.5449 41.7902 16.5449Z" fill="#005AA3"/>
<path fill-rule="evenodd" clip-rule="evenodd" d="M32.0996 30.9949C32.0996 31.1302 32.1534 31.2599 32.249 31.3555C32.3447 31.4512 32.4744 31.5049 32.6096 31.5049H34.3096C34.4449 31.5049 34.5746 31.4512 34.6703 31.3555C34.7659 31.2599 34.8196 31.1302 34.8196 30.9949C34.8196 30.8597 34.7659 30.7299 34.6703 30.6343C34.5746 30.5387 34.4449 30.4849 34.3096 30.4849H32.6096C32.4744 30.4849 32.3447 30.5387 32.249 30.6343C32.1534 30.7299 32.0996 30.8597 32.0996 30.9949ZM27.6796 30.9949C27.6796 31.1302 27.7334 31.2599 27.829 31.3555C27.9247 31.4512 28.0544 31.5049 28.1896 31.5049H29.8896C30.0249 31.5049 30.1546 31.4512 30.2503 31.3555C30.3459 31.2599 30.3996 31.1302 30.3996 30.9949C30.3996 30.8597 30.3459 30.7299 30.2503 30.6343C30.1546 30.5387 30.0249 30.4849 29.8896 30.4849H28.1896C28.0544 30.4849 27.9247 30.5387 27.829 30.6343C27.7334 30.7299 27.6796 30.8597 27.6796 30.9949ZM23.2596 30.9949C23.2596 31.1302 23.3134 31.2599 23.409 31.3555C23.5047 31.4512 23.6344 31.5049 23.7696 31.5049H25.4696C25.6049 31.5049 25.7346 31.4512 25.8303 31.3555C25.9259 31.2599 25.9796 31.1302 25.9796 30.9949C25.9796 30.8597 25.9259 30.7299 25.8303 30.6343C25.7346 30.5387 25.6049 30.4849 25.4696 30.4849H23.7696C23.6344 30.4849 23.5047 30.5387 23.409 30.6343C23.3134 30.7299 23.2596 30.8597 23.2596 30.9949ZM26.1496 17.5649H27.5096C27.6449 17.5649 27.7746 17.5112 27.8703 17.4155C27.9659 17.3199 28.0196 17.1902 28.0196 17.0549C28.0196 16.9197 27.9659 16.7899 27.8703 16.6943C27.7746 16.5987 27.6449 16.5449 27.5096 16.5449H26.1496C26.0144 16.5449 25.8847 16.5987 25.789 16.6943C25.6934 16.7899 25.6396 16.9197 25.6396 17.0549C25.6396 17.1902 25.6934 17.3199 25.789 17.4155C25.8847 17.5112 26.0144 17.5649 26.1496 17.5649ZM22.0696 17.5649H23.4296C23.5649 17.5649 23.6946 17.5112 23.7903 17.4155C23.8859 17.3199 23.9396 17.1902 23.9396 17.0549C23.9396 16.9197 23.8859 16.7899 23.7903 16.6943C23.6946 16.5987 23.5649 16.5449 23.4296 16.5449H22.0696C21.9344 16.5449 21.8047 16.5987 21.709 16.6943C21.6134 16.7899 21.5596 16.9197 21.5596 17.0549C21.5596 17.1902 21.6134 17.3199 21.709 17.4155C21.8047 17.5112 21.9344 17.5649 22.0696 17.5649ZM17.6496 17.5649H19.0096C19.1449 17.5649 19.2746 17.5112 19.3703 17.4155C19.4659 17.3199 19.5196 17.1902 19.5196 17.0549C19.5196 16.9197 19.4659 16.7899 19.3703 16.6943C19.2746 16.5987 19.1449 16.5449 19.0096 16.5449H17.6496C17.5144 16.5449 17.3847 16.5987 17.289 16.6943C17.1934 16.7899 17.1396 16.9197 17.1396 17.0549C17.1396 17.1902 17.1934 17.3199 17.289 17.4155C17.3847 17.5112 17.5144 17.5649 17.6496 17.5649ZM30.5696 17.5649H31.9296C32.0649 17.5649 32.1946 17.5112 32.2903 17.4155C32.3859 17.3199 32.4396 17.1902 32.4396 17.0549C32.4396 16.9197 32.3859 16.7899 32.2903 16.6943C32.1946 16.5987 32.0649 16.5449 31.9296 16.5449H30.5696C30.4344 16.5449 30.3047 16.5987 30.209 16.6943C30.1134 16.7899 30.0596 16.9197 30.0596 17.0549C30.0596 17.1902 30.1134 17.3199 30.209 17.4155C30.3047 17.5112 30.4344 17.5649 30.5696 17.5649ZM34.9896 17.5649H36.3496C36.4849 17.5649 36.6146 17.5112 36.7103 17.4155C36.8059 17.3199 36.8596 17.1902 36.8596 17.0549C36.8596 16.9197 36.8059 16.7899 36.7103 16.6943C36.6146 16.5987 36.4849 16.5449 36.3496 16.5449H34.9896C34.8544 16.5449 34.7247 16.5987 34.629 16.6943C34.5334 16.7899 34.4796 16.9197 34.4796 17.0549C34.4796 17.1902 34.5334 17.3199 34.629 17.4155C34.7247 17.5112 34.8544 17.5649 34.9896 17.5649Z" fill="#005AA3"/>
</svg>
