<svg width="54" height="54" viewBox="0 0 54 54" fill="none" xmlns="http://www.w3.org/2000/svg">
<rect width="54" height="54" rx="10" fill="white"/>
<path fill-rule="evenodd" clip-rule="evenodd" d="M13.4469 25.9117C13.5507 25.9117 13.6521 25.8801 13.7375 25.821C13.8228 25.7618 13.8881 25.6781 13.9246 25.5809C13.9611 25.4837 13.967 25.3776 13.9416 25.277C13.9162 25.1763 13.8607 25.0858 13.7825 25.0175L10.0622 21.7691C9.9597 21.6847 9.82835 21.6436 9.69603 21.6545C9.56372 21.6654 9.44085 21.7274 9.35351 21.8274C9.26618 21.9274 9.22124 22.0575 9.22825 22.1901C9.23526 22.3227 9.29365 22.4473 9.39104 22.5375L13.1113 25.7859C13.2082 25.8702 13.3276 25.9117 13.4469 25.9117ZM16.8826 22.6762C16.9112 22.7374 16.9516 22.7922 17.0015 22.8376C17.0514 22.883 17.1098 22.9181 17.1733 22.9407C17.2369 22.9634 17.3043 22.9732 17.3717 22.9696C17.4391 22.9661 17.505 22.9492 17.5658 22.9199C17.6266 22.8906 17.681 22.8496 17.7258 22.7992C17.7707 22.7488 17.805 22.6899 17.827 22.6261C17.8489 22.5623 17.8579 22.4948 17.8536 22.4275C17.8492 22.3601 17.8316 22.2944 17.8016 22.2339L15.6603 17.7833C15.6016 17.6615 15.4969 17.568 15.3693 17.5233C15.2417 17.4786 15.1015 17.4864 14.9796 17.545C14.9193 17.574 14.8652 17.6146 14.8205 17.6645C14.7759 17.7144 14.7415 17.7727 14.7194 17.8359C14.6972 17.8991 14.6878 17.9661 14.6915 18.033C14.6953 18.0998 14.7122 18.1653 14.7413 18.2256L16.8826 22.6762Z" fill="#005AA3"/>
<path fill-rule="evenodd" clip-rule="evenodd" d="M42.7168 39.698V19.2408C42.7168 19.2347 42.7148 19.2289 42.7148 19.2228C42.7136 19.1967 42.7105 19.1707 42.7056 19.145C42.7035 19.1337 42.7018 19.1225 42.6991 19.1113C42.6915 19.0838 42.6816 19.057 42.6695 19.0311C42.6661 19.0239 42.6651 19.0161 42.6614 19.009C42.6597 19.0058 42.658 19.0026 42.6563 18.9994L42.6559 18.9988L42.6546 18.996C42.4822 18.6635 39.701 13.5452 32.2638 13.5452C24.3293 13.5452 21.938 18.8124 21.8405 19.0368C21.8123 19.1012 21.7979 19.1706 21.798 19.2408V22.5813C16.8401 23.161 13.2966 28.2638 13.1395 28.4936C13.0817 28.5783 13.0508 28.6785 13.0508 28.7811C13.0508 28.8836 13.0817 28.9838 13.1395 29.0685C13.2966 29.2984 16.8401 34.4011 21.798 34.9808V39.9438C21.798 40.079 21.8517 40.2088 21.9473 40.3044C22.043 40.4001 22.1727 40.4538 22.308 40.4538H42.2734C42.4087 40.4538 42.5384 40.4001 42.6341 40.3044C42.7297 40.2088 42.7834 40.079 42.7834 39.9438C42.7823 39.8575 42.7594 39.773 42.7168 39.698ZM39.9509 17.8145C40.8346 18.0689 41.5003 19.0593 41.6968 19.3802V39.1937L35.4384 36.7128V22.9105C35.5006 22.5596 36.1167 19.4683 38.7684 17.9788C39.1682 17.754 39.5555 17.7003 39.9509 17.8145ZM14.1928 28.7816C15.0265 27.6871 18.2314 23.8414 22.2508 23.5633C22.2695 23.5653 22.2879 23.569 22.3073 23.569C22.3474 23.569 22.3862 23.5633 22.4236 23.5544C22.5181 23.5503 22.6126 23.5459 22.7078 23.5459C26.509 23.5463 29.7356 27.6606 30.5438 28.7816C29.7356 29.9026 26.509 34.0169 22.7078 34.0169C18.4758 34.0169 15.0578 29.9168 14.1928 28.7816ZM22.8173 35.0328C27.697 34.9488 31.4353 29.3021 31.593 29.0597C31.647 28.9768 31.6757 28.88 31.6757 28.7811C31.6757 28.6822 31.647 28.5854 31.593 28.5024C31.4353 28.2607 27.697 22.614 22.8173 22.5297V19.3554C23.1597 18.6673 25.4863 14.5652 32.2635 14.5652C35.5173 14.5652 37.7919 15.6192 39.2978 16.751C38.9513 16.7881 38.6072 16.8996 38.2689 17.0897C35.0236 18.9121 34.4466 22.6371 34.4235 22.7949C34.4198 22.8192 34.418 22.8437 34.4181 22.8683V37.0585C34.418 37.1608 34.4487 37.2606 34.5061 37.3452C34.5635 37.4298 34.645 37.4952 34.7401 37.5328L39.5361 39.4341H22.8173V35.0328Z" fill="#005AA3"/>
<path fill-rule="evenodd" clip-rule="evenodd" d="M36.931 27.5806C36.7958 27.5806 36.666 27.6344 36.5704 27.73C36.4748 27.8257 36.421 27.9554 36.421 28.0906V29.5775C36.421 29.7127 36.4748 29.8424 36.5704 29.9381C36.666 30.0337 36.7958 30.0875 36.931 30.0875C37.0663 30.0875 37.196 30.0337 37.2916 29.9381C37.3873 29.8424 37.441 29.7127 37.441 29.5775V28.0906C37.441 27.9554 37.3873 27.8257 37.2916 27.73C37.196 27.6344 37.0663 27.5806 36.931 27.5806ZM25.9201 28.7819C25.9201 26.7317 24.3245 25.064 22.3634 25.064C20.4023 25.064 18.8066 26.7317 18.8066 28.7819C18.8066 30.8321 20.4023 32.5001 22.3634 32.5001C24.3245 32.4998 25.9201 30.8321 25.9201 28.7819ZM22.3634 31.4798C20.9646 31.4798 19.8266 30.2694 19.8266 28.7815C19.8266 27.294 20.9646 26.0836 22.3634 26.0836C23.7621 26.0836 24.9001 27.294 24.9001 28.7815C24.9001 30.2694 23.7621 31.4798 22.3634 31.4798Z" fill="#005AA3"/>
</svg>
