<svg width="54" height="54" viewBox="0 0 54 54" fill="none" xmlns="http://www.w3.org/2000/svg">
<rect width="54" height="54" rx="10" fill="white"/>
<path fill-rule="evenodd" clip-rule="evenodd" d="M40.7696 12.4651H13.5696C13.4343 12.4651 13.3046 12.5188 13.2089 12.6145C13.1133 12.7101 13.0596 12.8398 13.0596 12.9751V30.904C13.0596 30.9933 13.0831 31.081 13.1276 31.1584C13.1722 31.2358 13.2363 31.3001 13.3136 31.3449L20.186 35.3338C20.4199 38.167 22.3099 40.6174 24.9439 41.4103C25.0735 41.4493 25.2132 41.4353 25.3324 41.3712C25.4515 41.3072 25.5404 41.1985 25.5794 41.0689C25.6184 40.9394 25.6043 40.7997 25.5403 40.6805C25.4763 40.5613 25.3676 40.4725 25.238 40.4335C22.8495 39.7147 21.1812 37.3735 21.1812 34.7405C21.1812 32.5302 22.331 30.5201 24.1823 29.4943C24.3007 29.4288 24.3881 29.3189 24.4255 29.1888C24.4628 29.0588 24.447 28.9193 24.3814 28.8009C24.3158 28.6825 24.206 28.5951 24.0759 28.5577C23.9459 28.5204 23.8063 28.5363 23.688 28.6018C21.6782 29.7157 20.3747 31.8084 20.187 34.155L14.0796 30.6105V13.4851H40.2596V30.6105L33.9128 34.2944C33.7227 31.3776 31.6715 28.8833 28.7883 28.1438C28.7234 28.1272 28.6559 28.1235 28.5896 28.1329C28.5233 28.1424 28.4595 28.1648 28.4018 28.1989C28.3442 28.233 28.2938 28.2781 28.2536 28.3316C28.2134 28.3852 28.1841 28.4462 28.1675 28.511C28.1508 28.5759 28.1471 28.6434 28.1565 28.7098C28.166 28.7761 28.1884 28.8399 28.2225 28.8975C28.2566 28.9552 28.3017 29.0055 28.3553 29.0458C28.4088 29.086 28.4698 29.1152 28.5347 29.1319C31.1119 29.7925 32.9115 32.0974 32.9115 34.7361C32.9115 37.0382 31.5345 39.1211 29.4034 40.0432C29.2792 40.0969 29.1815 40.1978 29.1317 40.3236C29.0819 40.4494 29.0841 40.5898 29.1378 40.714C29.1916 40.8382 29.2924 40.9359 29.4182 40.9857C29.544 41.0355 29.6845 41.0333 29.8087 40.9795C32.0809 39.9966 33.6187 37.8876 33.8859 35.4827C33.8982 35.477 33.9111 35.4742 33.9233 35.4674L41.0263 31.3449C41.183 31.2542 41.2796 31.0862 41.2796 30.904V12.9751C41.2796 12.8398 41.2258 12.7101 41.1302 12.6145C41.0346 12.5188 40.9048 12.4651 40.7696 12.4651Z" fill="#005AA3"/>
<path fill-rule="evenodd" clip-rule="evenodd" d="M29.6147 34.4248C29.567 34.3627 29.5057 34.3124 29.4355 34.2778C29.3653 34.2431 29.2881 34.225 29.2098 34.2249H25.1607L27.3296 27.4443C27.3661 27.3168 27.3515 27.1801 27.289 27.0631C27.2264 26.9461 27.1207 26.8581 26.9944 26.8177C26.8681 26.7773 26.7309 26.7877 26.6121 26.8466C26.4933 26.9056 26.4021 27.0085 26.3578 27.1335L23.9761 34.5795C23.9518 34.656 23.9459 34.7371 23.9588 34.8163C23.9717 34.8954 24.003 34.9705 24.0503 35.0353C24.0976 35.1001 24.1595 35.1528 24.2309 35.1892C24.3024 35.2257 24.3814 35.2447 24.4617 35.2449H28.5434L26.6043 42.4216C26.5868 42.4863 26.5822 42.5538 26.5908 42.6202C26.5994 42.6866 26.621 42.7507 26.6543 42.8088C26.6876 42.8669 26.7321 42.9178 26.7851 42.9588C26.8382 42.9997 26.8987 43.0297 26.9634 43.0472C27.094 43.0826 27.2332 43.0646 27.3505 42.9973C27.4086 42.9639 27.4596 42.9195 27.5005 42.8665C27.5414 42.8134 27.5715 42.7529 27.589 42.6882L29.7017 34.8682C29.7224 34.7926 29.7253 34.7132 29.7102 34.6363C29.6951 34.5594 29.6624 34.487 29.6147 34.4248Z" fill="#005AA3"/>
</svg>
