<svg width="114" height="45" viewBox="0 0 114 45" fill="none" xmlns="http://www.w3.org/2000/svg">
<rect width="113.215" height="44.7595" rx="8" fill="white"/>
<path d="M82.0422 17.6292L85.2567 15.2479H74.4949V29.5121H85.2567V27.1308H77.5697V23.4889H84.1386V21.1077H77.5697V17.6292H82.0422Z" fill="#21A038"/>
<path d="M66.3671 20.8042H62.64V17.6292H68.6033L71.8178 15.2479H59.5652V29.5121H65.9711C69.5583 29.5121 71.6315 27.8779 71.6315 25.0297C71.6315 22.2983 69.768 20.8042 66.3671 20.8042ZM65.8546 27.1308H62.64V23.1854H65.8546C67.8113 23.1854 68.7198 23.8391 68.7198 25.1698C68.7198 26.5005 67.7414 27.1308 65.8546 27.1308Z" fill="#21A038"/>
<path d="M93.9708 15.2479H88.124V29.5121H91.1988V25.4733H93.9941C97.7211 25.4733 100.051 23.5123 100.051 20.3606C100.051 17.209 97.7211 15.2479 93.9708 15.2479ZM93.9009 23.0921H91.1755V17.6292H93.9009C95.8809 17.6292 96.9524 18.6097 96.9524 20.3606C96.9524 22.1115 95.8809 23.0921 93.9009 23.0921Z" fill="#21A038"/>
<path d="M54.2974 26.4295C53.4821 26.8731 52.5736 27.1066 51.6418 27.1066C48.8699 27.1066 46.8666 25.1222 46.8666 22.3907C46.8666 19.6593 48.8699 17.6749 51.6418 17.6749C52.6435 17.6516 53.6218 17.9784 54.4371 18.5621L56.65 16.9279L56.5103 16.7878C55.2291 15.6439 53.5054 15.0602 51.5487 15.0602C49.4289 15.0602 47.4955 15.7839 46.0979 17.0913C44.7003 18.4453 43.9083 20.3363 43.9549 22.2974C43.9316 24.2817 44.7003 26.1961 46.0979 27.5968C47.5654 28.9742 49.5221 29.7446 51.5254 29.6979C53.7383 29.6979 55.6717 28.9275 56.9762 27.5268L54.9962 26.056L54.2974 26.4295Z" fill="#21A038"/>
<path d="M34.3334 15.1547C34.8924 15.8784 35.3583 16.6722 35.7543 17.5126L24.9925 25.4735L20.4735 22.6253V19.2169L24.9692 22.0417L34.3334 15.1547Z" fill="#21A038"/>
<path d="M15.8885 22.3914C15.8885 22.228 15.8885 22.0879 15.9118 21.9245L13.1864 21.7844C13.1864 21.9712 13.1631 22.1813 13.1631 22.3681C13.1631 25.6365 14.4908 28.6013 16.6339 30.7491L18.5673 28.8115C16.9134 27.1773 15.8885 24.9127 15.8885 22.3914Z" fill="url(#paint0_linear_5_46)"/>
<path d="M24.9722 13.2869C25.1352 13.2869 25.275 13.2869 25.438 13.3103L25.5778 10.5788C25.3914 10.5788 25.1818 10.5555 24.9955 10.5555C21.7343 10.5555 18.776 11.8862 16.6329 14.034L18.5663 15.9717C20.1969 14.3141 22.4797 13.2869 24.9722 13.2869Z" fill="url(#paint1_linear_5_46)"/>
<path d="M24.9719 31.4965C24.8088 31.4965 24.669 31.4965 24.506 31.4731L24.3662 34.2046C24.5526 34.2046 24.7622 34.2279 24.9486 34.2279C28.2097 34.2279 31.168 32.8972 33.3111 30.7494L31.3777 28.8117C29.7471 30.4926 27.4876 31.4965 24.9719 31.4965Z" fill="url(#paint2_linear_5_46)"/>
<path d="M30.0983 14.874L32.4044 13.1698C30.3778 11.5356 27.7922 10.5317 24.9736 10.5317V13.2632C26.8837 13.2865 28.6541 13.8702 30.0983 14.874Z" fill="url(#paint3_linear_5_46)"/>
<path d="M36.8082 22.3914C36.8082 21.6677 36.7384 20.9673 36.6219 20.267L34.0829 22.158C34.0829 22.228 34.0829 22.3214 34.0829 22.3914C34.0829 25.0762 32.9182 27.4808 31.0779 29.1383L32.9182 31.1694C35.2941 29.0216 36.8082 25.8699 36.8082 22.3914Z" fill="#21A038"/>
<path d="M24.9734 31.4967C22.2946 31.4967 19.8953 30.3294 18.2414 28.4851L16.2148 30.3294C18.3812 32.734 21.5026 34.2281 24.9734 34.2281V31.4967Z" fill="url(#paint4_linear_5_46)"/>
<path d="M18.8934 15.6434L17.0532 13.6124C14.6539 15.7835 13.1631 18.9118 13.1631 22.3903H15.8885C15.8885 19.7289 17.0532 17.301 18.8934 15.6434Z" fill="url(#paint5_linear_5_46)"/>
<defs>
<linearGradient id="paint0_linear_5_46" x1="332.051" y1="885.024" x2="51.9929" y2="79.8737" gradientUnits="userSpaceOnUse">
<stop offset="0.1444" stop-color="#F2E913"/>
<stop offset="0.3037" stop-color="#E7E518"/>
<stop offset="0.5823" stop-color="#CADB26"/>
<stop offset="0.891" stop-color="#A3CD39"/>
</linearGradient>
<linearGradient id="paint1_linear_5_46" x1="94.3205" y1="326.737" x2="801.802" y2="58.5872" gradientUnits="userSpaceOnUse">
<stop offset="0.0592" stop-color="#0FA8E0"/>
<stop offset="0.5385" stop-color="#0099F9"/>
<stop offset="0.9234" stop-color="#0291EB"/>
</linearGradient>
<linearGradient id="paint2_linear_5_46" x1="8.36329" y1="337.432" x2="851.073" y2="148" gradientUnits="userSpaceOnUse">
<stop offset="0.1226" stop-color="#A3CD39"/>
<stop offset="0.2846" stop-color="#86C339"/>
<stop offset="0.8693" stop-color="#21A038"/>
</linearGradient>
<linearGradient id="paint3_linear_5_46" x1="-31.0226" y1="185.294" x2="669.998" y2="400.42" gradientUnits="userSpaceOnUse">
<stop offset="0.0566" stop-color="#0291EB"/>
<stop offset="0.79" stop-color="#0C8ACB"/>
</linearGradient>
<linearGradient id="paint4_linear_5_46" x1="85.5119" y1="257.281" x2="838.474" y2="537.09" gradientUnits="userSpaceOnUse">
<stop offset="0.1324" stop-color="#F2E913"/>
<stop offset="0.2977" stop-color="#EBE716"/>
<stop offset="0.5306" stop-color="#D9E01F"/>
<stop offset="0.8023" stop-color="#BBD62D"/>
<stop offset="0.9829" stop-color="#A3CD39"/>
</linearGradient>
<linearGradient id="paint5_linear_5_46" x1="220.54" y1="924.4" x2="523.331" y2="140.99" gradientUnits="userSpaceOnUse">
<stop offset="0.0698" stop-color="#A3CD39"/>
<stop offset="0.2599" stop-color="#81C55F"/>
<stop offset="0.9216" stop-color="#0FA8E0"/>
</linearGradient>
</defs>
</svg>
