<svg width="97" height="45" viewBox="0 0 97 45" fill="none" xmlns="http://www.w3.org/2000/svg">
<rect x="0.746826" width="96.1013" height="44.7595" rx="8" fill="white"/>
<g clip-path="url(#clip0_5_74)">
<path d="M49.298 21.385C48.7893 21.1897 48.124 21.1312 47.4 21.1312H43.3687V19.8814H50.296V17.7334H40.5313V27.0285H47.1456C48.0653 27.0285 48.75 26.9504 49.259 26.7549C50.3352 26.3449 51.0593 25.3491 51.0593 24.0407C51.0593 22.713 50.3743 21.7951 49.298 21.385ZM47.8891 24.607C47.7326 24.6657 47.5174 24.6851 47.2433 24.6851H43.3687V23.201H47.2433C47.5565 23.201 47.8108 23.2207 48.0066 23.3182C48.2413 23.4354 48.3588 23.6502 48.3588 23.9235C48.3588 24.1969 48.2218 24.4899 47.8891 24.607Z" fill="#333333"/>
<path d="M59.0151 17.7334H54.8666L51.0507 27.0285H54.26L54.7883 25.681H59.0934L59.6414 27.0285H62.8311L59.0151 17.7334ZM55.4927 23.6306L56.8431 19.8814H57.0583L58.4085 23.6306H55.4927Z" fill="#333333"/>
<path d="M66.4831 23.5722V27.0285H63.6458V17.7334H66.4831V21.1313H71.0426V17.7334H73.8801V27.0285H71.0426V23.5722H66.4831Z" fill="#333333"/>
<path d="M78.3714 23.5137V27.0285H75.5339V17.7334H78.3714V21.2289H79.1541L82.5786 17.7334H86.1399L81.6001 22.1857L86.3161 27.0285H82.5393L79.1541 23.5137H78.3714Z" fill="#333333"/>
<path d="M12.5947 12.3127H35.0992V22.8327C35.0992 25.728 33.5513 28.4036 31.0387 29.8514L23.847 33.9955L16.6552 29.8514C14.1425 28.4036 12.5947 25.728 12.5947 22.8327L12.5947 12.3127Z" fill="#FFDD2D"/>
<path fill-rule="evenodd" clip-rule="evenodd" d="M18.8028 17.7334V21.2241C19.2812 20.6851 20.1509 20.3203 21.1453 20.3203H22.2259V24.3782C22.2259 25.4578 21.932 26.5149 21.4958 27.0347H26.1964C25.7612 26.5143 25.4679 25.4586 25.4679 24.3803V20.3203H26.5486C27.543 20.3203 28.4127 20.6851 28.891 21.2241V17.7334H18.8028Z" fill="#333333"/>
</g>
<defs>
<clipPath id="clip0_5_74">
<rect width="73.7215" height="26.3291" fill="white" transform="translate(12.5947 9.21519)"/>
</clipPath>
</defs>
</svg>
