<svg width="135" height="45" viewBox="0 0 135 45" fill="none" xmlns="http://www.w3.org/2000/svg">
<rect x="0.379745" width="134.278" height="44.7595" rx="8" fill="white"/>
<path d="M24.0935 11.8481C18.2672 11.8481 13.5438 16.5631 13.5438 22.3782C13.5438 28.1935 18.2672 32.9108 24.0935 32.9108C29.919 32.9108 34.6447 28.1935 34.6447 22.3782C34.6447 16.5631 29.919 11.8481 24.0935 11.8481ZM22.5968 26.8585L21.8191 29.1603C18.8963 28.1764 16.9329 25.4323 16.9329 22.3319C16.9329 19.2279 18.9002 16.4829 21.8279 15.5016L22.6027 17.8048C20.667 18.4535 19.3667 20.2727 19.3667 22.3319C19.3667 24.3888 20.6649 26.2079 22.5968 26.8585ZM26.2256 29.2068L25.4969 26.8888C27.4856 26.2658 28.8218 24.4345 28.8218 22.3319C28.8218 20.2557 27.5069 18.4317 25.5496 17.7933L26.306 15.4838C29.2665 16.4497 31.2556 19.2018 31.2556 22.3319C31.2556 25.5016 29.2342 28.2644 26.2256 29.2068Z" fill="#02BAE8"/>
<path d="M119.196 24.1259L120.349 25.5049C119.171 26.7446 117.675 27.0861 116.484 27.0861C115.356 27.0861 114.507 26.9091 113.81 26.5548C112.276 25.7958 111.503 24.2525 111.503 22.3802C111.503 19.5338 113.43 17.4591 116.268 17.4591C119.411 17.4591 120.945 19.8121 120.742 22.8735L113.544 22.8862C113.582 23.6578 114.025 24.3916 114.646 24.7584C115.166 25.0747 115.774 25.2392 116.611 25.2392C117.485 25.2392 118.397 24.9356 119.196 24.1259ZM113.569 21.229H118.651C118.524 20.1157 117.612 19.1796 116.142 19.1796C114.646 19.1796 113.747 20.2169 113.569 21.229ZM65.2592 26.8458H67.8575L63.7764 22.1272L67.7937 17.6868H65.2338L62.1669 21.2416H61.2673V17.6868H59.2776V26.8458H61.2673V23.2024H62.1799L65.2592 26.8458ZM73.712 19.3314C72.0522 19.3314 70.9497 20.6218 70.9497 22.2663C70.9497 23.9109 72.0522 25.2012 73.712 25.2012C75.4106 25.2012 76.4623 23.9362 76.4623 22.2663C76.4623 20.6344 75.4356 19.3314 73.712 19.3314ZM74.0544 17.4591C76.6398 17.4591 78.5408 19.4832 78.5408 22.2663C78.5408 25.0114 76.6522 27.0861 74.0544 27.0861C72.7869 27.0861 71.7985 26.656 71.0888 25.8843V30.6536H69.0866V17.6868H71.0384V18.7874C71.7985 17.8766 72.7869 17.4591 74.0544 17.4591ZM100.174 17.6868H91.9614V19.5212H95.0666V26.8458H97.0688V19.5212H100.174V17.6868ZM57.8963 17.6868H49.6841V19.5212H52.789V26.8458H54.7914V19.5212H57.8963V17.6868ZM47.2508 22.2663C47.2508 20.5585 46.0342 19.2934 44.3867 19.2934C42.7519 19.2934 41.5226 20.5206 41.5226 22.2663C41.5226 23.9868 42.7139 25.2518 44.3867 25.2518C46.0216 25.2518 47.2508 23.9994 47.2508 22.2663ZM39.4696 22.2663C39.4696 19.5212 41.5986 17.4591 44.3867 17.4591C47.1748 17.4591 49.3039 19.5212 49.3039 22.2663C49.3039 25.0114 47.1748 27.0861 44.3867 27.0861C41.5986 27.0861 39.4696 25.0114 39.4696 22.2663ZM109.881 17.6868V26.8458H107.917V20.938L103.114 26.8458H101.542V17.6868H103.506V23.582L108.322 17.6868H109.881ZM90.5927 26.8458H88.603V17.6868H90.5927V26.8458ZM85.4983 23.7211C85.4983 22.8988 84.9281 22.3296 84.1421 22.3296H82.127V25.1506H84.1421C84.9281 25.1506 85.4983 24.5434 85.4983 23.7211ZM87.4751 23.7211C87.4751 25.5555 86.1448 26.8458 84.2054 26.8458H80.1627V17.6868H82.1399V20.647H84.3828C86.2838 20.647 87.4751 21.8742 87.4751 23.7211Z" fill="#1F232B"/>
</svg>
