<svg width="90" height="45" viewBox="0 0 90 45" fill="none" xmlns="http://www.w3.org/2000/svg">
<rect x="0.190308" width="89.519" height="44.7595" rx="8" fill="white"/>
<g clip-path="url(#clip0_5_69)">
<path d="M17.7184 10.8518L16.6265 13.8874H31.7522L32.8441 10.8518H17.7184ZM16.0812 15.4038L14.9894 18.4387H30.115L31.2069 15.4038H16.0812ZM14.4472 19.9558L13.3553 22.9901H28.481L29.5716 19.9551L14.4472 19.9558Z" fill="#009FDF"/>
<path d="M45.1538 23.9427V24.0057C45.833 24.2586 46.4824 24.7012 46.822 24.9856C47.872 25.8709 48.3361 27.0399 48.3361 28.5571C48.3361 31.0553 47.0385 32.8562 44.9062 33.4256C44.2568 33.6154 43.5775 33.6785 42.311 33.6785H35.855V15.4074H41.5709C42.7453 15.4074 43.5477 15.4705 44.258 15.6597C46.3281 16.2291 47.6879 17.6831 47.6879 19.9903C47.6879 21.2237 47.2556 22.2673 46.5453 22.9621C46.2361 23.2781 45.8038 23.6576 45.155 23.942L45.1538 23.9427ZM39.4385 25.8709V30.6758H41.9105C42.6513 30.6758 43.3319 30.6127 43.8257 30.1386C44.3202 29.6644 44.5361 29.0635 44.5361 28.2733C44.5361 27.6737 44.3812 27.1043 44.0726 26.6932C43.5477 26.0292 42.8983 25.8709 41.7867 25.8709H39.4385ZM39.4068 22.7093H41.4153C42.033 22.7093 42.3422 22.7093 42.6507 22.6147C43.4855 22.3612 44.0105 21.604 44.0105 20.5604C44.0105 19.3276 43.4543 18.7897 42.6507 18.5375C42.3104 18.4423 41.9714 18.4114 41.2915 18.4114H39.4068V22.7093ZM53.7116 33.6791V18.4739H48.5525V15.4081H62.8885L61.869 18.4739H57.2958V33.6791H53.7116ZM64.0007 33.6791V15.4081H75.6178L74.5983 18.4739H67.5544V22.5208H70.4282C72.7452 22.5208 73.9501 23.0902 74.7849 23.8165C75.4343 24.386 76.5459 25.6496 76.5459 28.1479C76.5459 30.6134 75.4032 31.9722 74.4446 32.6684C73.3325 33.4578 72.1586 33.6797 69.7788 33.6797H64.0013L64.0007 33.6791ZM67.5537 30.6121H70.2415C71.261 30.6121 71.8787 30.3592 72.311 29.7898C72.5268 29.5061 72.836 28.9991 72.836 28.0514C72.836 27.1037 72.5268 26.439 71.9092 25.9648C71.5391 25.6811 71.0439 25.5235 70.2098 25.5235H67.5525V30.6121H67.5537Z" fill="#0A2973"/>
</g>
<defs>
<clipPath id="clip0_5_69">
<rect width="63.1899" height="23.6962" fill="white" transform="translate(13.3553 10.5316)"/>
</clipPath>
</defs>
</svg>
