<svg width="132" height="45" viewBox="0 0 132 45" fill="none" xmlns="http://www.w3.org/2000/svg">
<rect x="0.241211" width="131.646" height="44.7595" rx="8" fill="white"/>
<g clip-path="url(#clip0_5_65)">
<path d="M115.11 16.0076L111.517 20.0159V16.0076H108.917V26.1277H111.517V21.8676L115.363 26.1277H118.723L113.992 20.8259L118.38 16.0076H115.11ZM104.332 19.7828H100.737V16.0076H98.1364V26.1277H100.737V22.1381H104.332V26.1277H106.932V16.0076H104.332V19.7828ZM28.8467 21.4878C28.7845 23.3754 28.5403 23.7524 27.4735 23.7524V26.1277H27.871C30.5292 26.1277 31.1681 24.7624 31.2664 21.7237L31.3748 18.3628H33.8668V26.132H36.4686V16.009H29.0274L28.8467 21.4878ZM42.9313 19.0822H41.0522V16.0076H38.4503V26.1277H42.966C45.8005 26.1277 46.8124 24.2948 46.8124 22.5697C46.8124 20.3396 45.403 19.0822 42.9298 19.0822M42.7304 23.8991H41.0522V21.3295H42.7318C43.6352 21.3295 44.1773 21.7237 44.1773 22.5697C44.1773 23.4862 43.6526 23.8991 42.7318 23.8991M55.2828 15.7745V12.0179H52.6809V15.7745C49.7033 16.0205 47.6984 18.1297 47.6984 21.0561C47.6984 23.9826 49.7033 26.1076 52.6824 26.3594V30.1692H55.2842V26.3622C58.2633 26.1277 60.2682 24.007 60.2682 21.0561C60.2682 18.1053 58.2633 16.0047 55.2828 15.7716M52.6809 23.9149C51.2355 23.7164 50.3335 22.6388 50.3335 21.0561C50.3335 19.4735 51.2369 18.3959 52.6809 18.1988V23.9149ZM55.2828 23.9149V18.2017C56.7282 18.3988 57.6374 19.4735 57.6374 21.0561C57.6374 22.6388 56.734 23.7164 55.2885 23.9149M70.0193 23.0186V19.6174C70.0193 17.137 68.4293 15.5731 65.758 15.5731C62.9943 15.5731 61.5315 17.2262 61.4058 18.9513H64.0423C64.1319 18.5743 64.5294 17.9269 65.758 17.9269C66.7699 17.9269 67.4189 18.3945 67.4189 19.6174H64.8358C62.5231 19.6174 61.1528 20.8216 61.1528 22.8344C61.1528 24.9408 62.6532 26.3795 64.8185 26.3795C66.4085 26.3795 67.2873 25.6328 67.6718 25.0674C68.0144 25.7508 68.7733 26.1277 69.7663 26.1277H70.6697V23.7898C70.1999 23.7898 70.0193 23.574 70.0193 23.0172M67.4174 22.3525C67.4174 23.5207 66.5863 24.1854 65.5036 24.1854C64.5641 24.1854 63.824 23.8444 63.824 22.8373C63.824 21.8302 64.6364 21.6863 65.3403 21.6863H67.4174V22.3525ZM81.1623 17.4463H78.2541V14.589H84.9899V12.0179H75.5279V26.1277H81.1652C84.2889 26.1277 86.0798 24.5825 86.0798 21.7424C86.0798 19.0635 84.2918 17.4463 81.1652 17.4463M81.038 23.5754H78.2541V19.9051H81.0351C82.4806 19.9051 83.293 20.5698 83.293 21.7381C83.293 22.9423 82.4806 23.5711 81.0351 23.5711M96.0246 23.0186V19.6174C96.0246 17.137 94.4346 15.5731 91.7619 15.5731C89.004 15.5774 87.5368 17.2305 87.414 18.9556H90.0505C90.1416 18.5786 90.5391 17.9312 91.7663 17.9312C92.7781 17.9312 93.4285 18.3988 93.4285 19.6217H90.8412C88.5284 19.6217 87.1567 20.8259 87.1567 22.8388C87.1567 24.9408 88.6585 26.3795 90.8238 26.3795C92.4138 26.3795 93.2912 25.6328 93.6772 25.0674C94.0197 25.7508 94.7786 26.1277 95.7716 26.1277H96.6736V23.7898C96.2053 23.7898 96.0246 23.574 96.0246 23.0172M93.4228 22.3525C93.4228 23.5207 92.5916 24.1854 91.5075 24.1854C90.5694 24.1854 89.8279 23.8444 89.8279 22.8373C89.8279 21.8302 90.6417 21.6863 91.3456 21.6863H93.4228V22.3525ZM13.4062 30.0354H27.3116V32.9114H13.4062V30.0354ZM22.887 13.9545C22.4895 12.7776 22.0328 11.8481 20.4673 11.8481C18.9019 11.8481 18.4148 12.7733 17.9985 13.9545L13.6953 26.1277H16.5487L17.5417 23.2344H23.0345L23.9581 26.1277H26.9936L22.887 13.9545ZM18.3729 20.79L20.3228 15.0134H20.3951L22.2366 20.79H18.3729Z" fill="#EF3124"/>
</g>
<defs>
<clipPath id="clip0_5_65">
<rect width="105.316" height="21.0633" fill="white" transform="translate(13.4062 11.8481)"/>
</clipPath>
</defs>
</svg>
