<svg width="94" height="45" viewBox="0 0 94 45" fill="none" xmlns="http://www.w3.org/2000/svg">
<rect x="0.417969" width="93.4684" height="44.7595" rx="8" fill="white"/>
<g clip-path="url(#clip0_5_87)">
<path d="M27.4159 12.2249L20.6354 18.9929H27.4159V32.5343L34.1909 25.783V12.2249H27.4159Z" fill="#EA5616"/>
<path d="M20.6351 32.5343L27.4156 25.7664H20.6351V12.2249L13.8602 18.9762V32.5343H20.6351ZM40.9711 29.1476H44.5278V18.6547H49.9267V29.1476H53.4834V15.6117H40.9711V29.1476ZM75.5339 20.6779H72.4932V18.6547H79.2627V15.6061H68.931V29.1476H75.7004C78.4137 29.1476 80.4445 27.7896 80.4445 24.9128C80.4445 22.036 78.4137 20.6779 75.5284 20.6779H75.5339ZM75.1899 26.2597H72.4877V23.5658H75.1899C76.0278 23.5658 76.8545 23.8984 76.8545 24.9128C76.8545 25.9271 76.0056 26.2597 75.1899 26.2597ZM62.2115 26.2597C59.8367 26.2597 58.4994 24.5192 58.4994 22.3796C58.4994 20.6558 59.4704 18.4995 62.1394 18.4995C62.7375 18.5047 63.3273 18.6409 63.8672 18.8985C64.4066 19.1562 64.8832 19.5289 65.2633 19.9906L67.4273 17.8288C66.7603 17.0317 65.9258 16.3906 64.9831 15.9509C64.0409 15.5113 63.0133 15.2838 61.9729 15.2846C61.0357 15.2599 60.1036 15.4269 59.2335 15.7754C58.3635 16.1238 57.5739 16.6464 56.9131 17.3109C56.2528 17.9754 55.7351 18.7679 55.3927 19.6395C55.0498 20.5112 54.8894 21.4437 54.9205 22.3796C54.9089 23.8724 55.3716 25.3304 56.2428 26.5434C57.1134 27.7566 58.3474 28.6623 59.7662 29.1301C61.1856 29.598 62.7164 29.6037 64.1391 29.1467C65.5618 28.6896 66.8025 27.7932 67.6825 26.5867L65.5074 24.4139C65.1623 24.9859 64.6735 25.458 64.0892 25.7836C63.5055 26.1093 62.8468 26.2772 62.1782 26.2708" fill="#2C2D84"/>
</g>
<defs>
<clipPath id="clip0_5_87">
<rect width="67.1392" height="21.0633" fill="white" transform="translate(13.583 11.8481)"/>
</clipPath>
</defs>
</svg>
