<svg width="111" height="45" viewBox="0 0 111 45" fill="none" xmlns="http://www.w3.org/2000/svg">
<rect x="0.417969" width="110.582" height="44.7595" rx="8" fill="white"/>
<g clip-path="url(#clip0_5_92)">
<path fill-rule="evenodd" clip-rule="evenodd" d="M90.8737 19.7442C90.7595 19.0299 90.2349 18.6289 89.5642 18.3924C88.4132 17.9858 87.2221 17.9637 86.0179 18.0598C84.9059 18.1483 83.8301 18.3654 82.7927 18.8909C82.6005 17.8662 82.4159 16.8836 82.2284 15.89C83.141 15.453 84.0572 15.2096 84.9988 15.0457C87.0121 14.6965 89.0301 14.6419 91.0257 15.128C93.1301 15.641 94.6081 16.8124 95.0162 18.967C95.1167 19.4994 95.1126 20.305 95.1126 20.305V25.1452C95.1126 25.3555 95.1392 25.8049 95.1528 26.0145C95.2273 27.1332 95.3314 27.2425 96.5197 27.4119V29.7152C95.3468 30 94.142 30.1501 92.9497 29.6094C92.279 29.3058 91.9702 28.7437 91.823 28.0798C91.804 27.9928 91.7946 27.9036 91.7833 27.7965V27.7942C91.778 27.7387 91.7715 27.6784 91.7632 27.6111C90.3236 29.6018 88.2636 30.0906 85.9989 29.9683C83.4622 29.8314 81.5146 28.1926 81.1555 26.2592C80.5724 23.113 82.2219 20.7627 85.5151 20.2884C87.597 19.9883 88.1938 20.1155 90.8849 20.9965C90.8849 20.8633 90.8908 20.7304 90.8956 20.5983C90.9068 20.3086 90.918 20.0225 90.8737 19.7442ZM90.8027 23.745C90.1119 23.288 89.3264 23.048 88.5055 22.9478C87.652 22.8434 86.8098 22.898 86.0859 23.436C85.4217 23.9297 85.1703 24.7138 85.4134 25.5221C85.6003 26.1438 86.2586 26.6306 87.0346 26.7011C87.7827 26.7702 88.5085 26.661 89.1993 26.3781C90.439 25.8699 90.9245 25.0678 90.8027 23.745ZM38.5419 29.9855C36.3888 29.998 34.4531 29.3957 32.8468 28.0314C31.0652 26.5185 30.3616 24.5492 30.3792 22.3171C30.3947 20.4654 30.9125 18.781 32.2107 17.358C33.3752 16.0822 34.857 15.323 36.5866 14.9779C38.7586 14.5444 40.8491 14.7878 42.7728 15.8305C45.1989 17.1464 46.3971 19.2076 46.5449 21.8318C46.6751 24.1399 46.0939 26.2191 44.2934 27.8779C42.6954 29.3501 40.7358 29.9634 38.5419 29.9855ZM38.594 18.5051C36.7702 18.548 35.4903 19.4794 35.0013 21.013C34.7008 21.9583 34.7198 22.8959 35.0196 23.8411C35.4551 25.2137 36.4198 26.0566 37.8889 26.2765C39.3771 26.4984 40.6556 26.029 41.469 24.7885C42.3943 23.3758 42.4118 21.867 41.6738 20.3728C41.0419 19.0929 39.9161 18.5203 38.594 18.5051ZM69.0783 23.7627H71.1892L71.534 23.8387L72.0203 24.6878L72.0279 24.7011C73.0428 26.4733 74.0569 28.2445 75.0541 29.9859H79.6326C79.5846 29.8705 79.5438 29.7616 79.5048 29.6585C79.4273 29.4533 79.3587 29.2711 79.2611 29.1063C78.478 27.7818 77.689 26.4609 76.9006 25.1402L76.8953 25.1312L76.8918 25.1251C76.4606 24.4031 76.03 23.6811 75.5994 22.9585C75.5249 22.8343 75.4575 22.7052 75.3853 22.5659L75.3848 22.5655C75.3516 22.5017 75.3173 22.4359 75.2807 22.3673C78.2539 20.6517 78.8714 17.899 78.7856 14.7736H74.7075C74.7075 15.9998 74.5017 16.721 74.2598 17.5685V17.5692C74.2285 17.6773 74.1971 17.7875 74.1658 17.9011C73.8468 19.0469 73.0546 19.8123 71.9224 20.2002C71.2953 20.415 70.625 20.3764 69.9379 20.337C69.6537 20.3206 69.3665 20.3041 69.0783 20.3053V14.7736H64.8566V29.9727L69.0783 29.9859V23.7627ZM57.8658 14.7736H62.0425V29.9859H57.825V25.1076C57.576 25.1641 57.3338 25.2252 57.0956 25.2852C56.5913 25.4123 56.105 25.5349 55.6114 25.6006C53.6968 25.8551 51.8737 25.6234 50.3124 24.3255C49.105 23.3215 48.3978 21.9752 48.1839 20.4478C48.0387 19.4119 48.0265 18.0518 48.0142 16.6854C48.0084 16.0397 48.0026 15.3926 47.9827 14.7777L52.1918 14.7736V15.4651V18.9224C52.1918 20.5508 53.6518 21.8356 55.2413 21.8584C56.2229 21.8722 56.7956 21.6371 57.8158 21.0009L57.8658 14.7736ZM19.8248 29.9859H24.0465V18.9224H28.9719V14.7736H14.8994V18.9224H19.8248V29.9859Z" fill="#231F20"/>
</g>
<defs>
<clipPath id="clip0_5_92">
<rect width="81.6203" height="15.7975" fill="white" transform="translate(14.8994 14.481)"/>
</clipPath>
</defs>
</svg>
