<svg width="269" height="116" viewBox="0 0 269 116" fill="none" xmlns="http://www.w3.org/2000/svg">
<g clip-path="url(#clip0_8_2384)">
<path d="M138.101 48.9185C138.101 49.1282 138.094 49.3107 138.081 49.4727C138.068 49.6281 138.046 49.7637 138.013 49.8854C137.979 50.0005 137.939 50.1082 137.884 50.2028C137.829 50.2908 137.734 50.4059 137.605 50.5341C137.468 50.669 137.189 50.8714 136.767 51.1426C136.338 51.4123 135.806 51.677 135.172 51.9335C134.539 52.1901 133.816 52.4064 132.999 52.5823C132.175 52.7648 131.282 52.8528 130.308 52.8528C128.632 52.8528 127.112 52.5757 125.763 52.0215C124.414 51.4666 123.256 50.6485 122.309 49.5607C121.355 48.4787 120.619 47.1408 120.108 45.5523C119.598 43.9564 119.338 42.1245 119.338 40.0493C119.338 37.9205 119.618 36.027 120.169 34.3578C120.721 32.6953 121.498 31.2812 122.5 30.1252C123.502 28.9699 124.693 28.0902 126.091 27.4825C127.48 26.8741 129.027 26.5699 130.716 26.5699C131.466 26.5699 132.195 26.6373 132.897 26.7729C133.605 26.9144 134.259 27.083 134.859 27.2934C135.458 27.503 135.99 27.7464 136.46 28.0235C136.923 28.2933 137.251 28.5235 137.428 28.6994C137.612 28.8753 137.727 29.0102 137.782 29.1055C137.837 29.1935 137.877 29.3012 137.911 29.4302C137.945 29.5585 137.973 29.7073 137.993 29.8759C138.013 30.0511 138.02 30.2542 138.02 30.491C138.02 30.7615 138.007 30.9843 137.979 31.1676C137.952 31.356 137.911 31.5121 137.857 31.6404C137.809 31.7621 137.741 31.8567 137.666 31.9175C137.597 31.9783 137.503 32.0055 137.4 32.0055C137.209 32.0055 136.95 31.8772 136.609 31.6199C136.275 31.3633 135.846 31.0789 135.315 30.7681C134.783 30.4572 134.142 30.1736 133.387 29.9163C132.623 29.6597 131.717 29.5307 130.661 29.5307C129.503 29.5307 128.454 29.7608 127.514 30.2131C126.567 30.6728 125.756 31.342 125.088 32.2276C124.42 33.1131 123.895 34.1951 123.528 35.4728C123.16 36.7505 122.976 38.21 122.976 39.8462C122.976 41.4758 123.153 42.9155 123.507 44.1661C123.861 45.4167 124.372 46.4642 125.033 47.3028C125.694 48.1407 126.512 48.7763 127.472 49.2088C128.44 49.6347 129.53 49.8517 130.749 49.8517C131.778 49.8517 132.684 49.7234 133.454 49.4727C134.224 49.2227 134.878 48.9456 135.416 48.6348C135.961 48.324 136.404 48.0462 136.752 47.7962C137.106 47.5462 137.379 47.4179 137.577 47.4179C137.672 47.4179 137.754 47.4377 137.821 47.4788C137.89 47.5191 137.937 47.5931 137.978 47.7016C138.018 47.8167 138.052 47.9714 138.073 48.1679C138.093 48.3636 138.1 48.6143 138.1 48.9185H138.101ZM135.013 70.9805C135.013 72.2648 134.801 73.4208 134.372 74.4552C133.95 75.4822 133.343 76.3611 132.547 77.092C131.756 77.8148 130.789 78.3763 129.638 78.7751C128.486 79.1739 127.117 79.3696 125.516 79.3696H122.585V88.5899C122.585 88.6984 122.558 88.793 122.497 88.867C122.436 88.9484 122.34 89.0093 122.218 89.0569C122.088 89.1038 121.918 89.1449 121.7 89.1786C121.475 89.2123 121.202 89.2255 120.868 89.2255C120.534 89.2255 120.262 89.2123 120.037 89.1786C119.819 89.1449 119.642 89.1045 119.513 89.0569C119.376 89.01 119.288 88.9484 119.233 88.867C119.179 88.793 119.152 88.6984 119.152 88.5899V64.9372C119.152 64.4094 119.295 64.0312 119.574 63.8083C119.853 63.5847 120.16 63.4704 120.507 63.4704H126.033C126.591 63.4704 127.13 63.4902 127.641 63.5378C128.151 63.5847 128.758 63.6866 129.453 63.8347C130.155 63.9901 130.864 64.2745 131.593 64.6872C132.315 65.1058 132.928 65.6204 133.44 66.2288C133.944 66.8373 134.332 67.5403 134.605 68.3378C134.878 69.1347 135.014 70.0209 135.014 70.9805H135.013ZM131.415 71.251C131.415 70.2027 131.217 69.3311 130.829 68.6281C130.433 67.9317 129.95 67.4047 129.364 67.0601C128.785 66.7222 128.185 66.4986 127.572 66.4106C126.951 66.3161 126.345 66.2684 125.76 66.2684H122.585V76.5708H125.685C126.721 76.5708 127.586 76.4352 128.267 76.172C128.955 75.9081 129.528 75.543 129.998 75.0695C130.461 74.6033 130.815 74.0417 131.053 73.3864C131.292 72.731 131.415 72.0207 131.415 71.2503V71.251ZM161.898 75.9895C161.898 78.0647 161.653 79.9304 161.163 81.5937C160.665 83.2562 159.929 84.6696 158.956 85.8388C157.974 87.0014 156.748 87.9001 155.27 88.5291C153.791 89.1581 152.067 89.4689 150.098 89.4689C148.156 89.4689 146.48 89.1845 145.062 88.6105C143.639 88.0358 142.474 87.1979 141.546 86.1027C140.62 85.0075 139.931 83.6484 139.482 82.0262C139.025 80.4039 138.801 78.5383 138.801 76.4293C138.801 74.4083 139.046 72.5698 139.537 70.9197C140.035 69.2703 140.771 67.8709 141.758 66.7141C142.74 65.5654 143.973 64.6726 145.451 64.0443C146.923 63.4161 148.646 63.1046 150.622 63.1046C152.524 63.1046 154.179 63.3883 155.589 63.9564C157 64.5238 158.178 65.3484 159.111 66.437C160.052 67.5256 160.754 68.8708 161.21 70.4798C161.666 72.0823 161.898 73.9208 161.898 75.9895H161.898ZM158.26 76.2262C158.26 74.7799 158.131 73.4274 157.872 72.1842C157.613 70.9402 157.184 69.8582 156.577 68.9389C155.971 68.027 155.166 67.3101 154.158 66.7962C153.143 66.2824 151.897 66.0258 150.411 66.0258C148.919 66.0258 147.672 66.3029 146.664 66.8571C145.655 67.4113 144.83 68.148 144.204 69.0672C143.571 69.9931 143.121 71.0685 142.848 72.3051C142.576 73.5359 142.439 74.8268 142.439 76.1859C142.439 77.6931 142.568 79.072 142.821 80.3365C143.073 81.6076 143.495 82.6955 144.095 83.6147C144.688 84.5274 145.491 85.2369 146.493 85.7442C147.495 86.2515 148.755 86.5081 150.268 86.5081C151.773 86.5081 153.034 86.231 154.056 85.6768C155.077 85.1226 155.901 84.3793 156.529 83.4329C157.149 82.4931 157.598 81.3987 157.864 80.1605C158.13 78.9239 158.259 77.6124 158.259 76.2262H158.26ZM181.242 81.9118C181.242 83.1089 181.017 84.1762 180.574 85.116C180.124 86.0492 179.504 86.8467 178.714 87.5028C177.923 88.1516 176.99 88.6457 175.92 88.9763C174.844 89.3076 173.692 89.4703 172.452 89.4703C171.587 89.4703 170.783 89.3963 170.046 89.2534C169.304 89.1046 168.643 88.922 168.064 88.7131C167.485 88.5034 167.002 88.2799 166.606 88.057C166.217 87.8276 165.938 87.6377 165.788 87.4757C165.632 87.3203 165.522 87.1172 165.447 86.8746C165.372 86.6312 165.338 86.3065 165.338 85.9011C165.338 85.6108 165.352 85.3667 165.379 85.1776C165.406 84.9884 165.447 84.833 165.495 84.7179C165.55 84.5963 165.618 84.5156 165.7 84.468C165.781 84.4203 165.87 84.3998 165.979 84.3998C166.163 84.3998 166.43 84.5149 166.77 84.7377C167.104 84.9606 167.539 85.204 168.078 85.4679C168.609 85.7244 169.25 85.9751 170.006 86.2046C170.756 86.434 171.627 86.5491 172.609 86.5491C173.359 86.5491 174.04 86.448 174.66 86.2522C175.28 86.0565 175.811 85.7787 176.254 85.4136C176.703 85.0552 177.045 84.6095 177.283 84.0824C177.522 83.5546 177.645 82.9528 177.645 82.2835C177.645 81.5607 177.481 80.9391 177.147 80.4244C176.813 79.9113 176.377 79.4583 175.832 79.0661C175.28 78.6805 174.66 78.322 173.965 77.998C173.263 77.674 172.548 77.3493 171.819 77.0106C171.09 76.6719 170.374 76.301 169.686 75.8883C168.991 75.4829 168.371 75.0028 167.826 74.4486C167.281 73.8944 166.838 73.2456 166.504 72.4957C166.163 71.7524 165.993 70.8603 165.993 69.8186C165.993 68.744 166.191 67.791 166.579 66.9524C166.974 66.1211 167.519 65.4181 168.214 64.85C168.916 64.2819 169.747 63.8494 170.708 63.5517C171.675 63.2548 172.711 63.106 173.828 63.106C174.4 63.106 174.973 63.153 175.551 63.2548C176.131 63.356 176.676 63.485 177.187 63.6536C177.698 63.8164 178.154 64.0055 178.556 64.2078C178.952 64.4109 179.218 64.5795 179.34 64.7019C179.469 64.8302 179.551 64.9247 179.592 64.9995C179.633 65.0736 179.66 65.1681 179.687 65.2766C179.715 65.3917 179.735 65.5266 179.749 65.6893C179.762 65.8447 179.769 66.0478 179.769 66.3051C179.769 66.5419 179.762 66.7515 179.742 66.9399C179.721 67.1224 179.687 67.2778 179.647 67.4069C179.613 67.5285 179.551 67.6231 179.483 67.684C179.408 67.7448 179.326 67.7712 179.231 67.7712C179.081 67.7712 178.856 67.6766 178.543 67.4941C178.229 67.3042 177.848 67.1012 177.391 66.8651C176.941 66.6357 176.403 66.426 175.783 66.2369C175.17 66.0412 174.475 65.9459 173.698 65.9459C172.983 65.9459 172.356 66.0412 171.824 66.2303C171.293 66.426 170.85 66.6767 170.502 66.9942C170.162 67.3116 169.903 67.684 169.726 68.1165C169.556 68.5556 169.467 69.0152 169.467 69.5019C169.467 70.2115 169.63 70.8266 169.964 71.3404C170.298 71.8543 170.741 72.3073 171.293 72.7061C171.852 73.1049 172.479 73.4634 173.187 73.7947C173.889 74.126 174.612 74.4574 175.347 74.7953C176.077 75.1325 176.799 75.4983 177.5 75.9037C178.209 76.3025 178.836 76.7834 179.394 77.331C179.946 77.8778 180.389 78.5207 180.73 79.2706C181.07 80.0139 181.24 80.8936 181.24 81.914L181.242 81.9118ZM200.518 87.692C200.518 87.9353 200.503 88.145 200.476 88.3202C200.449 88.4961 200.402 88.6449 200.34 88.7659C200.271 88.8876 200.197 88.9689 200.108 89.0232C200.02 89.0774 199.924 89.1045 199.816 89.1045H187.408C187.102 89.1045 186.809 89.0034 186.536 88.8003C186.265 88.5899 186.128 88.2322 186.128 87.7183V64.8558C186.128 64.3427 186.265 63.9835 186.536 63.7746C186.809 63.5723 187.102 63.4704 187.408 63.4704H199.672C199.781 63.4704 199.877 63.4975 199.966 63.551C200.054 63.6052 200.122 63.6866 200.177 63.8083C200.224 63.93 200.272 64.0788 200.306 64.2547C200.341 64.4299 200.354 64.6528 200.354 64.9167C200.354 65.1601 200.34 65.3624 200.306 65.5456C200.272 65.7208 200.224 65.8697 200.177 65.9847C200.122 66.0925 200.048 66.1739 199.966 66.2281C199.877 66.2816 199.782 66.3088 199.672 66.3088H189.561V74.3394H198.241C198.35 74.3394 198.446 74.3665 198.534 74.4273C198.616 74.4882 198.691 74.5695 198.752 74.6773C198.814 74.7858 198.854 74.9273 198.882 75.1098C198.909 75.2997 198.923 75.5152 198.923 75.7652C198.923 76.0085 198.909 76.2108 198.882 76.3809C198.854 76.5569 198.814 76.6917 198.752 76.7995C198.691 76.908 198.616 76.982 198.534 77.0297C198.446 77.0773 198.35 77.0971 198.241 77.0971H189.561V86.264H199.816C199.924 86.264 200.02 86.2911 200.108 86.3453C200.197 86.3996 200.271 86.4802 200.34 86.5887C200.402 86.7031 200.449 86.8519 200.476 87.0278C200.503 87.2037 200.518 87.4266 200.518 87.6905V87.692ZM219.5 87.6106C219.5 87.8818 219.486 88.1047 219.458 88.2799C219.431 88.4558 219.39 88.6112 219.329 88.7395C219.268 88.8619 219.2 88.9565 219.111 89.0166C219.022 89.0774 218.92 89.1045 218.798 89.1045H207.372C207.065 89.1045 206.773 89.0034 206.5 88.8003C206.228 88.5899 206.091 88.2322 206.091 87.7183V63.9835C206.091 63.8757 206.118 63.7812 206.173 63.7064C206.227 63.625 206.316 63.5642 206.452 63.5173C206.581 63.4704 206.765 63.4293 206.99 63.3956C207.214 63.3611 207.487 63.3487 207.807 63.3487C208.141 63.3487 208.414 63.3619 208.639 63.3956C208.857 63.4293 209.033 63.4696 209.163 63.5173C209.299 63.5642 209.388 63.625 209.443 63.7064C209.497 63.7804 209.524 63.875 209.524 63.9835V86.143H218.797C218.92 86.143 219.022 86.1701 219.11 86.231C219.192 86.2925 219.267 86.3798 219.328 86.4883C219.39 86.6026 219.43 86.7514 219.458 86.9413C219.485 87.1238 219.499 87.3474 219.499 87.6106H219.5ZM240.124 88.5504C240.124 88.6581 240.097 88.7527 240.05 88.8407C240.008 88.9286 239.913 88.9961 239.784 89.0503C239.648 89.098 239.471 89.1456 239.246 89.1793C239.021 89.213 238.728 89.2262 238.368 89.2262C237.904 89.2262 237.522 89.2064 237.229 89.1654C236.936 89.1243 236.718 89.0576 236.568 88.9491C236.426 88.8406 236.302 88.7256 236.215 88.5907L226.709 75.774V88.5907C226.709 88.686 226.682 88.7739 226.628 88.8619C226.573 88.9425 226.485 89.0107 226.349 89.0576C226.22 89.1045 226.042 89.1456 225.824 89.1793C225.6 89.213 225.327 89.2262 224.992 89.2262C224.672 89.2262 224.4 89.213 224.175 89.1793C223.951 89.1456 223.766 89.1053 223.637 89.0576C223.5 89.0107 223.412 88.9425 223.357 88.8619C223.303 88.7739 223.276 88.686 223.276 88.5907V63.9842C223.276 63.8765 223.303 63.7819 223.357 63.7071C223.412 63.6258 223.501 63.5649 223.637 63.518C223.766 63.4711 223.95 63.43 224.175 63.3963C224.4 63.3619 224.672 63.3494 224.992 63.3494C225.326 63.3494 225.599 63.3626 225.824 63.3963C226.042 63.43 226.219 63.4704 226.349 63.518C226.485 63.5649 226.573 63.6258 226.628 63.7071C226.682 63.7812 226.709 63.8757 226.709 63.9842V75.3752L235.853 63.9842C235.935 63.8625 236.024 63.7687 236.133 63.6873C236.234 63.606 236.365 63.5459 236.521 63.4982C236.671 63.4506 236.862 63.4168 237.08 63.3897C237.298 63.3626 237.584 63.3494 237.932 63.3494C238.273 63.3494 238.552 63.3626 238.769 63.3963C238.981 63.43 239.151 63.477 239.274 63.5246C239.403 63.5789 239.492 63.647 239.533 63.7277C239.581 63.8017 239.607 63.8904 239.607 63.9842C239.607 64.1536 239.56 64.3295 239.478 64.4981C239.389 64.6667 239.226 64.9108 238.987 65.2143L230.423 75.3752L239.642 87.5431C239.873 87.8877 240.009 88.1171 240.051 88.2461C240.098 88.3678 240.125 88.4763 240.125 88.5504H240.124ZM247.947 88.5907C247.947 88.6992 247.919 88.7937 247.865 88.8678C247.811 88.9491 247.722 89.01 247.586 89.0576C247.457 89.1045 247.279 89.1456 247.061 89.1793C246.837 89.213 246.564 89.2262 246.23 89.2262C245.91 89.2262 245.638 89.213 245.413 89.1793C245.188 89.1456 245.004 89.1053 244.874 89.0576C244.739 89.0107 244.65 88.9491 244.595 88.8678C244.541 88.7937 244.514 88.6992 244.514 88.5907V63.9842C244.514 63.8765 244.541 63.7819 244.602 63.7071C244.664 63.6258 244.765 63.5649 244.902 63.518C245.044 63.4711 245.222 63.43 245.44 63.3963C245.658 63.3619 245.924 63.3494 246.23 63.3494C246.564 63.3494 246.837 63.3626 247.061 63.3963C247.28 63.43 247.457 63.4704 247.586 63.518C247.722 63.5649 247.811 63.6258 247.865 63.7071C247.919 63.7812 247.947 63.8757 247.947 63.9842V88.5907ZM269.001 51.1162C269.001 51.3588 268.987 51.5685 268.96 51.7444C268.933 51.9204 268.885 52.0692 268.823 52.1908C268.755 52.3125 268.68 52.3939 268.591 52.4482C268.503 52.5017 268.407 52.5288 268.299 52.5288H255.891C255.585 52.5288 255.291 52.4276 255.019 52.2246C254.747 52.0149 254.611 51.6565 254.611 51.1433V28.2808C254.611 27.7677 254.747 27.4085 255.019 27.1988C255.291 26.9965 255.585 26.8946 255.891 26.8946H268.155C268.265 26.8946 268.36 26.9217 268.449 26.976C268.537 27.0302 268.605 27.1109 268.66 27.2333C268.707 27.355 268.755 27.503 268.789 27.679C268.824 27.8542 268.837 28.0778 268.837 28.3409C268.837 28.585 268.823 28.7874 268.789 28.9699C268.755 29.1451 268.708 29.2939 268.66 29.409C268.605 29.5167 268.531 29.5981 268.449 29.6531C268.36 29.7066 268.265 29.7337 268.155 29.7337H258.044V37.7643H266.725C266.834 37.7643 266.93 37.7915 267.018 37.8523C267.1 37.9131 267.175 37.9945 267.237 38.1023C267.298 38.21 267.339 38.3522 267.366 38.5348C267.394 38.7239 267.407 38.9402 267.407 39.1901C267.407 39.4342 267.394 39.6366 267.366 39.8059C267.339 39.9818 267.298 40.1174 267.237 40.2252C267.176 40.333 267.1 40.4077 267.018 40.4546C266.93 40.5023 266.834 40.5228 266.725 40.5228H258.044V49.6897H268.299C268.407 49.6897 268.503 49.7168 268.591 49.7703C268.68 49.8246 268.755 49.9052 268.823 50.0137C268.885 50.128 268.933 50.2768 268.96 50.4528C268.987 50.6287 269.001 50.8516 269.001 51.1155V51.1162ZM248.199 30.3964C248.199 30.6464 248.185 30.8692 248.158 31.0584C248.131 31.2475 248.09 31.4095 248.043 31.5385C247.988 31.6602 247.92 31.7482 247.838 31.8017C247.763 31.8559 247.675 31.883 247.579 31.883C247.423 31.883 247.157 31.7548 246.782 31.5041C246.408 31.2541 245.91 30.9697 245.283 30.6662C244.657 30.362 243.907 30.0775 243.035 29.8276C242.162 29.5783 241.127 29.4493 239.934 29.4493C238.503 29.4493 237.23 29.7059 236.099 30.2197C234.967 30.7402 234.007 31.4498 233.223 32.3625C232.432 33.2751 231.833 34.3571 231.411 35.6136C230.995 36.8707 230.783 38.2306 230.783 39.6967C230.783 41.3394 231.015 42.7931 231.471 44.0642C231.934 45.3287 232.568 46.4027 233.386 47.275C234.197 48.1473 235.165 48.8093 236.295 49.2564C237.419 49.7095 238.659 49.9323 240.002 49.9323C240.806 49.9323 241.617 49.8377 242.434 49.642C243.251 49.4522 244.014 49.1619 244.723 48.7836V41.2933H238.741C238.509 41.2933 238.339 41.1782 238.229 40.9546C238.113 40.7317 238.059 40.3799 238.059 39.9005C238.059 39.6505 238.073 39.4342 238.1 39.2583C238.127 39.0824 238.169 38.9336 238.229 38.8185C238.291 38.7107 238.359 38.6286 238.441 38.5751C238.515 38.5208 238.618 38.4937 238.741 38.4937H246.937C247.087 38.4937 247.23 38.5208 247.38 38.5751C247.523 38.6286 247.659 38.7034 247.775 38.8119C247.898 38.9204 247.993 39.0618 248.054 39.2444C248.123 39.4342 248.156 39.6432 248.156 39.8799V49.6618C248.156 50.0063 248.095 50.304 247.979 50.5539C247.856 50.8039 247.604 51.0268 247.216 51.2166C246.835 51.405 246.33 51.6154 245.717 51.8382C245.104 52.0677 244.477 52.2568 243.823 52.4196C243.169 52.575 242.508 52.6967 241.847 52.7707C241.18 52.8521 240.518 52.8924 239.871 52.8924C237.868 52.8924 236.083 52.5882 234.516 51.9731C232.942 51.3574 231.613 50.4792 230.531 49.3429C229.447 48.2074 228.616 46.8483 228.044 45.2598C227.471 43.6713 227.185 41.9068 227.185 39.9466C227.185 37.9117 227.492 36.0666 228.112 34.4172C228.732 32.7678 229.604 31.3618 230.728 30.1919C231.852 29.0293 233.202 28.1298 234.775 27.4876C236.356 26.8455 238.1 26.5273 240.014 26.5273C241.002 26.5273 241.922 26.6153 242.787 26.7839C243.652 26.9598 244.423 27.1629 245.098 27.3923C245.765 27.6291 246.331 27.8791 246.794 28.1562C247.251 28.4267 247.564 28.6495 247.741 28.8255C247.912 28.9941 248.034 29.1971 248.096 29.4207C248.164 29.6436 248.198 29.9683 248.198 30.3942L248.199 30.3964ZM224.809 51.3251C224.911 51.6161 224.972 51.8456 224.979 52.0281C224.986 52.204 224.932 52.3397 224.829 52.4342C224.72 52.5222 224.543 52.583 224.298 52.6094C224.053 52.6365 223.725 52.6505 223.31 52.6505C222.901 52.6505 222.567 52.6439 222.321 52.6234C222.077 52.6036 221.893 52.5698 221.763 52.5222C221.634 52.4745 221.545 52.4137 221.484 52.3323C221.422 52.251 221.368 52.1564 221.314 52.0354L219.099 45.7957H208.362L206.243 51.9541C206.202 52.0758 206.155 52.1769 206.086 52.2656C206.018 52.3536 205.923 52.421 205.793 52.4819C205.67 52.5427 205.486 52.583 205.254 52.6102C205.023 52.6373 204.723 52.6512 204.348 52.6512C203.96 52.6512 203.646 52.6373 203.401 52.6043C203.155 52.5706 202.978 52.5097 202.883 52.4144C202.781 52.3199 202.733 52.185 202.74 52.0091C202.747 51.8265 202.801 51.5963 202.911 51.3061L211.571 27.4906C211.625 27.3418 211.7 27.2201 211.782 27.1321C211.871 27.0368 211.993 26.9628 212.163 26.9151C212.327 26.8609 212.538 26.8206 212.804 26.8C213.062 26.7802 213.39 26.7736 213.792 26.7736C214.213 26.7736 214.568 26.7802 214.848 26.8C215.127 26.8206 215.352 26.8609 215.523 26.9151C215.7 26.962 215.829 27.0434 215.925 27.138C216.02 27.2391 216.094 27.3608 216.142 27.503L224.809 51.3258V51.3251ZM213.69 30.3011H213.67L209.221 43.0775H218.201L213.69 30.3011H213.69ZM205.335 28.3541C205.335 28.6041 205.321 28.8211 205.294 29.0029C205.267 29.1854 205.226 29.3342 205.165 29.4493C205.104 29.5571 205.036 29.645 204.947 29.6919C204.858 29.7462 204.763 29.7733 204.661 29.7733H197.405V52.0135C197.405 52.1219 197.377 52.2099 197.323 52.2905C197.269 52.3719 197.18 52.4328 197.043 52.4797C196.914 52.5266 196.737 52.5676 196.519 52.6014C196.294 52.6351 196.022 52.6483 195.688 52.6483C195.368 52.6483 195.095 52.6343 194.871 52.6014C194.646 52.5676 194.462 52.5273 194.332 52.4797C194.196 52.4328 194.107 52.3719 194.053 52.2905C193.999 52.2092 193.971 52.1219 193.971 52.0135V29.7733H186.715C186.613 29.7733 186.518 29.7462 186.429 29.6919C186.341 29.645 186.273 29.5571 186.218 29.4493C186.171 29.3342 186.122 29.1854 186.089 29.0029C186.055 28.8203 186.041 28.6041 186.041 28.3541C186.041 28.1041 186.055 27.8806 186.089 27.6914C186.123 27.5023 186.171 27.3469 186.218 27.2325C186.272 27.1101 186.341 27.0229 186.429 26.9752C186.518 26.9217 186.613 26.8939 186.715 26.8939H204.662C204.764 26.8939 204.859 26.921 204.948 26.9752C205.036 27.0222 205.104 27.1101 205.166 27.2325C205.228 27.3469 205.268 27.5023 205.295 27.6914C205.322 27.8806 205.335 28.1041 205.335 28.3541H205.335ZM183.452 28.3541C183.452 28.6041 183.439 28.8211 183.411 29.0029C183.384 29.1854 183.343 29.3342 183.282 29.4493C183.221 29.5571 183.153 29.645 183.064 29.6919C182.975 29.7462 182.88 29.7733 182.778 29.7733H175.522V52.0135C175.522 52.1219 175.495 52.2099 175.44 52.2905C175.386 52.3719 175.297 52.4328 175.161 52.4797C175.031 52.5266 174.854 52.5676 174.636 52.6014C174.411 52.6351 174.139 52.6483 173.806 52.6483C173.485 52.6483 173.212 52.6343 172.988 52.6014C172.763 52.5676 172.579 52.5273 172.449 52.4797C172.313 52.4328 172.224 52.3719 172.17 52.2905C172.115 52.2092 172.088 52.1219 172.088 52.0135V29.7733H164.832C164.73 29.7733 164.634 29.7462 164.546 29.6919C164.457 29.645 164.389 29.5571 164.334 29.4493C164.287 29.3342 164.238 29.1854 164.205 29.0029C164.171 28.8203 164.158 28.6041 164.158 28.3541C164.158 28.1041 164.172 27.8806 164.205 27.6914C164.239 27.5023 164.287 27.3469 164.334 27.2325C164.388 27.1101 164.457 27.0229 164.546 26.9752C164.634 26.9217 164.73 26.8939 164.832 26.8939H182.778C182.88 26.8939 182.975 26.921 183.064 26.9752C183.153 27.0222 183.221 27.1101 183.282 27.2325C183.344 27.3469 183.384 27.5023 183.411 27.6914C183.439 27.8806 183.452 28.1041 183.452 28.3541ZM163.911 39.4137C163.911 41.489 163.666 43.3546 163.175 45.0179C162.678 46.6805 161.942 48.0938 160.968 49.263C159.987 50.4257 158.761 51.3251 157.282 51.9533C155.804 52.5823 154.08 52.8931 152.11 52.8931C150.169 52.8931 148.493 52.6087 147.075 52.0347C145.651 51.46 144.486 50.6221 143.559 49.5262C142.632 48.431 141.944 47.0719 141.495 45.4497C141.038 43.8274 140.813 41.9611 140.813 39.8521C140.813 37.831 141.059 35.9925 141.549 34.3424C142.047 32.6931 142.782 31.2937 143.77 30.1376C144.751 28.9889 145.985 28.0961 147.463 27.4671C148.935 26.8389 150.658 26.5273 152.634 26.5273C154.536 26.5273 156.191 26.811 157.601 27.3799C159.012 27.9473 160.19 28.772 161.123 29.8605C162.064 30.9484 162.766 32.2943 163.222 33.9026C163.678 35.5051 163.91 37.3436 163.91 39.4122L163.911 39.4137ZM160.273 39.6505C160.273 38.2042 160.144 36.8524 159.884 35.6084C159.626 34.3644 159.196 33.2832 158.59 32.3632C157.983 31.4505 157.179 30.7336 156.171 30.2205C155.156 29.7066 153.909 29.45 152.424 29.45C150.932 29.45 149.685 29.7271 148.676 30.2813C147.668 30.8355 146.843 31.573 146.217 32.4922C145.583 33.4181 145.133 34.4934 144.861 35.7301C144.588 36.9602 144.451 38.2518 144.451 39.6109C144.451 41.1181 144.581 42.4969 144.833 43.7607C145.085 45.0318 145.508 46.1204 146.107 47.0397C146.7 47.9523 147.504 48.6619 148.505 49.1692C149.507 49.6765 150.768 49.933 152.28 49.933C153.786 49.933 155.046 49.656 156.068 49.1018C157.09 48.5476 157.914 47.8043 158.541 46.8579C159.162 45.9181 159.611 44.8229 159.877 43.5855C160.142 42.3481 160.271 41.0374 160.271 39.6512L160.273 39.6505Z" fill="#FEFEFE"/>
<path fill-rule="evenodd" clip-rule="evenodd" d="M89.45 29.9267H89.4486C85.167 29.9267 81.6642 33.4021 81.6642 37.6502V78.3494C81.6642 82.5974 85.167 86.0728 89.4486 86.0728H89.45C93.7316 86.0728 97.2345 82.5974 97.2345 78.3494V37.6502C97.2345 33.4021 93.7316 29.9267 89.45 29.9267ZM7.78466 29.9267H7.78613C12.0677 29.9267 15.5705 33.4021 15.5705 37.6502V78.3494C15.5705 82.5974 12.0677 86.0728 7.78613 86.0728H7.78466C3.50308 86.0728 0.000244141 82.5974 0.000244141 78.3494V37.6502C0.000244141 33.4021 3.50308 29.9267 7.78466 29.9267ZM28.2003 14.8104H28.2017C32.4833 14.8104 35.9861 18.2851 35.9861 22.5331V93.4657C35.9861 97.7137 32.4833 101.189 28.2017 101.189H28.2003C23.9187 101.189 20.4159 97.7137 20.4159 93.4657V22.5331C20.4159 18.2851 23.9187 14.8104 28.2003 14.8104ZM48.6166 -0.000976562H48.6181C52.8997 -0.000976562 56.4018 3.47444 56.4018 7.72249V108.276C56.4018 112.524 52.8989 116 48.6181 116H48.6166C44.335 116 40.8329 112.524 40.8329 108.276V7.72249C40.8329 3.47444 44.3358 -0.000976562 48.6166 -0.000976562ZM69.0344 14.8104H69.033C64.7514 14.8104 61.2485 18.2851 61.2485 22.5331V93.4657C61.2485 97.7137 64.7514 101.189 69.033 101.189H69.0344C73.316 101.189 76.8188 97.7137 76.8188 93.4657V22.5331C76.8188 18.2851 73.316 14.8104 69.0344 14.8104Z" fill="url(#paint0_radial_8_2384)"/>
<path fill-rule="evenodd" clip-rule="evenodd" d="M81.6641 48.3802V60.0864L97.2337 71.4656V59.7594L81.6641 48.3802ZM0.000244141 59.7594V71.4656L15.5698 60.0864V48.3802L0.000244141 59.7594ZM40.8322 29.9168V41.6229L48.6173 35.9337L56.4018 41.6229V29.9168L48.6173 24.2275L40.8322 29.9168ZM61.2485 33.4596V45.1658L76.8181 56.5442V44.8381L61.2485 33.4596Z" fill="#005AA3"/>
<path fill-rule="evenodd" clip-rule="evenodd" d="M7.78477 29.927C12.0663 29.927 15.5692 33.4031 15.5692 37.6511V44.8395C14.5902 44.3974 13.5056 44.1504 12.3648 44.1504C8.08326 44.1504 4.58042 47.6266 4.58042 51.8746V85.3847C1.88588 84.1664 0.00109863 81.4665 0.00109863 78.3503V37.6519C0.00109863 33.4038 3.50394 29.9277 7.78551 29.9277L7.78477 29.927ZM28.2011 14.8106H28.2019C32.4834 14.8106 35.9863 18.286 35.9863 22.5341V29.7232C35.008 29.2811 33.9227 29.0341 32.7819 29.0341C28.5003 29.0341 24.9975 32.5095 24.9975 36.7583V100.5C22.303 99.2827 20.4174 96.5821 20.4174 93.4667V22.5348C20.4174 18.2868 23.9203 14.8114 28.2019 14.8114L28.2011 14.8106ZM48.6167 0H48.6175C52.899 0 56.4019 3.47541 56.4019 7.7242V14.9125C55.4236 14.4705 54.3383 14.2235 53.1975 14.2235H53.1968C48.9152 14.2235 45.4124 17.6989 45.4124 21.9477V115.312C42.7178 114.094 40.833 111.394 40.833 108.277V7.72493C40.833 3.47614 44.3359 0.000733054 48.6175 0.000733054L48.6167 0ZM69.0331 14.8106H69.0323C64.7507 14.8106 61.2479 18.286 61.2479 22.5341V93.4659C61.2479 96.5814 63.1327 99.282 65.828 100.5V36.7576C65.828 32.5088 69.3308 29.0334 73.6124 29.0334C74.7532 29.0334 75.8385 29.2804 76.8167 29.7224V22.5334C76.8167 18.2853 73.3139 14.8099 69.0323 14.8099L69.0331 14.8106ZM89.4494 29.927C85.1678 29.927 81.665 33.4031 81.665 37.6511V78.3496C81.665 81.4658 83.5498 84.1657 86.2451 85.384V51.8739C86.2451 47.6258 89.7479 44.1497 94.0295 44.1497H94.0302C95.171 44.1497 96.2563 44.3967 97.2346 44.8387V37.6504C97.2346 33.4024 93.7317 29.9262 89.4501 29.9262L89.4494 29.927Z" fill="#0052A3"/>
<path fill-rule="evenodd" clip-rule="evenodd" d="M89.45 29.9269C85.1685 29.9269 81.6656 33.4031 81.6656 37.6511V78.3496C81.6656 80.5869 82.6379 82.6094 84.1828 84.0234C83.7743 83.0866 83.5467 82.0559 83.5467 80.9747V40.2762C83.5467 36.0282 87.0495 32.5527 91.3311 32.5527C93.3577 32.5527 95.2093 33.332 96.5983 34.6024C95.4014 31.8585 92.6418 29.9269 89.45 29.9269ZM7.78539 29.9269C10.9779 29.9269 13.7367 31.8585 14.9337 34.6024C13.5454 33.332 11.6931 32.5527 9.66648 32.5527H9.66574C5.38417 32.5527 1.88133 36.0282 1.88133 40.2762V80.9747C1.88133 82.0559 2.10815 83.0866 2.51747 84.0234C0.971818 82.6094 0.000244141 80.5869 0.000244141 78.3496V37.6511C0.000244141 33.4031 3.50308 29.9269 7.78465 29.9269H7.78539ZM28.2017 14.8106H28.2025C31.3935 14.8106 34.1531 16.7422 35.3507 19.4853C33.9617 18.2149 32.1102 17.4357 30.0843 17.4357C25.8027 17.4357 22.2999 20.9111 22.2999 25.1592V96.091C22.2999 97.1715 22.5267 98.2029 22.936 99.139C21.3911 97.725 20.4188 95.7025 20.4188 93.4652V22.5334C20.4188 18.2853 23.9216 14.8099 28.2032 14.8099L28.2017 14.8106ZM48.6173 0C44.3358 0 40.8329 3.47541 40.8329 7.72419V108.277C40.8329 110.514 41.8045 112.537 43.3502 113.95C42.9416 113.014 42.714 111.983 42.714 110.902V10.3493C42.714 6.10121 46.2169 2.62507 50.4984 2.62507H50.4992C52.5258 2.62507 54.3773 3.4043 55.7656 4.67469C54.568 1.9316 51.8091 0 48.6173 0ZM69.0337 14.8106H69.033C64.7514 14.8106 61.2485 18.286 61.2485 22.5341V93.4659C61.2485 95.7032 62.2208 97.7257 63.7658 99.1397C63.3572 98.2036 63.1296 97.173 63.1296 96.0917V25.1599C63.1296 20.9118 66.6325 17.4364 70.914 17.4364C72.9407 17.4364 74.7922 18.2157 76.1805 19.4861C74.9828 16.743 72.224 14.8114 69.0322 14.8114L69.0337 14.8106Z" fill="url(#paint1_radial_8_2384)"/>
<path fill-rule="evenodd" clip-rule="evenodd" d="M81.6642 57.9914V60.0858L97.2337 71.465V69.3699L81.6642 57.9914ZM20.4159 32.5771V34.6722H35.9854V32.5771H20.4159ZM-0.000488281 69.3699V71.465L15.5691 60.0858V57.9914L-0.000488281 69.3699ZM40.8315 39.5272V41.6223L48.6166 35.9331L56.401 41.6223V39.5272L48.6166 33.838L40.8315 39.5272ZM61.2478 43.0701V45.1652L76.8174 56.5436V54.4493L61.2478 43.0701Z" fill="#004A9A"/>
<path fill-rule="evenodd" clip-rule="evenodd" d="M81.6642 60.0874V78.3499C81.6642 82.598 85.167 86.0734 89.4486 86.0734C93.7301 86.0734 97.233 82.598 97.233 78.3499V71.4666L81.6634 60.0874H81.6642ZM35.9854 45.166V34.6738H20.4159V56.5452V93.4663C20.4159 97.7143 23.9187 101.19 28.2003 101.19C32.4818 101.19 35.9847 97.715 35.9847 93.4663V45.1668L35.9854 45.166ZM0.000250558 71.4666V78.3499C0.000250558 82.598 3.50309 86.0734 7.78466 86.0734C12.0662 86.0734 15.5691 82.598 15.5691 78.3499V60.0874L-0.000488281 71.4666H0.000250558ZM40.8322 41.6239V108.277C40.8322 112.525 44.335 116 48.6166 116C52.8982 116 56.401 112.525 56.401 108.277V41.6239L48.6166 35.9339L40.8322 41.6239ZM61.2478 45.1668V93.4663C61.2478 97.7143 64.7506 101.19 69.0322 101.19C73.3138 101.19 76.8166 97.715 76.8166 93.4663V56.5452L61.2471 45.166L61.2478 45.1668Z" fill="#95C12B"/>
<path fill-rule="evenodd" clip-rule="evenodd" d="M61.2485 45.1658V93.4653C61.2485 97.7133 64.7514 101.189 69.033 101.189C73.3145 101.189 76.8174 97.7141 76.8174 93.4653V56.5442L61.2478 45.165L61.2485 45.1658Z" fill="#589308"/>
<path fill-rule="evenodd" clip-rule="evenodd" d="M40.8322 41.6226V108.276C40.8322 112.524 44.335 115.999 48.6166 115.999C52.8981 115.999 56.401 112.524 56.401 108.276V41.6226L48.6166 35.9326L40.8322 41.6226Z" fill="#589308"/>
<path fill-rule="evenodd" clip-rule="evenodd" d="M0.000250558 71.4651V78.3485C0.000250558 82.5966 3.50309 86.072 7.78466 86.072C12.0662 86.072 15.5691 82.5966 15.5691 78.3485V60.0859L-0.000488281 71.4651H0.000250558Z" fill="#589308"/>
<path fill-rule="evenodd" clip-rule="evenodd" d="M35.9853 34.6738H20.4158V93.4655C20.4158 97.7136 23.9186 101.19 28.2002 101.19C32.4818 101.19 35.9846 97.7143 35.9846 93.4655V34.6738H35.9853Z" fill="#589308"/>
<path fill-rule="evenodd" clip-rule="evenodd" d="M81.6641 60.0869V78.3495C81.6641 82.5976 85.1669 86.073 89.4485 86.073C93.7301 86.073 97.2329 82.5976 97.2329 78.3495V71.4661L81.6633 60.0869H81.6641Z" fill="#589308"/>
<path fill-rule="evenodd" clip-rule="evenodd" d="M69.5678 51.2467V95.002C69.5678 96.4872 68.3443 97.7004 66.8474 97.7004H66.8459C65.3491 97.7004 64.1255 96.4872 64.1255 95.002V47.2692L69.5671 51.2467H69.5678ZM28.3273 34.6738V95.002C28.3273 96.4872 27.1038 97.7004 25.6069 97.7004H25.6054C24.1093 97.7004 22.885 96.4872 22.885 95.002V34.6738H28.3266H28.3273Z" fill="#86B71F"/>
<path fill-rule="evenodd" clip-rule="evenodd" d="M48.6173 35.9336V109.804C48.6173 111.289 47.3938 112.503 45.8969 112.503H45.8955C44.3993 112.503 43.175 111.289 43.175 109.804V39.9111L48.6166 35.9343L48.6173 35.9336Z" fill="#7DB218"/>
<path fill-rule="evenodd" clip-rule="evenodd" d="M90.2982 66.3975V80.3402C90.2982 81.8246 89.0747 83.0393 87.5778 83.0393H87.5763C86.0801 83.0393 84.8559 81.8253 84.8559 80.3402V62.4199L90.2974 66.3967L90.2982 66.3975ZM8.25747 65.4313V80.3409C8.25747 81.8253 7.03395 83.04 5.53706 83.04H5.53632C4.03944 83.04 2.81592 81.8261 2.81592 80.3409V69.4089L8.25747 65.4313Z" fill="#90BF27"/>
<path fill-rule="evenodd" clip-rule="evenodd" d="M81.6642 60.0874C81.6642 61.2529 81.6642 62.4192 81.6642 63.5848L97.2337 74.964C97.2337 73.7984 97.2337 72.6321 97.2337 71.4666L81.6642 60.0874ZM20.4159 38.1705H35.9854C35.9854 37.0049 35.9854 35.8394 35.9854 34.6738H20.4159C20.4159 35.8394 20.4159 37.0049 20.4159 38.1705ZM-0.000488281 74.964L15.5691 63.5848C15.5691 62.4192 15.5691 61.2529 15.5691 60.0874L-0.000488281 71.4666C-0.000488281 72.6321 -0.000488281 73.7984 -0.000488281 74.964ZM40.8315 45.1213L48.6159 39.4321L56.4003 45.1213C56.4003 43.9558 56.4003 42.7902 56.4003 41.6247L48.6159 35.9347L40.8315 41.6247C40.8315 42.7902 40.8315 43.9558 40.8315 45.1213ZM61.2471 48.6642L76.8166 60.0426C76.8166 58.8771 76.8166 57.7115 76.8166 56.5452L61.2471 45.1668C61.2471 46.3323 61.2471 47.4986 61.2471 48.6642Z" fill="#CEEC4C"/>
</g>
<defs>
<radialGradient id="paint0_radial_8_2384" cx="0" cy="0" r="1" gradientUnits="userSpaceOnUse" gradientTransform="translate(48.6139 58.0086) scale(53.4786 63.8)">
<stop stop-color="#0076BE"/>
<stop offset="0.780392" stop-color="#005FAD"/>
<stop offset="1" stop-color="#00499C"/>
</radialGradient>
<radialGradient id="paint1_radial_8_2384" cx="0" cy="0" r="1" gradientUnits="userSpaceOnUse" gradientTransform="translate(48.3075 56.9752) scale(48.2984 56.9752)">
<stop stop-color="#006BB5"/>
<stop offset="0.4" stop-color="#004B99"/>
<stop offset="1" stop-color="#002B7D"/>
</radialGradient>
<clipPath id="clip0_8_2384">
<rect width="269" height="116" fill="white"/>
</clipPath>
</defs>
</svg>
