<svg width="57" height="38" viewBox="0 0 57 38" fill="none" xmlns="http://www.w3.org/2000/svg">
<circle cx="38" cy="19" r="19" fill="url(#paint0_linear_1_2)"/>
<rect width="38" height="38" rx="19" fill="#005AA3"/>
<path d="M13.9383 26.145C14.6712 26.7589 15.539 27.1904 16.4708 27.4042C16.56 27.4333 16.62 27.3167 16.56 27.2583C14.5642 25.3542 15.6608 23.2933 16.4708 22.3642C17.0483 21.7008 17.8708 20.6083 17.8108 19.1433C17.8108 18.9967 17.9608 18.8792 18.0792 18.9675C19.2117 19.5533 19.9858 20.8425 20.1942 21.8967C20.5225 21.575 20.6417 21.0767 20.6417 20.6375C20.6417 20.4908 20.82 20.3733 20.9692 20.4908C22.0417 21.4575 23.8883 24.7383 20.9092 27.3158C20.85 27.375 20.9092 27.4925 20.9692 27.4633C21.8725 27.2265 22.722 26.8186 23.4717 26.2617C28.3275 22.5117 25.1692 15.8617 23.1133 13.665C22.8458 13.4008 22.3692 13.5767 22.3692 13.9575C22.3392 14.7492 22.1008 15.6275 21.4758 16.2133C20.9992 14.2217 19.4108 11.9592 17.1467 10.8458C16.8492 10.6992 16.4917 10.9333 16.5217 11.2558C16.58 13.9808 14.8025 15.7158 13.2533 17.9717C11.8825 19.9925 10.9892 23.7133 13.9383 26.145Z" fill="white"/>
<defs>
<linearGradient id="paint0_linear_1_2" x1="38" y1="0" x2="38" y2="38" gradientUnits="userSpaceOnUse">
<stop stop-color="#DCEAF5"/>
<stop offset="1" stop-color="#DCEAF5" stop-opacity="0"/>
</linearGradient>
</defs>
</svg>
