<svg width="57" height="38" viewBox="0 0 57 38" fill="none" xmlns="http://www.w3.org/2000/svg">
<circle cx="38" cy="19" r="19" fill="url(#paint0_linear_1_15)"/>
<rect width="38" height="38" rx="19" fill="#005AA3"/>
<g clip-path="url(#clip0_1_15)">
<path d="M25.8307 24.0635L23.742 21.2641H24.4777C24.7171 21.2641 24.8064 21.1418 24.8383 21.0689C24.8702 20.9959 24.9007 20.8446 24.7464 20.6501L22.3647 17.6468H23.364C23.6055 17.6468 23.6916 17.5251 23.7214 17.4525C23.7512 17.3799 23.7767 17.2302 23.6126 17.042L21.3126 14.4048H21.8694C22.1109 14.4048 22.197 14.2831 22.2268 14.2106C22.2566 14.1381 22.2821 13.9883 22.118 13.8L19.4067 10.6914C19.2991 10.568 19.1546 10.5 19 10.5C18.8453 10.5 18.7009 10.568 18.5933 10.6914L15.882 13.8001C15.7179 13.9883 15.7433 14.1381 15.7732 14.2107C15.803 14.2832 15.8891 14.4049 16.1306 14.4049H16.6874L14.3875 17.042C14.2233 17.2302 14.2488 17.38 14.2786 17.4526C14.3084 17.5251 14.3945 17.6468 14.636 17.6468H15.6353L13.2535 20.6501C13.0993 20.8447 13.1298 20.996 13.1617 21.0689C13.1936 21.1418 13.2829 21.2641 13.5223 21.2641H14.258L12.1693 24.0636C12.0215 24.2617 12.0551 24.4139 12.0884 24.487C12.1217 24.5601 12.213 24.6827 12.451 24.6827H25.549C25.7871 24.6827 25.8784 24.5601 25.9116 24.487C25.9449 24.4139 25.9785 24.2617 25.8307 24.0635Z" fill="white"/>
<path d="M20.1236 25.3596H17.8763C17.6336 25.3596 17.4362 25.5694 17.4362 25.8273V27.0324C17.4362 27.2902 17.6336 27.5 17.8763 27.5H20.1236C20.3663 27.5 20.5637 27.2902 20.5637 27.0324V25.8273C20.5637 25.5694 20.3663 25.3596 20.1236 25.3596Z" fill="white"/>
</g>
<defs>
<linearGradient id="paint0_linear_1_15" x1="38" y1="0" x2="38" y2="38" gradientUnits="userSpaceOnUse">
<stop stop-color="#DCEAF5"/>
<stop offset="1" stop-color="#DCEAF5" stop-opacity="0"/>
</linearGradient>
<clipPath id="clip0_1_15">
<rect width="16" height="17" fill="white" transform="translate(11 10.5)"/>
</clipPath>
</defs>
</svg>
