<svg width="57" height="38" viewBox="0 0 57 38" fill="none" xmlns="http://www.w3.org/2000/svg">
<circle cx="38" cy="19" r="19" fill="url(#paint0_linear_1_21)"/>
<rect width="38" height="38" rx="19" fill="#005AA3"/>
<path d="M12.25 24.7922V25.75C12.25 25.9489 12.329 26.1397 12.4697 26.2803C12.6103 26.421 12.8011 26.5 13 26.5H13.75C13.9489 26.5 14.1397 26.421 14.2803 26.2803C14.421 26.1397 14.5 25.9489 14.5 25.75V25H23.5V25.75C23.5 25.9489 23.579 26.1397 23.7197 26.2803C23.8603 26.421 24.0511 26.5 24.25 26.5H25C25.1989 26.5 25.3897 26.421 25.5303 26.2803C25.671 26.1397 25.75 25.9489 25.75 25.75V24.7922C25.9775 24.6618 26.1667 24.4736 26.2983 24.2467C26.43 24.0199 26.4996 23.7623 26.5 23.5V21.25C26.5 20.6268 26.1197 20.0935 25.579 19.8663L24.553 16.7883C24.4042 16.3401 24.1179 15.9503 23.7348 15.6741C23.3518 15.398 22.8915 15.2496 22.4192 15.25H15.5807C15.1085 15.2496 14.6482 15.398 14.2652 15.6741C13.8821 15.9503 13.5958 16.3401 13.447 16.7883L12.421 19.8663C12.1482 19.9805 11.9153 20.1728 11.7514 20.419C11.5876 20.6652 11.5001 20.9543 11.5 21.25V23.5C11.5 24.0535 11.803 24.532 12.25 24.7922ZM14.125 23.5C13.9772 23.5 13.8309 23.4708 13.6944 23.4142C13.5578 23.3576 13.4338 23.2747 13.3293 23.1701C13.1184 22.959 12.9999 22.6727 13 22.3743C13.0001 22.0758 13.1188 21.7896 13.3299 21.5786C13.541 21.3676 13.8273 21.2492 14.1257 21.2492C14.4242 21.2493 14.7104 21.368 14.9214 21.5791C15.1324 21.7902 15.2508 22.0765 15.2507 22.375C15.2507 22.6735 15.132 22.9597 14.9209 23.1707C14.7098 23.3816 14.4235 23.5001 14.125 23.5ZM23.875 23.5C23.5765 23.4999 23.2903 23.3812 23.0793 23.1701C22.8684 22.959 22.7499 22.6727 22.75 22.3743C22.7501 22.0758 22.8688 21.7896 23.0799 21.5786C23.291 21.3676 23.5773 21.2492 23.8757 21.2492C24.1742 21.2493 24.4604 21.368 24.6714 21.5791C24.8824 21.7902 25.0008 22.0765 25.0007 22.375C25.0006 22.6735 24.882 22.9597 24.6709 23.1707C24.4598 23.3816 24.1735 23.5001 23.875 23.5ZM15.5807 16.75H22.4185C22.576 16.75 22.7295 16.7995 22.8572 16.8916C22.985 16.9836 23.0805 17.1136 23.1302 17.263L23.9597 19.75H14.0402L14.869 17.263C14.9717 16.9563 15.2582 16.75 15.5807 16.75Z" fill="white"/>
<path d="M26.5 15.541V13.9592L19.237 11.5382C19.0765 11.4845 18.9025 11.4869 18.7435 11.545L11.5 14.179V15.775L19.0112 13.0435L26.5 15.541Z" fill="white"/>
<defs>
<linearGradient id="paint0_linear_1_21" x1="38" y1="0" x2="38" y2="38" gradientUnits="userSpaceOnUse">
<stop stop-color="#DCEAF5"/>
<stop offset="1" stop-color="#DCEAF5" stop-opacity="0"/>
</linearGradient>
</defs>
</svg>
