<svg width="57" height="38" viewBox="0 0 57 38" fill="none" xmlns="http://www.w3.org/2000/svg">
<circle cx="38" cy="19" r="19" fill="url(#paint0_linear_1_32)"/>
<rect width="38" height="38" rx="19" fill="#005AA3"/>
<g clip-path="url(#clip0_1_32)">
<path d="M20.0367 10.5132C19.4997 9.82867 18.5003 9.82867 17.9629 10.5132C15.6888 13.4103 10.8931 12.5846 10.8931 16.3864C10.8931 20.9953 14.4716 27.6851 19 28C23.5284 27.6851 27.1069 20.9953 27.1069 16.3864C27.1069 12.5846 22.3112 13.4103 20.0367 10.5132ZM21.376 20.0137L19.1348 24.5805C19.0424 24.7693 18.8291 24.8645 18.6268 24.8086C18.4245 24.7519 18.2905 24.5238 18.3083 24.3152L18.5594 21.2919H17.1177C16.944 21.2919 16.781 21.2471 16.6771 21.1079C16.5728 20.9687 16.5411 20.8077 16.5903 20.6411L18.133 15.3894C18.202 15.1558 18.4166 14.946 18.6605 14.946H20.4492C20.6332 14.946 20.8049 15.0959 20.9068 15.249C21.0088 15.4025 21.0274 15.6698 20.9564 15.8395L19.5358 19.309H20.8826C21.0726 19.309 21.2491 19.3645 21.3498 19.5255C21.4506 19.6865 21.4597 19.8436 21.376 20.0137Z" fill="white"/>
</g>
<defs>
<linearGradient id="paint0_linear_1_32" x1="38" y1="0" x2="38" y2="38" gradientUnits="userSpaceOnUse">
<stop stop-color="#DCEAF5"/>
<stop offset="1" stop-color="#DCEAF5" stop-opacity="0"/>
</linearGradient>
<clipPath id="clip0_1_32">
<rect width="18" height="18" fill="white" transform="translate(10 10)"/>
</clipPath>
</defs>
</svg>
