<svg width="58" height="58" viewBox="0 0 58 58" fill="none" xmlns="http://www.w3.org/2000/svg">
<rect width="58" height="58" rx="6" fill="#F0F4FB"/>
<path d="M14.8335 29.7085L17.3149 27.5373C18.6059 26.4078 20.5516 26.4726 21.7645 27.6855L27.8416 33.7626C28.8151 34.7363 30.3477 34.869 31.4742 34.0772L31.8967 33.7805C33.5176 32.6412 35.7108 32.7732 37.1835 34.0986L41.7502 38.2085" stroke="#005AA3" stroke-linecap="round"/>
<path d="M38.296 16.1584L38.8869 15.5675C39.866 14.5885 41.4532 14.5885 42.4323 15.5675C43.4113 16.5465 43.4113 18.1338 42.4323 19.1128L41.8414 19.7037M38.296 16.1584C38.296 16.1584 38.37 17.414 39.4778 18.5219C40.5858 19.6298 41.8414 19.7037 41.8414 19.7037M38.296 16.1584L32.8638 21.5907C32.4958 21.9586 32.3119 22.1426 32.1536 22.3455C31.9671 22.5847 31.807 22.8436 31.6765 23.1176C31.5657 23.3498 31.4836 23.5966 31.3189 24.0903L30.7921 25.6708M41.8414 19.7037L36.409 25.136C36.0411 25.5039 35.8572 25.6879 35.6544 25.8461C35.4151 26.0328 35.1561 26.1928 34.8821 26.3233C34.6499 26.4341 34.4032 26.5162 33.9095 26.6808L32.329 27.2077M30.7921 25.6708L30.4512 26.6934C30.3702 26.9363 30.4335 27.2042 30.6146 27.3852C30.7956 27.5663 31.0635 27.6296 31.3063 27.5485L32.329 27.2077M30.7921 25.6708L32.329 27.2077" stroke="#005AA3"/>
<path d="M43.1668 28.9999C43.1668 35.6781 43.1668 39.0173 41.0921 41.0919C39.0176 43.1666 35.6783 43.1666 29.0002 43.1666C22.3219 43.1666 18.9828 43.1666 16.9082 41.0919C14.8335 39.0173 14.8335 35.6781 14.8335 28.9999C14.8335 27.4015 14.8335 25.9942 14.8619 24.7499M29.0002 14.8333C22.3219 14.8333 18.9828 14.8333 16.9082 16.9079C16.3063 17.5097 15.8791 18.218 15.5758 19.0833" stroke="#005AA3" stroke-linecap="round"/>
</svg>
