<svg width="58" height="58" viewBox="0 0 58 58" fill="none" xmlns="http://www.w3.org/2000/svg">
<rect width="58" height="58" rx="6" fill="#F0F4FB"/>
<path d="M24.9917 17.6666C25.5751 16.0159 27.1494 14.8333 28.9998 14.8333C30.8504 14.8333 32.4246 16.0159 33.008 17.6666" stroke="#005AA3" stroke-linecap="round"/>
<path d="M41.0415 20.5H16.958" stroke="#005AA3" stroke-linecap="round"/>
<path d="M38.0289 33.8155C37.7781 37.5766 37.6528 39.4572 36.4274 40.6036C35.2019 41.7501 33.3172 41.7501 29.5477 41.7501H28.4521C24.6826 41.7501 22.7979 41.7501 21.5725 40.6036C20.347 39.4572 20.2217 37.5766 19.9709 33.8155L19.3193 24.0417M38.6804 24.0417L38.3971 28.2917" stroke="#005AA3" stroke-linecap="round"/>
<path d="M25.4585 27.5833L26.1668 34.6666" stroke="#005AA3" stroke-linecap="round"/>
<path d="M32.5418 27.5833L31.8335 34.6666" stroke="#005AA3" stroke-linecap="round"/>
</svg>
