<svg width="58" height="58" viewBox="0 0 58 58" fill="none" xmlns="http://www.w3.org/2000/svg">
<rect width="58" height="58" rx="6" fill="#F0F4FB"/>
<path d="M29 14.8333V26.1666M29 26.1666L33.25 21.9166M29 26.1666L24.75 21.9166" stroke="#005AA3" stroke-linecap="round" stroke-linejoin="round"/>
<path d="M14.8335 30.4167H19.3105C20.5929 30.4167 21.234 30.4167 21.7976 30.676C22.3612 30.9351 22.7785 31.422 23.613 32.3955L24.4707 33.3963C25.3052 34.3698 25.7225 34.8567 26.2861 35.1158C26.8497 35.3751 27.4908 35.3751 28.7731 35.3751H29.2273C30.5095 35.3751 31.1507 35.3751 31.7142 35.1158C32.2779 34.8567 32.6951 34.3698 33.5297 33.3963L34.3873 32.3955C35.2219 31.422 35.6391 30.9351 36.2028 30.676C36.7663 30.4167 37.4075 30.4167 38.6897 30.4167H43.1668" stroke="#005AA3" stroke-linecap="round"/>
<path d="M43.1668 29.0001C43.1668 35.6783 43.1668 39.0175 41.0921 41.0921C39.0176 43.1668 35.6783 43.1668 29.0002 43.1668C22.3219 43.1668 18.9828 43.1668 16.9082 41.0921C14.8335 39.0175 14.8335 35.6783 14.8335 29.0001C14.8335 22.3219 14.8335 18.9828 16.9082 16.9081C18.0648 15.7515 19.6145 15.2397 21.9168 15.0132M36.0835 15.0132C38.3857 15.2397 39.9356 15.7515 41.0921 16.9081C42.4717 18.2876 42.9339 20.2259 43.0888 23.3333" stroke="#005AA3" stroke-linecap="round"/>
</svg>
