<svg width="58" height="58" viewBox="0 0 58 58" fill="none" xmlns="http://www.w3.org/2000/svg">
<rect width="58" height="58" rx="6" fill="#F0F4FB"/>
<path d="M14.8335 23.3336V20.339C14.8335 17.9276 14.8335 16.7219 15.6019 16.3265C16.3704 15.931 17.3515 16.6318 19.3137 18.0334L21.5538 19.6335C22.4262 20.2567 22.8625 20.5683 23.098 21.0259C23.3335 21.4836 23.3335 22.0197 23.3335 23.0918V34.9081C23.3335 35.9802 23.3335 36.5163 23.098 36.974C22.8625 37.4316 22.4262 37.7433 21.5538 38.3665L19.3137 39.9665C17.3515 41.3681 16.3704 42.0688 15.6019 41.6734C14.8335 41.278 14.8335 40.0723 14.8335 37.6608V29.0002" stroke="#005AA3" stroke-linecap="round"/>
<path d="M43.1665 29.0002V20.339C43.1665 17.9276 43.1665 16.7219 42.3981 16.3265C41.6297 15.931 40.6485 16.6318 38.6863 18.0334L36.4463 19.6335C35.5737 20.2567 35.1375 20.5683 34.902 21.0259C34.6665 21.4836 34.6665 22.0197 34.6665 23.0918V34.9081C34.6665 35.9802 34.6665 36.5163 34.902 36.974C35.1375 37.4316 35.5737 37.7433 36.4463 38.3665L38.6863 39.9665C40.6485 41.3681 41.6297 42.0688 42.3981 41.6734C43.1665 41.278 43.1665 40.0723 43.1665 37.6608V34.7472" stroke="#005AA3" stroke-linecap="round"/>
<path d="M29 31.8333V26.1666M29 20.4999V14.8333M29 43.1666V37.4999" stroke="#005AA3" stroke-linecap="round"/>
</svg>
