<svg width="58" height="58" viewBox="0 0 58 58" fill="none" xmlns="http://www.w3.org/2000/svg">
<rect width="58" height="58" rx="6" fill="#F0F4FB"/>
<path d="M26.1663 16.25H43.1663M14.833 16.25H20.4997" stroke="#005AA3" stroke-linecap="round"/>
<path d="M19.083 30.4167V38.2084C19.083 39.5324 19.083 40.1944 19.3677 40.6876C19.5542 41.0106 19.8225 41.2789 20.1455 41.4653C20.6386 41.7501 21.3006 41.7501 22.6247 41.7501C23.9487 41.7501 24.6107 41.7501 25.1038 41.4653C25.4269 41.2789 25.6951 41.0106 25.8816 40.6876C26.1663 40.1944 26.1663 39.5324 26.1663 38.2084V25.4584C26.1663 24.1344 26.1663 23.4724 25.8816 22.9792C25.6951 22.6562 25.4269 22.3879 25.1038 22.2014C24.6107 21.9167 23.9487 21.9167 22.6247 21.9167C21.3006 21.9167 20.6386 21.9167 20.1455 22.2014C19.8225 22.3879 19.5542 22.6562 19.3677 22.9792C19.139 23.3753 19.094 23.8804 19.0852 24.7501" stroke="#005AA3" stroke-linecap="round"/>
<path d="M35.3747 21.9167C34.0507 21.9167 33.3886 21.9167 32.8955 22.2014C32.5725 22.3879 32.3042 22.6562 32.1178 22.9792C31.833 23.4724 31.833 24.1344 31.833 25.4584V33.9584C31.833 35.2824 31.833 35.9444 32.1178 36.4376C32.3042 36.7606 32.5725 37.0289 32.8955 37.2153C33.3886 37.5001 34.0507 37.5001 35.3747 37.5001C36.6987 37.5001 37.3607 37.5001 37.8538 37.2153C38.1768 37.0289 38.4452 36.7606 38.6316 36.4376C38.9163 35.9444 38.9163 35.2824 38.9163 33.9584V25.4584C38.9163 24.1344 38.9163 23.4724 38.6316 22.9792C38.4452 22.6562 38.1768 22.3879 37.8538 22.2014C37.3607 21.9167 36.6987 21.9167 35.3747 21.9167Z" stroke="#005AA3"/>
</svg>
