<svg width="58" height="58" viewBox="0 0 58 58" fill="none" xmlns="http://www.w3.org/2000/svg">
<rect width="58" height="58" rx="6" fill="#F0F4FB"/>
<path d="M24.75 18.375H23.3333C19.9942 18.375 18.3247 18.375 17.2873 19.4123C16.25 20.4497 16.25 22.1192 16.25 25.4583V26.1667M24.75 39.625H23.3333C19.9942 39.625 18.3247 39.625 17.2873 38.5877C16.25 37.5503 16.25 35.8807 16.25 32.5417V31.8333" stroke="#005AA3" stroke-linecap="round"/>
<path d="M31.3483 15.3253C28.2853 14.7911 26.7539 14.524 25.7519 15.4122C24.75 16.3005 24.75 17.9252 24.75 21.1748V36.825C24.75 40.0746 24.75 41.6993 25.7519 42.5876C26.7539 43.4758 28.2853 43.2087 31.3483 42.6744L34.6474 42.0991C38.0396 41.5074 39.7356 41.2116 40.7429 39.9673C41.75 38.7232 41.75 36.9238 41.75 33.3249V24.675C41.75 21.0761 41.75 19.2766 40.7429 18.0324C40.0698 17.201 39.0891 16.793 37.5 16.4373" stroke="#005AA3" stroke-linecap="round"/>
<path d="M29 27.5833V30.4166" stroke="#005AA3" stroke-linecap="round"/>
</svg>
