<svg width="58" height="58" viewBox="0 0 58 58" fill="none" xmlns="http://www.w3.org/2000/svg">
<rect width="58" height="58" rx="6" fill="#F0F4FB"/>
<path d="M20.5557 23.0103C17.0711 23.7987 15.3289 24.1929 14.9144 25.5259C14.4998 26.8588 15.6876 28.2478 18.0632 31.0256L18.6777 31.7443C19.3528 32.5337 19.6903 32.9283 19.8421 33.4167C19.994 33.905 19.943 34.4316 19.8409 35.4849L19.748 36.4437C19.3888 40.1499 19.2093 42.0031 20.2945 42.8269C21.3797 43.6507 23.011 42.8995 26.2736 41.3975L27.1176 41.0087C28.0447 40.5819 28.5082 40.3684 28.9997 40.3684C29.4911 40.3684 29.9547 40.5819 30.8817 41.0087L31.7258 41.3975C34.9884 42.8995 36.6196 43.6507 37.705 42.8269C38.7901 42.0031 38.6105 40.1499 38.2514 36.4437M39.9362 31.0256C42.3118 28.2478 43.4995 26.8588 43.085 25.5259C42.6705 24.1929 40.9282 23.7987 37.4437 23.0103L36.5422 22.8063C35.5519 22.5823 35.0569 22.4703 34.6594 22.1685C34.2617 21.8667 34.0069 21.4093 33.4969 20.4946L33.0326 19.6618C31.2383 16.4428 30.3411 14.8333 28.9997 14.8333C27.6582 14.8333 26.7611 16.4428 24.9667 19.6618" stroke="#005AA3" stroke-linecap="round"/>
</svg>
