<svg width="58" height="58" viewBox="0 0 58 58" fill="none" xmlns="http://www.w3.org/2000/svg">
<rect width="58" height="58" rx="6" fill="#F0F4FB"/>
<path d="M41.8442 19.0833C42.6827 20.4405 43.1663 22.0385 43.1663 23.749C43.1663 28.673 39.1583 32.6647 34.214 32.6647C33.3119 32.6647 31.2577 32.4573 30.2584 31.628L29.0092 32.8721C27.9683 33.9087 28.8011 33.9087 29.2174 34.7381C29.2174 34.7381 30.2584 36.1895 29.2174 37.6409C28.5928 38.4702 26.8439 39.6313 24.8454 37.6409L24.429 38.0555C24.429 38.0555 25.6781 39.5069 24.6372 40.9583C24.0126 41.7877 22.3471 42.6171 20.8897 41.1657C20.8203 41.2348 20.4317 41.6218 19.4324 42.6171C18.433 43.6123 17.2117 43.0317 16.7259 42.6171L15.4768 41.3729C14.3109 40.2118 14.991 38.954 15.4768 38.4702L26.3028 27.6885C26.3028 27.6885 25.2618 26.0297 25.2618 23.749C25.2618 18.825 29.2698 14.8333 34.214 14.8333C35.374 14.8333 36.4825 15.053 37.4997 15.4529" stroke="#005AA3" stroke-linecap="round" stroke-linejoin="round"/>
<path d="M37.3376 23.7491C37.3376 25.4667 35.9395 26.8592 34.2147 26.8592C32.49 26.8592 31.0918 25.4667 31.0918 23.7491C31.0918 22.0314 32.49 20.6389 34.2147 20.6389C35.9395 20.6389 37.3376 22.0314 37.3376 23.7491Z" stroke="#005AA3"/>
</svg>
